<?xml version="1.0" encoding="UTF-8"?>
<!DOCTYPE svg PUBLIC "-//W3C//DTD SVG 1.1//EN" "http://www.w3.org/Graphics/SVG/1.1/DTD/svg11.dtd">
<!-- Creator: FutureCorp VMX -->
<svg xmlns="http://www.w3.org/2000/svg" xml:space="preserve" shape-rendering="geometricPrecision" text-rendering="geometricPrecision" image-rendering="optimizeQuality" fill-rule="evenodd" clip-rule="evenodd"
 xmlns:xlink="http://www.w3.org/1999/xlink">
 <g id="Layer_1">
  <metadata id="FutureCorpID_Layer"/>

  <path fill="#000000" d="M432.67,707.09 C444.42,704.81 455.29,703.22 462.55,702.72 C465.05,702.54 467.66,702.55 470.38,702.74 C471.63,702.83 472.9,702.96 474.21,703.12 C477.41,703.52 483.21,704.61 489.51,706 L493.45,706.86 C497.56,707.77 501.8,709.21 506.13,711.19 C511.5,713.63 519.41,718.4 528.01,724.38 C532.88,727.76 535.53,735.18 535.85,746.34 C535.91,748.27 536,750.13 536.13,751.76 C536.39,755.16 536.54,761.42 536.52,768.24 C536.51,772.42 536.58,776.49 536.72,780.07 L537.23,789.23 C537.8,799.44 537.88,808.68 537.45,813.78 C537.17,817.01 536.7,820.69 536.08,824.54 C535.05,830.84 534.42,836.55 534.39,839.74 C534.34,846.77 533.93,852.79 533.22,856.75 C532.93,858.34 532.53,860.14 532.05,862.01 C530.7,867.23 530.18,871.55 530.58,874.23 C530.83,875.9 531.27,877.82 531.87,879.9 C532.45,881.88 532.91,883.7 533.1,884.71 C534.44,891.91 535.49,901.7 536.1,912.63 C536.9,926.74 535.97,952.27 533.63,980.42 L533.49,982.11 C533.45,982.48 533.45,983.17 533.49,983.93 C533.64,987.36 532.16,989.62 530.19,988.96 C529.37,988.69 528.5,987.88 527.93,986.84 C527.38,985.87 526.85,985.21 526.37,984.91 C525.01,984.08 525.6,984.28 522.29,983.49 C522.16,984.36 521.68,985.79 520.96,987.38 C520.13,989.21 519.64,990.79 519.57,991.8 L519.45,993.66 C519.17,995.06 519.24,994.71 518.96,996.11 L518.96,996.11 C518.92,996.64 518.39,997.07 517.42,997.34 C516.48,997.6 515.96,998 515.89,998.52 L515.89,998.53 C516.12,1001.38 513.12,1003.43 508.33,1003.66 C496.51,1004.25 487.37,1006.51 480.98,1010.43 C480.71,1010.59 480.23,1010.72 479.61,1010.79 C478.2,1010.96 477.39,1011.65 477.67,1012.43 C477.78,1012.71 478.03,1013.06 478.51,1013.6 L498.18,1013.6 C499.47,1013.6 501.4,1013 503.69,1011.88 C505.73,1010.88 507.5,1010.28 508.63,1010.18 C509.89,1010.07 511.37,1010.07 513,1010.17 C516.06,1010.35 518.55,1010.18 520.02,1009.69 C520.33,1009.58 520.68,1009.42 521.03,1009.23 C521.89,1008.75 522.6,1009.86 522.39,1011.36 C522.2,1012.69 522.6,1013.6 523.37,1013.6 L527.98,1013.6 C528.28,1013.6 528.73,1013.6 528.87,1013.6 L540.99,1013.6 C542.96,1013.6 546.11,1012.83 549.79,1011.45 C557.33,1008.63 562.78,1008.88 565.55,1012.19 C567.46,1014.47 570.8,1013.91 574.14,1010.75 C576.98,1008.06 582.07,1007.3 589.53,1008.45 C592.79,1008.95 595.69,1009.19 597.34,1009.08 C598.32,1009.06 598.53,1009.38 598.37,1010.65 C598.32,1011.07 598.38,1011.48 598.55,1011.81 C599.37,1013.41 601.66,1013.39 604.38,1011.76 C605.46,1011.11 606.42,1010.71 607.25,1010.55 C607.7,1010.46 608.52,1010.27 609.4,1010.03 C611.05,1009.59 612.47,1009.38 613.66,1009.39 C614.48,1009.4 615.9,1009.61 617.49,1009.95 C622.07,1010.93 625.18,1010.28 626.42,1008.1 C626.47,1008.02 626.51,1007.97 626.55,1007.92 C629.44,1004.9 634.83,1003.85 642.83,1004.73 C647.06,1005.2 650.66,1005.22 652.76,1004.81 C657.53,1003.85 660.9,1005.15 660.96,1007.97 C660.97,1008.1 660.99,1008.18 661.03,1008.24 C662.09,1009.74 664.34,1009.06 666.3,1006.67 C666.65,1006.24 666.98,1005.86 667.17,1005.66 C669.28,1003.46 668.44,999.73 665.39,997.79 C663.62,996.66 660.59,996.1 656.44,996.15 L649.28,996.22 C643.67,996.29 638.49,996.43 635.68,996.6 C635.29,996.62 635.2,996.6 634.98,996.44 C634.98,996.44 634.98,996.44 634.98,996.44 L634.98,996.44 C631.22,993.39 630.8,987.95 634.08,984.87 C634.41,984.57 634.21,984.03 633.59,983.53 C633.59,983.53 633.59,983.53 633.59,983.53 L633.59,983.53 C630.65,981.32 626.94,980.72 623.75,981.93 C621.54,982.76 619.04,981.91 617.72,979.88 C612.87,972.41 609.7,963.31 608.35,953.02 C607.38,945.55 606.96,935.57 607.17,924.58 L607.28,918.84 C607.3,918.04 607.42,916.56 607.6,914.95 C607.99,911.37 607.9,908.51 607.32,906.79 C605.28,900.68 603.82,889.83 603.31,877.01 L603.05,870.34 C602.86,865.51 602.96,859.93 603.36,853.89 C603.77,847.64 603.96,841.91 603.86,838.78 C603.56,829.81 602.43,820.36 600.47,810.45 C595.94,787.54 594.84,768.59 597.25,754.98 C599.67,741.26 606.23,727.92 616.27,716.29 C623.75,707.62 634.04,701.69 645.47,699.47 C675.87,693.56 708.56,694.33 741.95,701.74 C756.83,705.04 770.04,707.49 777.68,708.38 C788.58,709.64 798.61,709.8 807.74,708.85 C821.1,707.47 834.23,704.12 846.7,698.9 C850.12,697.47 853.82,695.81 857.6,694.02 C865.24,690.39 872.32,687.38 876.33,686.04 C881.5,684.31 886.35,683.27 890.9,682.91 L895.73,682.52 C904.5,681.82 912.53,681.47 916.93,681.59 C922.6,681.74 927.74,682.4 932.34,683.56 C942.06,686.02 949.96,690.89 955.08,697.58 C955.49,698.12 955.92,698.73 956.35,699.38 C958.24,702.23 960.02,703.97 961.66,704.56 C964.49,705.57 967.27,703.98 966.69,701.67 L965.94,698.67 C965.94,698.67 965.94,698.67 965.94,698.67 C965.61,697.62 966.48,696.54 967.93,696.21 L969.79,695.78 C972.4,695.19 974.17,694.26 975.1,693.01 C975.32,692.72 975.43,692.37 975.5,691.81 C975.35,691.06 975.39,691.24 975.23,690.49 C975.11,689.81 975.02,689.76 973.79,689.71 C972.77,689.67 970.93,689.76 968.9,689.96 C966.28,690.22 963.97,690.27 962.66,690.1 C961.03,689.89 958.65,688.85 955.88,687.13 C953.72,685.8 951.77,684.82 950.55,684.47 C949.36,684.12 949.53,684.22 949.32,683.75 C949.08,683.21 949.21,683.04 949.9,682.99 C953,682.76 958.46,681.72 964.49,680.19 C968.18,679.25 971.6,678.47 973.47,678.13 C976.34,677.6 978.72,677.1 980.37,676.67 C984.69,675.54 988.5,674.12 991.81,672.39 C992.31,672.13 992.78,671.87 993.22,671.6 C994.48,670.83 995.03,669.75 994.79,668.47 C994.64,667.79 993.86,667.07 992.94,666.76 C991.66,666.62 989.58,666.89 987.1,667.53 C985.71,667.88 984.44,668.15 983.73,668.25 C979.09,668.85 972.55,670.03 965.63,671.51 C957.51,673.25 950.06,674.55 945.93,674.97 C940.61,675.51 935.73,675.5 931.29,674.96 C926.97,674.44 921.65,673.34 915.9,671.79 C910.82,670.42 906.15,669.34 903.55,668.92 L897.92,668 L907.83,659.95 C914.1,654.86 919.98,650.36 923.33,648.1 L923.33,648.1 C926.43,646 930.12,644.43 934.28,643.42 L934.28,643.42 C938.92,642.3 946.6,641.8 955.58,642.03 C959.92,642.14 965.86,642.51 972.12,643.07 C984.08,644.14 994.65,644.32 1000.62,643.57 C1003.55,643.19 1005.86,642.6 1007.37,641.83 C1008.49,641.26 1009.23,640.69 1009.56,640.14 C1009.83,639.7 1010.26,639.36 1011.35,638.72 C1011,638.16 1010.41,637.76 1009.21,637.28 C1005.87,635.94 1002.06,635.69 994.45,636.32 C992.02,636.52 989.8,636.63 988.57,636.62 C983.18,636.54 975.71,636.08 967.78,635.32 C957.51,634.34 948.17,633.86 943.01,634.06 C939.58,634.19 939.63,634.19 939.65,633.88 C939.66,633.76 939.96,633.43 940.36,633.1 C943.39,630.6 949.29,626.87 956.18,623.11 L959.2,621.47 C959.67,621.21 960.19,620.94 960.73,620.68 C964.06,619.06 966.05,617.38 966.72,615.6 C967.37,613.88 967.34,613.63 966.49,613.52 C964.32,613.23 961.3,614.15 957.51,616.25 C951.95,619.33 943.71,624.83 935.01,631.27 C931.02,634.21 927.3,636.91 925.26,638.33 L918.55,643.01 C904.58,652.73 891.55,660.99 883.99,664.91 C874.26,669.95 864.91,673.45 855.96,675.4 C851.43,676.39 845.89,677.86 840.11,679.6 C830.51,682.5 821.82,684.54 816.83,685.08 C810.43,685.76 804.58,685.4 799.38,683.98 L797.41,683.44 C797.61,683.25 797.78,683.08 797.95,682.91 C803.91,676.74 809.52,671.84 814.23,668.7 C816.88,666.92 820.14,664.41 823.52,661.54 C827.85,657.86 831.9,654.81 834.35,653.37 C841.52,649.18 847.83,646.25 851.95,645.19 C853.62,644.76 855.75,644.28 858,643.84 C863.7,642.72 868.38,641.28 870.94,639.86 C871.84,639.35 872.53,638.86 872.71,638.6 C873.17,637.81 872.82,636.85 872.02,636.67 L870.97,636.48 C870.42,636.11 870.53,636.16 870.19,636.12 C869.64,636.05 869.3,636.03 869.08,636.02 C865.94,636 860.5,636.77 854.38,638.12 C851.54,638.74 848.9,639.27 847.47,639.51 C845.42,639.86 845.41,639.86 845.09,639.67 C844.96,639.59 844.91,639.47 844.95,639.31 C845.83,636.1 848.48,631.34 852.35,625.98 L854.53,622.98 C855,622.32 855.56,621.58 856.14,620.83 L857.14,619.54 C857.64,618.89 857.94,618.32 858.03,617.86 C858.12,617.38 858.04,616.92 857.75,616.39 C856.8,614.72 855.51,614.65 853.49,616.15 C849.32,619.26 845.98,622.88 843.62,626.86 C838.15,636.11 830.43,644.62 820.71,652.15 C818.86,653.59 816.78,655.25 814.67,656.97 C807.69,662.68 801.18,667.3 797.18,669.4 C792.05,672.08 787,673.61 782.17,673.97 C775.89,674.42 769.86,673.76 764.31,672.02 C763.87,671.87 763.5,671.7 763.29,671.53 C762.93,671.2 763.24,670.1 763.82,669.62 C765.79,668.03 769.35,665 773.17,661.67 C779.96,655.74 786.35,650.57 790.06,648 C793.48,645.62 797.36,643.37 801.69,641.26 C805.77,639.27 813.69,636.01 822.43,632.74 C825.51,631.59 827.96,630.41 829.38,629.4 C831.22,628.1 832.46,626.88 832.98,625.87 C833.28,625.26 833.3,624.78 833.04,624.51 L832.02,624.14 C831.64,624.01 831.13,624.15 830.49,624.56 C828.87,625.63 827.28,626.32 825.74,626.63 C815.6,628.68 805.34,632.12 795.08,636.88 C787.41,640.45 777.66,647.19 767.04,656.28 C761.34,661.15 755.99,665.47 752.95,667.66 C747.85,671.33 739.55,672.75 727.89,671.94 C725.74,671.79 723.76,671.66 722.68,671.61 L706.88,670.8 C695.62,670.23 685.23,669.81 679.59,669.71 L670.94,669.56 C663.26,669.42 656.19,669.43 652.36,669.58 C647.42,669.77 642.89,670.21 638.82,670.89 C636.71,671.24 634.07,671.91 631.24,672.81 C626.57,674.29 622.57,675.07 620.11,675 C618.55,674.95 618.7,674.94 618.33,675.14 L618.03,675.32 C617.86,675.37 617.75,675.18 617.78,674.9 C617.83,674.5 617.94,674.24 618.15,674.02 C619.51,672.62 621.79,669.89 624.17,666.8 C627.58,662.35 630.86,658.71 633.05,656.94 C635.61,654.86 638.54,652.9 641.83,651.06 C645.31,649.11 651.9,646.09 659.28,643.07 C662.35,641.81 665.15,640.64 666.67,639.97 C674.91,636.39 682.94,634.45 690.61,634.18 L698.47,633.9 C708.86,633.54 718.39,632.96 723.55,632.38 C730.2,631.63 736.24,630.5 741.63,629 C746.2,627.74 749.51,626.04 751.54,623.92 C752.52,622.91 752.62,622.76 752.46,622.51 C752.22,622.13 751.44,621.99 751.01,622.25 C751.01,622.25 751.01,622.25 751.01,622.25 L751.01,622.25 C749.18,623.47 745.94,624.27 741.6,624.58 C739.58,624.73 737.76,624.94 736.77,625.13 C730.44,626.4 720.91,627.15 710.17,627.21 C699.48,627.27 690.02,627.94 684.77,628.99 C684.01,629.15 683.54,628.22 683.99,627.47 C684.25,627.03 684.86,626.68 685.82,626.42 C686.28,626.3 686.67,626.17 686.88,626.06 C688.03,625.48 690.2,624.58 692.62,623.69 C693.89,623.22 695.07,622.77 695.69,622.52 L700.46,620.58 C713.36,615.35 725.28,611.01 731.97,609.11 C741.02,606.54 755.29,604.98 772.02,604.75 C781.94,604.61 791.01,604.19 795.95,603.63 C805.08,602.59 817.7,598.05 832.37,590.52 C840.05,586.58 847.18,583.25 851.21,581.71 C862.35,577.46 875.93,575.58 891.88,576.08 C897.94,576.27 905.45,576.89 913.37,577.85 C921.99,578.89 929.9,579.6 934.23,579.71 C950.14,580.13 964.96,579.45 978.67,577.65 C981.83,577.24 985.14,576.65 988.59,575.88 C993.14,574.87 1001.37,572.57 1010.27,569.82 C1017.75,567.5 1024.68,565.5 1028.48,564.56 C1031.39,563.84 1034.1,563.45 1036.61,563.39 C1037.43,563.37 1037.93,563.16 1038.12,562.78 C1038.22,561.9 1038.31,562.2 1037.46,560.67 L1037.43,560.62 C1037.12,560.04 1037.21,560.12 1036.6,559.86 C1035.83,559.53 1034.71,559.28 1033.73,559.22 C1029.38,558.95 1024.65,559.34 1019.54,560.37 C1015.57,561.17 1008.53,563.24 1000.87,565.85 C991.88,568.91 983.7,571.18 978.99,571.9 C972.96,572.82 967.4,572.77 962.39,571.75 C961.11,571.48 960.82,571.35 959.93,570.61 C959.37,570.29 959.51,570.37 958.96,570.05 C958.38,569.68 958.56,568.58 959.29,567.94 L970.75,558.02 C982.69,547.69 993.91,538.51 1000.28,533.85 C1001.86,532.7 1003.99,531.27 1007.17,529.25 C1010.63,527.03 1012.17,526.08 1013.71,525.2 C1015.84,523.98 1016.33,523.58 1016.33,523.05 C1016.26,521.68 1015.28,520.89 1013.69,520.95 C1013.68,520.95 1013.68,520.95 1013.68,520.95 C1010.77,521.11 1008.16,522.13 1006.23,523.87 C1002.69,527.06 996.54,531.08 989.08,535.08 C981.37,539.21 975.05,543.33 971.85,546.33 C969.56,548.48 966.62,551.48 963.61,554.73 C959.59,559.07 955.79,562.87 953.53,564.78 C953.01,565.23 952.43,565.76 951.85,566.35 C949.35,568.83 947.23,570 945.42,569.87 L884.19,565.67 C878.94,565.32 873.3,565.64 867.29,566.65 C861.46,567.63 851.19,570.41 839.96,574.05 L832.54,576.46 C831.81,576.7 830.98,577.08 830.05,577.6 C827.13,579.25 824.83,579.38 823.66,577.96 C823.37,577.62 823.44,576.79 823.78,576.43 C824.69,575.58 826.39,574.03 828.26,572.38 C833.46,567.76 837.68,563.39 839.68,560.54 C841.18,558.41 840.21,555.55 837.9,555.31 C835.08,555.01 831.97,556.63 828.76,560.08 C824.87,564.26 820.15,568.2 814.63,571.88 C809.39,575.37 799.39,580.71 788.02,586.08 L784.91,587.55 C783.01,588.45 780.89,589.11 778.6,589.52 C776.42,589.91 774.01,590.09 771.36,590.05 C769.3,590.02 765.56,589.73 761.47,589.27 C755.44,588.6 750.07,588.38 747.04,588.66 C743.16,589.03 739.75,590.01 736.9,591.58 C736.04,592.06 735.09,592.64 734.11,593.3 C730.82,595.51 728.13,596.59 726.12,596.52 C725.32,596.47 725.14,596.33 725.34,595.87 L726.96,592.56 C729.82,586.7 732.66,581.52 734.49,578.82 C736.85,575.35 739.4,572.48 742.11,570.25 C743.47,569.14 745.2,568.35 747.19,567.94 C747.75,567.82 747.96,567.77 752.82,566.62 C753.4,566.49 754.01,566.48 754.63,566.6 C755.34,566.12 755.38,565.05 754.7,564.38 L754.7,564.38 C753.18,563.74 751.52,563.31 749.42,563.02 C748.26,562.86 746.99,562.81 745.16,562.85 C740.88,562.95 736.87,565.4 734.24,569.53 L734.24,569.53 C730.9,574.79 728,579.51 726.43,582.22 C717.38,597.9 698.6,610.24 670.38,619.06 C666.24,620.35 661.93,621.98 657.45,623.94 C652.39,626.16 643.38,630.75 633.69,636.03 C623.62,641.51 614.25,646.25 608.98,648.52 L606.58,649.56 L606.93,645.69 C607.65,637.72 608.95,631.25 610.68,627.11 C614.13,618.87 621.94,610.95 633.89,603.59 C639.27,600.28 646.38,596.28 653.97,592.29 C662.66,587.72 670.5,583.32 674.64,580.69 C678.8,578.05 682.91,574.84 686.95,571.08 C692.19,566.2 700.58,556.47 709.32,545.15 L712.15,541.48 C712.68,540.79 713.03,540.36 713.44,539.91 C715.07,538.12 718.3,535.2 722.04,532.15 C726.64,528.39 730.44,524.8 732.28,522.46 C734.63,519.47 736.19,516.36 736.9,513.25 C737.02,512.69 737,512.21 736.82,511.8 L736.14,510.24 C732.31,511.6 728.74,513.43 725.52,515.68 C719.46,519.91 714.16,523.87 711.34,526.28 C707.43,529.62 704.15,532.98 701.51,536.37 C700.35,537.87 699.11,539.81 697.88,542.09 C695.2,547.04 692.54,550.21 689.98,551.49 C689.3,551.79 689.2,551.68 689.09,550.58 L688.91,546.47 C688.65,540.52 687.46,531.35 685.63,521.16 C685.34,519.54 684.97,517.72 684.55,515.85 C682.69,507.39 682.38,500.77 683.66,496.58 C684.2,494.8 684.25,493.5 683.81,492.65 C683.66,492.36 683.57,492.08 683.57,491.87 C683.47,489.26 680.41,487.9 678.45,489.61 C677.74,490.22 677.14,491.06 676.76,491.96 C674.38,498.06 674.1,507.95 675.94,520.76 C677.33,530.48 677.63,538.73 676.77,543.59 C674.4,556.9 666.75,568.25 655.76,574.78 C650.21,578.08 641.91,581.98 632.51,585.73 C619.18,591.03 608.41,596.63 602.81,601.16 C599.8,603.61 596.61,606.7 593.27,610.42 C591.69,612.18 590.21,613.79 589.4,614.65 L587.25,616.9 C577.88,626.77 571.7,635.57 569.57,642.09 C569.47,642.39 569.31,642.58 569.07,642.68 C568.74,642.82 568.86,642.89 568.08,642.15 C568.08,642.15 568.08,642.15 568.08,642.15 L568.08,642.16 C564.43,638.9 561.94,633.56 560.66,626.2 C560.01,622.52 558.49,615.85 556.64,608.62 L556.64,608.62 C552.26,591.46 550.57,577.23 551.88,568.42 C552.13,566.71 552.7,564.99 553.57,563.3 C554.97,560.61 558.23,556.86 562.7,552.82 C566.13,549.72 568.93,546.78 570.26,544.89 C571.75,542.78 573.25,540.14 574.73,537.05 C577.04,532.22 579.4,528.41 581.28,526.49 C584.44,523.26 588.73,519.83 594,516.31 C596.34,514.75 598.48,513.28 599.62,512.46 C608.19,506.25 619.41,498.4 631.17,490.39 C642.58,482.61 653.07,475.34 658.67,471.32 C670.09,463.12 680.48,459.07 689.77,459.2 C694.86,459.27 700.66,459.55 706.68,460.01 C712.46,460.45 717.8,460.78 720.7,460.88 C729.27,461.16 741.41,459.97 755.07,457.5 C767,455.34 777.8,454 783.86,453.92 C793.35,453.8 803.62,454.38 814.62,455.67 C824.3,456.8 842.55,459.88 862.25,463.7 C873.39,465.86 882.99,467.2 890.07,467.57 C902.8,468.24 914.4,467.08 924.73,464.09 C926.42,463.6 928.22,463.06 930.03,462.48 C935.51,460.75 940.53,459.38 943.35,458.87 C946.99,458.21 950.35,458 953.43,458.23 C954.2,458.29 954.86,458.29 955.41,458.23 C957.47,458.01 959.22,457.21 960.4,455.93 C960.99,455.3 961.06,454.37 960.57,453.72 C959.76,452.65 959.46,452.43 958.71,452.38 C946.09,451.5 934.54,452.14 924.1,454.29 C921.83,454.75 919.33,455.3 916.79,455.89 C909.71,457.52 903.23,458.75 899.61,459.12 C894.96,459.61 890.7,459.58 886.82,459.03 C886.49,458.98 886.33,458.9 886.1,458.66 C885.92,458.47 885.98,458.16 886.22,458.05 C888.55,456.97 892.07,454.42 895.9,451.02 L898.25,448.94 C900.96,446.54 904.12,444.34 907.7,442.36 C912.23,439.85 917.38,437.19 923.07,434.39 C933.51,429.28 940.45,426.41 947.2,424.43 C952.58,422.85 957.91,422.1 967.43,421.56 C973.8,421.2 977.52,419.36 978.55,416.04 C978.66,415.71 978.71,415.53 978.76,415.4 C979.02,414.64 978.36,413.87 977.38,413.8 C969.41,413.24 962.52,413.54 956.9,414.7 C935.8,419.04 917.6,426.18 902.58,436.02 C900.28,437.53 896.3,440.57 892.05,444.07 C886.25,448.86 880.83,452.75 877.51,454.51 C875.77,455.44 873.16,455.21 869.62,453.83 C868.29,453.32 867.08,452.92 866.39,452.76 C859.8,451.28 851.44,449.78 842.57,448.5 C836.86,447.68 831.59,446.87 828.75,446.38 C826.18,445.93 821.46,444.92 816.37,443.73 L816.37,443.73 C810.95,442.46 805.94,441.41 803.19,440.95 C799.66,440.36 796.38,440.01 793.39,439.9 C792.32,439.86 792.04,439.83 791.97,439.73 C791.89,439.62 791.89,439.44 791.96,439.28 C792.56,437.85 794.05,435.74 796.1,433.43 L796.52,432.95 C802.95,425.67 809.12,420.18 814.8,416.69 C820.3,413.31 825.24,410.59 828.24,409.28 C832.54,407.41 836.66,406.25 840.57,405.82 C842.5,405.61 843.69,405.05 844.15,404.15 L844.39,403.62 C844.85,402.64 844.02,401.54 842.46,401.07 C838.4,399.84 832.56,400.86 824.93,404.15 L822.58,405.17 C820.63,406.01 818.67,406.99 816.7,408.12 C812.22,410.68 805,416.23 797.29,423.03 C790.9,428.67 784.88,433.49 781.32,435.83 C764.86,446.64 748.31,452.14 732.67,452 C727.98,451.96 721.77,451.68 715.25,451.2 C709.11,450.75 703.46,450.44 700.38,450.39 C696.43,450.31 692.78,450.42 689.49,450.71 C687.76,450.86 685.77,451.16 683.64,451.6 C679.82,452.38 676.49,452.74 674.54,452.6 C673.84,452.55 673.35,452.34 673.21,452.05 C673.15,451.91 673.22,451.8 673.39,451.76 C674.4,451.56 674.24,451.61 674.46,451.42 C674.91,450.99 674.92,450.56 674.48,450.32 C673.49,449.85 673.63,449.93 673.53,449.77 C673.37,449.49 673.37,449.41 673.52,449.17 C674.34,447.9 676.01,445.72 677.95,443.4 C679.32,441.75 680.55,440.21 681.18,439.34 L683.23,436.55 C690.54,426.58 701.86,407.4 713.35,385.55 C717.86,376.98 722.07,369.11 724.42,364.88 C728.88,356.86 733.37,351.23 737.7,348.26 C746.48,342.23 758.23,338.13 772.87,336 L787.98,333.79 C803.03,331.59 816.8,330.1 824.4,329.85 C834.19,329.52 843.11,330.16 851.14,331.77 C875.15,336.56 898.82,338.59 921.82,337.81 C933.36,337.42 950.62,337.4 968.96,337.76 L992.12,338.21 C995.04,338.27 998.08,338.17 1001.22,337.93 C1007,337.49 1017.45,335.91 1028.83,333.77 C1034.5,332.69 1039.77,331.75 1042.62,331.3 C1044.21,331.04 1045.59,330.87 1046.71,330.8 C1051.63,330.48 1056.1,331.01 1059.99,332.39 C1062.16,333.16 1064.46,331.46 1064.69,328.94 C1064.76,328.11 1064.59,327.58 1064.2,327.39 C1059.29,324.95 1053.49,323.53 1046.96,323.14 L1046.96,323.14 C1041.85,322.84 1032.84,323.52 1022.73,324.96 C1018.89,325.5 1015.35,325.97 1013.42,326.18 C997.62,327.95 983.71,328.77 973.07,328.56 L964.2,328.38 L974.92,325.44 C985.07,322.66 995.91,315.36 1007.41,303.57 C1012.2,298.66 1017.89,291.53 1023.66,283.2 C1028.49,276.22 1033.13,270.05 1035.93,266.87 C1038.72,263.71 1042.59,260.26 1047.35,256.71 C1047.89,256.31 1048.55,255.88 1049.28,255.46 C1050.84,254.55 1052.01,253.66 1052.57,252.94 C1054.06,251.05 1054.38,249.41 1053.45,248.46 C1052.41,247.41 1051.36,247.04 1050.43,247.38 C1045.3,249.26 1040.45,251.73 1035.98,254.73 C1029.78,258.89 1023.57,266.68 1017.33,278.1 C1014.55,283.18 1011.86,287.72 1010.2,290.09 C1001.66,302.34 989.71,311.58 975.96,316.54 C965.44,320.33 950.86,322.93 933.24,324.16 L923.32,324.84 C895.86,326.75 872.84,325.9 859.44,322.5 C858.62,322.35 858.74,322.39 858.43,322.19 C857.93,321.86 857.88,321.56 858.25,321.29 C872.7,310.95 885.13,300.49 895.46,289.99 C900.17,285.2 905.84,277.82 911.58,268.98 C916.86,260.85 921.99,253.86 925.29,250.31 C927.87,247.53 931.08,244.53 934.77,241.46 C941.1,236.19 946.04,231.2 948.33,227.76 C951.01,223.75 953.54,219.09 955.89,213.82 C957.71,209.73 960.64,202.05 963.58,193.58 C965.21,188.91 966.75,184.61 967.62,182.3 C970.2,175.46 972.6,169.84 974.42,166.35 C977.9,159.66 981.87,154.06 986.31,149.57 C986.52,149.36 986.94,149.12 987.49,148.9 C988.13,148.65 988.57,148.38 988.78,148.11 C990.38,146.1 990.2,146.49 990.05,145.36 C989.78,143.28 989.86,143.38 988.58,143.48 C983.46,144.13 978.51,147 974.5,151.66 C971.31,155.35 967.7,162.47 964.37,171.58 L963.78,173.21 C963.24,174.68 962.38,176.49 961.3,178.42 C959.6,181.48 958.49,184.15 958.21,185.89 C957.02,193.23 954.41,202.16 950.55,212.08 C950.1,213.22 949.88,213.53 949.39,213.74 L948.14,213.9 L948.58,211.31 C946.18,205.98 944.42,200.28 943,193.22 C941.39,185.21 941.72,171.67 943.91,155.57 L944.53,151.05 C946.01,140.18 945.89,133.8 944.09,127.94 C942.96,124.25 941.86,122.63 940.27,122.28 C939.15,122.04 939.49,122.06 937.94,122.16 L937.79,130.62 C937.68,137.48 937.46,143.98 937.12,150.69 C936.94,154.27 936.71,157.6 936.43,160.78 C935.69,169.22 935.68,184.56 936.41,201.46 L936.77,209.98 C937.23,220.68 932.37,230.26 922.77,237.6 C919.61,240.02 916.47,242.93 913.35,246.31 C910.35,249.58 905.33,255.89 900.06,263.01 L895.81,268.76 C893.5,271.9 890.8,275.01 887.74,278.12 C884.01,281.89 876.3,288.59 867.64,295.57 C850.17,309.65 830.38,317.74 810.54,318.9 L801.29,319.45 C786.35,320.32 772.78,321.63 765.4,322.91 C755.9,324.56 747.44,326.97 740.03,330.15 C738.21,330.93 736.17,332.02 733.98,333.37 C729.35,336.24 725.46,337.85 722.71,338.02 C722.47,338.04 722.29,338.1 722.04,338.25 C721.41,338.66 721.02,338.82 720.45,338.9 C719.51,339.01 719.39,338.89 719.54,338.06 C719.54,338.06 719.54,338.06 719.54,338.06 L719.54,338.06 C721.83,322.87 727.84,311.24 736.93,304.42 C740.45,301.78 744.44,299.27 748.89,296.91 C753.51,294.47 762.22,290.63 771.92,286.77 C787.88,280.42 800.96,273.74 807.77,268.47 C811.26,265.76 815.03,261.24 818.91,255.08 C822.89,248.77 826.76,244.04 829.78,241.81 L837.17,236.37 C850.47,226.56 854.15,223.74 857.76,220.63 C861.89,217.08 866,213.31 875.25,204.57 C879.93,200.14 881.81,198.36 883.65,196.57 C887.74,192.6 887.84,191.84 884.38,190.88 C876.41,188.68 876.87,188.8 876.36,188.77 C879.84,188.72 879.29,191.13 874.64,196.34 C872.06,199.22 870.83,200.57 869.59,201.85 C866.97,204.56 864.17,207.07 855.33,214.58 C844.93,223.41 841.17,226.49 837.28,229.35 C829.06,235.37 827.21,236.34 825.94,235.31 C821.92,232.02 820.44,224.72 821.89,215.4 C822.2,213.46 822.45,211.66 822.55,210.68 C822.83,207.9 823.24,204.91 823.75,201.8 C824.82,195.41 825.48,189.6 825.53,186.36 L825.56,183.99 L825.77,178.35 C825.91,174.69 825.97,171.32 825.94,169.5 C825.9,167.15 825.75,164.98 825.48,163.04 C825.45,162.77 825.4,162.53 825.34,162.33 C825.01,161.25 824.34,160.42 823.47,160.02 C823.4,159.99 823.34,159.95 823.21,159.85 C822.68,159.44 822.05,159.08 821.3,158.77 C820.23,159.93 819.46,161.07 818.94,162.26 C818.3,163.74 818.41,166.02 819.29,169.07 C819.65,170.35 819.93,171.52 820.02,172.18 C820.83,178.21 820.1,188.41 818,200.34 L818,200.34 C816.39,209.46 815.48,217.65 815.54,222.28 C815.73,236.62 813.12,246.15 807.63,251.12 C803.73,254.65 799.09,257.9 793.73,260.85 C788.61,263.67 778.91,267.83 767.96,271.9 C752.23,277.75 739.38,284 732.66,289.07 C723.94,295.65 715.76,305.43 708.12,318.38 L705.66,322.56 C705.27,322.42 705,322.3 704.65,322.1 C703.86,321.65 703.31,320.95 703.21,320.28 L700.17,299.84 C698.27,287.03 696.78,275.21 696.26,268.76 C695.32,257.17 695.24,247.53 696.04,241.21 C697.53,229.54 701.32,219.46 707.22,211.55 C710.29,207.43 714.98,202.15 720.44,196.68 C725.18,191.92 729.34,187.44 731.45,184.82 C734.15,181.45 736.31,178.15 737.92,174.91 C740.17,170.36 743.12,163.9 746.09,157 L751.7,143.95 C752.69,142.03 752.86,141.71 752.95,141.52 C754.16,138.91 756.01,133.99 757.85,128.54 C759.98,122.21 762.18,116.59 763.7,113.61 C764.33,112.38 765.02,111.13 765.79,109.86 C767.25,107.45 770.28,103.1 773.74,98.46 C775.68,95.86 776.16,93.71 775.11,92.31 L774.35,91.29 C774.16,91.51 774,91.68 773.82,91.89 L773.82,91.89 C773.38,92.41 772.61,93.38 771.78,94.45 C770.56,96.04 769.4,97.45 768.7,98.17 C764.64,102.35 760.31,109.62 756.18,119.2 L754.94,122.07 C749.86,133.84 744.31,145.87 738.34,158.03 C728.65,177.75 715.81,194.38 700.47,207.08 C700.11,207.38 699.75,207.48 699.55,207.33 C699.37,207.2 698.96,205.68 698.64,203.97 C698.16,201.44 698.25,201.84 698.04,201.21 L698.04,201.21 C695.5,195.04 694.17,187.64 694.06,179.07 C693.99,173.71 694.77,166.27 696.25,157.99 C697.19,152.8 697.92,148.03 698.18,145.4 C698.78,139.56 700.01,132.45 701.74,124.84 L703.3,118.02 C705.71,107.43 708.62,98.6 711.25,93.83 C712.23,92.06 712.67,90.64 712.54,89.62 C712.49,89.15 712.23,88.73 711.81,88.43 C711.11,87.92 710.09,88.04 709.33,88.72 C708.72,89.26 708.25,90.32 707.92,91.89 L707.84,92.28 C707.25,95.11 705.92,99.13 704.12,103.51 C702.28,107.97 700.91,112.04 700.43,114.4 L697.57,127.21 C695.41,136.9 693.6,145.83 692.82,150.73 L691.61,158.27 C688.73,176.22 688.58,190.56 691.17,199.36 C693.17,206.13 692.67,215.18 689.67,226.56 C681.43,257.79 682.72,290.68 693.37,320.99 C701.42,343.89 702.22,364.53 695.73,381.54 C690.56,395.09 682.57,411.38 672.48,428.96 C654.37,460.51 625.91,484.1 592.43,495.32 L590.02,496.13 L593.36,484.94 C594.55,480.94 596.39,475.78 598.54,470.38 C601.7,462.45 604.1,455.22 604.95,451.03 C608.89,431.76 607.06,410.03 599.56,387.11 C598.18,382.86 596.42,378.08 594.43,373.15 C590.67,363.84 587.81,355.35 586.78,350.44 C585.76,345.56 588.52,339.54 594.91,332.71 C597.02,330.44 598.85,328.31 599.75,327.04 C600.91,325.42 603.18,322.55 605.72,319.49 C613.63,309.96 618.01,301.88 618.68,295.63 C619.06,292.06 618.77,287.49 617.8,282.09 C617.25,279.01 616.84,276.2 616.72,274.64 C616.61,273.32 615.75,272.2 614.53,271.8 C613.26,271.38 611.89,271.85 611.19,272.94 C610.02,274.77 610.11,274.48 610.46,275.2 L610.46,275.2 C611.19,280.86 610.45,286.87 608.27,292.82 C604.26,303.8 594.19,317.6 579.05,332.86 C578.01,333.9 577.59,334.09 577.39,333.59 C577.39,333.59 577.39,333.59 577.39,333.59 L577.39,333.59 C576.37,330.88 574.07,326.2 571.28,321.13 C568.2,315.53 565.74,310.36 564.7,307.33 C561.78,298.82 559.5,286.98 558.09,273.12 C557.44,266.73 556.75,260.85 556.26,257.67 C553.22,237.73 552.11,220.62 553.21,210.43 C553.91,203.91 554.99,197.95 556.45,192.58 C559.11,182.77 563.09,173.96 568.25,166.42 C571.3,161.98 577.75,155.14 585.7,147.91 C592.45,141.78 598.17,135.96 600.97,132.37 C613.46,116.39 620.1,100.83 620.73,86.07 C621.01,79.62 622.38,74.07 624.8,69.52 C625.55,68.11 626.42,66.53 627.33,64.92 C631.97,56.71 634.7,49.71 635.12,44.98 C635.24,43.59 635.35,42.13 635.43,40.63 C635.73,35.06 636.36,30.2 637.13,27.51 C640.06,17.22 645.74,10.3 653.2,7.94 L653.87,7.73 C654.34,7.42 654.14,6.2 653.55,5.69 C651.99,4.38 649.41,4.57 645.97,6.27 L645.77,6.37 C641.52,8.47 637.81,12.12 635.02,16.95 C632.53,21.27 630.08,29.18 628.22,38.94 C626.96,45.5 625.52,51.33 624.38,54.47 C622.91,58.51 621.05,61.95 618.81,64.77 L616.57,67.59 L615.24,59.49 C614.01,52.02 611.47,44.54 607.68,37.21 C604.49,31.04 599.52,24.51 592.85,17.74 C591.45,16.32 589.84,14.14 588.22,11.48 C586.18,8.13 584.18,5.58 582.64,4.35 L580.64,2.76 C580.13,5.9 580.14,5.25 580.52,7.33 C581.28,11.56 584.6,16.97 590.28,23.25 L592.56,25.85 C607.18,42.57 614.11,61.9 612.02,80.14 C609.55,101.67 600.87,119.1 587.21,129.97 C576.89,138.18 568.05,145.71 563.29,150.36 C556.42,157.05 550.79,163.76 546.4,170.46 C545.84,171.31 545.75,171.45 545.69,171.53 L543.75,174.1 L540.45,167.83 C538.63,164.36 535.95,160.97 532.42,157.72 C517.79,144.18 508.07,128.44 504.19,111.94 C503.39,108.53 502.6,104.6 501.89,100.5 C500.91,94.85 499.87,89.7 499.15,86.92 C499,86.35 498.84,85.77 498.67,85.18 C497.44,80.96 494.51,73.57 490.88,65.56 C486.65,56.23 483.43,47.71 482.25,42.71 C480.93,37.17 480.66,30.12 481.41,21.59 C481.56,19.96 481.9,17.83 482.39,15.55 C483.37,10.99 483.63,7.27 483.14,4.97 C482.76,3.16 482,1.73 480.87,0.67 C480.6,0.43 480.27,0.32 479.79,0.33 C479.03,0.38 479.14,0.39 479.05,0.3 C478.65,-0.07 478.69,-0.06 478.28,0.13 C477.22,0.62 477.35,0.54 477.34,0.68 C477.27,2.01 477.24,2.71 477.25,3.2 C477.28,5.38 476.84,9.22 476.07,13.51 C475.26,17.97 474.82,21.94 474.89,24.21 C475.18,33.92 476.23,42.44 478.01,49.59 C479.98,57.52 482.95,64.55 486.84,70.55 C487.07,70.91 487.32,71.28 487.58,71.65 C489.25,74.03 490.06,75.97 489.98,77.46 C489.95,77.99 489.85,78.45 489.71,78.64 C489.18,79.37 488.19,79 487.38,77.76 L486.95,77.09 C479.59,65.77 469.52,57.06 457.91,51.97 C451.24,49.04 444.01,47.48 436.67,47.37 C436.41,47.37 436.24,47.4 435.38,47.62 C434.12,47.94 433.6,49.49 434.31,50.8 C434.82,51.75 435.9,52.45 437.45,52.84 C461.1,58.78 477.77,70.12 485.5,85.52 C488.79,92.08 491.95,101.44 494.61,112.54 C496.63,120.94 498.79,128.46 500.36,132.49 C501.35,135.03 502.58,137.61 504.05,140.22 C506.34,144.29 511.18,151.14 516.96,158.46 C522.55,165.55 527.28,172.2 529.54,176.12 C530.81,178.33 531.93,180.72 533.52,184.62 C535,188.27 536.19,192.38 537.16,197.27 C538.86,205.87 540.08,215.38 540.97,227.03 L542.57,248.13 C543.84,264.82 545.44,280.11 546.79,288.56 C548.53,299.45 551.14,309.17 554.59,317.72 C556.02,321.24 557.96,325.55 560.13,330.01 C563.46,336.87 566.18,343.2 567.35,346.83 C568.84,351.5 569.65,355.9 569.75,360 L569.84,363.41 L566.14,360.69 C565.63,360.25 565.39,360.06 565.09,359.87 C554.39,352.89 544.97,346.18 539.9,341.93 C533.52,336.58 528.26,331.09 524.12,325.47 C522.04,322.65 520.27,319.33 518.85,315.57 C517.3,311.51 515.54,304.02 514.12,295.46 C512.3,284.5 509.81,275.46 507.25,270.5 C505.91,267.91 504.24,265.35 502.25,262.82 C499.14,258.87 492.75,252.73 485.06,246.28 L480.45,242.42 C478.47,240.76 476.72,240.18 475.29,240.71 C474.4,241.04 474.53,241 474.36,241 C473.31,240.99 473.46,240.98 473.32,241.09 C472.99,241.35 472.99,241.35 473.22,244.28 C473.46,247.35 475.96,250.59 480.79,254.08 C482.51,255.32 484.01,256.52 484.78,257.26 C494.41,266.49 501.55,278.54 505.51,292.25 C506.43,295.47 507.24,299.54 507.85,304.07 C508.1,305.92 508.35,307.64 508.49,308.56 C508.65,309.6 508.62,309.43 509.03,311 C509.38,312.23 509.36,312.05 509.13,312.28 C508.92,312.51 508.54,312.37 508.22,311.96 C507.71,311.25 507.84,311.43 507.32,310.71 C507.24,310.62 506.74,310.2 506.15,309.73 C504.42,308.37 501.17,305.92 497.63,303.32 C489.65,297.45 482.76,291.8 479.28,288.26 C478.27,287.23 477.16,285.99 476.04,284.64 C471.95,279.66 468.3,276.98 465.03,276.54 C464.39,276.45 463.76,276.55 462.94,276.87 C462.21,277.17 462.41,277.04 461.5,277.84 L462.06,279.04 C462.56,280.1 462.88,280.71 463.22,281.22 C466.92,286.73 474.95,294.16 485.62,301.94 C492.58,307.02 498.58,311.9 501.62,314.96 C505.03,318.39 509.14,323.48 513.31,329.46 C518.61,337.05 523.75,343.13 527.36,346.05 L539.03,355.53 C546.39,361.5 553.08,367.1 556.63,370.25 C570.2,382.29 579.99,393.83 585.74,404.55 C587.44,407.72 588.88,410.93 590.08,414.17 C595.97,430.16 593.33,451.28 582.15,477.44 C580.29,481.77 578.34,486.85 576.46,492.21 C573.67,500.16 570.86,507.31 569.03,511.11 C566.67,515.99 564.07,520.21 561.24,523.76 C560.93,524.15 560.62,524.51 560.49,524.62 C560.08,524.99 559.18,525.01 559.04,524.65 C558.97,523.26 559.03,520.7 559.18,517.9 C559.3,515.65 559.37,513.57 559.35,512.44 C559.28,506.46 557.27,498.83 553.35,489.65 L551.82,486.07 C549.13,479.79 544.85,477.06 541,479.17 C539.89,479.64 540.01,479.51 539.29,481.13 C539.02,481.74 539.2,481.92 540.31,482.16 C542.29,482.52 543.85,484.56 544.93,488.22 C545.2,489.14 545.48,489.97 545.65,490.42 C550.2,501.86 552.3,511.48 551.86,518.84 C551.07,532.05 547.09,541.68 540.13,547.23 C537.75,549.13 536.03,552.79 534.98,558.19 C534.81,559.06 534.65,559.86 534.55,560.3 C533.29,566.07 532.6,572.29 532.48,578.92 C532.32,587.52 533.84,602.8 536.54,619.76 C538.19,630.15 539.49,639.72 539.97,644.96 L540.68,652.84 C540.88,655.08 540.83,659.11 540.54,663.59 C540.41,665.66 540.3,667.57 540.27,668.6 C540.19,671.33 540.2,671.25 539.8,671.35 C539.33,671.48 539.22,671.39 537.99,669.91 C537.05,668.79 535.19,666.89 533.07,664.88 C531,662.92 529.18,661.06 528.26,659.97 C527.53,659.11 526.8,658.21 526.05,657.26 L523.06,653.45 C522.36,652.87 522.48,653.01 522.17,652.48 L522.17,652.48 C516.56,644.15 504.51,632.14 489.04,619.47 C475.45,608.35 464.34,597.73 458.99,590.74 C447.63,575.94 437.79,557.45 429.49,535.33 C424,520.72 420.79,504.8 419.74,486.95 C418.91,472.85 418.9,458.55 419.73,444.16 C420.24,435.12 421.3,431.06 423.79,428.54 C427.54,424.73 434.05,421.96 443.43,420.2 L445.97,419.73 C448.28,419.29 450.76,418.89 453.34,418.52 C461.67,417.34 468.69,415.67 472.55,413.96 C477.14,411.92 479.55,409.17 479.58,405.97 C479.59,404.87 479.5,403.77 479.35,403.15 C479.09,402.04 478.66,401.38 478.31,401.56 C477.51,401.96 476.17,402.85 474.72,403.93 C472.57,405.55 470.65,406.64 469.34,407.01 C456.1,410.73 446.07,411.15 439.23,408.26 L446.1,399.65 C447.55,397.84 449.69,395.67 452.25,393.42 C458.44,387.99 461.56,383.21 461.7,378.98 C461.77,376.86 461.11,375.22 459.74,374.13 C458.94,373.5 458.1,373.07 457.5,372.99 C457.05,372.94 456.45,373.34 456.29,373.81 C456.29,373.81 456.29,373.81 456.29,373.81 C454.52,380.04 448.64,387.44 438.91,395.7 L435.16,398.88 C425.27,407.27 417.7,417.69 413.06,429.3 C411.89,432.25 410.99,435.46 410.38,438.91 C409.43,444.31 409.18,453.91 409.71,464.84 L409.88,468.33 C409.91,468.93 409.85,469.21 409.64,469.36 C409.5,469.47 409.34,469.5 409.18,469.44 C407.02,468.72 404.66,466.49 402.14,462.81 C401.13,461.33 400.16,460.03 399.57,459.36 C397.55,457.07 395.45,453.69 393.4,449.41 C392.81,448.18 392.26,447.05 391.95,446.45 C390.43,443.48 388.79,440.06 387.17,436.51 C380.34,421.55 373.25,411.01 366.63,405.99 C361.6,402.18 354.17,398.23 344.99,394.5 C338.09,391.69 332.01,388.85 328.81,386.93 C325.17,384.75 322.01,380.06 319.44,373.05 C318.96,371.73 318.51,370.53 318.25,369.87 C317.42,367.8 316.6,365.36 315.83,362.74 C314.16,357.03 312.25,352.41 310.55,349.96 C309.18,347.99 307.91,346.97 306.68,346.85 C304.11,346.74 303.42,350.06 305.23,353.77 C305.62,354.56 305.94,355.3 306.08,355.72 C306.75,357.68 307.47,359.92 308.17,362.22 C309.78,367.5 311.44,372.24 312.55,374.77 C313.02,375.86 313.53,377.12 314.01,378.44 C315.73,383.07 317.61,386.42 319.44,388.11 C320.66,389.18 320.81,389.4 320.61,389.81 C319.43,390.74 317.43,391 314.55,390.61 C313.14,390.42 311.9,390.35 311.2,390.41 C305.93,390.91 301.94,392.03 299.32,393.74 C292.13,398.44 287.7,408.24 286.41,422.32 C286.13,425.32 286.23,427.8 286.71,429.75 C286.95,430.74 287.72,432.2 288.89,433.85 L288.89,433.85 C289.02,434.04 289.15,434.39 289.24,434.84 C289.36,435.47 289.55,435.87 289.81,436.07 C290.25,436.41 290.86,436.24 290.91,435.77 C290.95,435.36 291,434.98 291.05,434.62 C291.52,431.32 292.92,425.46 294.77,419.06 L295.43,416.78 C297,411.33 299.57,406.9 303.04,403.63 C306.96,399.94 314.03,398.57 323.98,399.57 L325.63,399.73 C343.68,401.55 360.54,412.92 371.53,430.68 C375.8,437.58 381.02,448.42 386.05,460.81 C391.87,475.15 397.9,487.31 402.35,493.67 C403.88,495.85 404.75,497.84 404.95,499.64 C405.14,501.36 405.31,503.34 405.43,505.38 C405.69,509.59 406.12,513.35 406.58,515.41 C408.51,523.96 412.07,535.46 416.62,547.75 C418.92,553.98 420.98,559.75 422.03,562.9 L426.09,575.16 L414.82,568.33 C403.08,561.23 386.31,552.42 367.39,543.43 C363.89,541.77 360.11,540.04 356.24,538.33 C330.78,527.1 313.86,515.26 306.27,503.35 C294.2,484.39 285.25,467.37 280.4,454.13 C278.6,449.2 276.56,443.13 274.58,436.8 C271.71,427.6 268.84,419.25 267.01,414.79 C265.63,411.43 263.95,407.64 262.11,403.77 C257.64,394.35 254.36,385.82 253.24,380.72 C250.62,368.73 250.74,355.33 253.6,341.01 C254.86,334.66 256.04,325.32 256.86,315.16 C258.09,299.83 260.28,286.7 262.82,279.43 C264.66,274.16 267.19,268.24 270.29,261.94 C276.47,249.41 280.3,238.53 281.01,231.54 C281.71,224.62 282,218.72 281.82,215.12 C281.03,199.17 281.47,184.33 283.13,170.62 C284.18,161.97 285.91,155.18 288.11,151.08 L290.11,147.52 C295,138.78 297.3,131.72 296.88,126.65 C296.41,120.82 297.09,112.92 298.85,103.7 L299.47,100.46 C300.17,96.8 300.44,91.63 300.25,85.71 C300.15,82.76 300.11,80.04 300.15,78.56 C300.22,75.5 301.29,70.36 303.08,64.52 C303.64,62.67 304.15,60.96 304.4,60.02 C305.11,57.46 306.88,53.05 309.15,48.24 L309.15,48.24 C311.25,43.8 312.94,39.7 313.65,37.35 C315.02,32.77 315.68,26.89 315.61,19.81 C315.57,14.86 315.07,10.76 314.23,8.41 C313.87,7.41 313.38,6.88 312.81,6.88 L311.62,6.88 C311.09,6.88 310.76,7.21 310.67,7.79 C310.35,10.06 310.15,14.19 310.12,18.76 C310.08,25.84 309.44,31.8 308.35,35.18 C307.56,37.65 305.8,42.03 303.71,46.77 C302.2,50.21 300.87,53.4 300.21,55.15 C298.04,60.9 296.34,66.82 295.11,72.86 L294.38,76.44 L289.77,67.6 C287,62.31 281.44,55.74 273.68,48.62 L271.62,46.74 C262,37.9 253.31,30.95 247.56,27.47 C246.99,27.13 246.38,26.61 245.73,25.92 C243.54,23.59 241.76,22.55 239.91,22.53 C239.55,22.52 239.25,22.55 237.4,22.74 C237.52,24.44 237.98,25.94 238.77,27.18 C239.28,27.99 239.88,28.61 240.56,29.03 C240.98,29.3 241.36,29.63 241.71,30.04 C241.96,30.33 242.25,30.61 242.69,30.98 C243.52,31.67 244.29,32.52 245.01,33.54 C246.67,35.91 247.42,36.76 248.34,37.35 C248.76,37.61 249.17,37.89 249.57,38.18 L249.57,38.18 C251.08,39.28 253.94,41.23 257.06,43.31 C270.47,52.21 278.6,60.61 281.32,68.34 C286.09,81.93 287.81,97.49 286.42,114.52 C285.85,121.58 283.04,131.36 278.33,142.66 L277.17,145.44 C276.39,147.33 275.72,149.83 275.22,152.78 C274.81,155.22 274.33,157.4 273.94,158.58 C268.65,174.77 267.22,191.71 269.77,208.05 C270.8,214.67 270.4,221.42 268.61,227.86 C268.53,228.15 268.46,228.67 268.44,229.28 C268.38,230.87 267.9,231.84 267.08,232.08 C266.64,232.21 266.13,232.16 265.67,231.94 C264.91,231.58 264.23,230.66 263.6,229.15 C263.15,228.07 262.67,227.26 262.24,226.85 C260.17,224.91 258.06,221.59 256.03,217.07 C254.24,213.09 252.39,209.93 250.9,208.31 C247.34,204.45 244.13,199.79 241.3,194.36 C238.65,189.28 234.91,179.69 231.33,168.81 C226.85,155.16 221.98,143.68 218.11,137.61 C217.36,136.44 216.56,135.27 215.72,134.1 C212.17,129.18 204.89,121.19 196.23,112.72 L189.98,106.61 C183.52,100.29 175.3,95.46 165.78,92.38 C155.87,89.17 144.71,87.97 132.97,88.84 C125.67,89.38 116.59,90.49 107.03,92.02 C101.15,92.96 95.73,93.77 92.78,94.16 C92.53,94.19 92.25,94.22 91.95,94.24 C90.57,94.34 89.65,94.65 89.18,95.19 C88.38,96.1 88.82,97.49 89.89,97.44 C90.2,97.43 90.39,97.46 90.47,97.56 C90.63,98.13 90.59,97.99 90.74,98.56 C91.23,100.14 93.61,100.17 97.37,98.63 C102.06,96.72 107.36,96.08 118.48,96.09 C124.14,96.1 128.56,96.27 132.73,96.65 C136.61,97.01 140.48,97.39 145.06,97.87 C152.36,98.63 157.85,99.72 162.87,101.39 C169.86,103.72 176.55,107.67 182.57,113.03 C185.46,115.61 188.13,118.02 189.96,119.69 C198.43,127.49 208.09,139.94 218.69,156.74 C221.48,161.17 223.04,166.51 223.5,173.23 C223.85,178.26 224.56,182.49 225.45,184.85 C231.65,201.29 238.05,215.62 244.29,226.99 C251.28,239.74 253.25,249.47 250.26,256.39 C249.47,258.23 248.51,260.29 247.48,262.4 C244.52,268.42 242.47,273.8 241.86,277.1 C240.28,285.7 239.61,298.08 239.96,312.13 C240.35,327.95 239.51,341.59 237.66,349.3 L236.84,352.74 C234.6,349.95 234.93,350.35 234.55,349.99 C233.38,348.9 232.57,348.03 231.99,347.2 C212.15,319.26 193.84,291.84 177.08,264.97 C171.23,255.59 166.74,238.86 164.22,217.09 L163.54,211.15 C162.23,199.87 157.26,187.39 148.62,173.77 C143.93,166.36 136.99,157.77 128.32,148.65 L126.64,146.88 C126.27,146.69 125.97,147.11 125.82,148.03 C125.82,148.03 125.82,148.03 125.82,148.03 L125.82,148.03 L126.44,150.67 C127.03,153.2 127.82,155 128.76,155.97 C129.91,157.14 131.13,158.7 132.38,160.59 C133.46,162.23 134.5,163.67 135.14,164.41 C140.93,171.08 145.13,177.38 147.68,183.19 C149.56,187.47 151.27,193.14 152.67,199.77 C153.39,203.17 154.11,206.29 154.56,207.97 C155.93,213.08 157.42,219.42 158.81,226.06 C161.35,238.18 164.2,248.94 166.42,254.73 C166.52,254.99 166.77,255.39 167.12,255.82 C167.65,256.48 167.92,257.02 167.95,257.45 C167.99,258.17 167.44,258.74 166.84,258.6 C163.76,257.86 160.19,255.47 156.1,251.41 C153.77,249.09 151.57,247.18 150.19,246.28 C131.35,234.01 117.89,221.92 110.46,210.59 C107.87,206.64 104.99,201.26 102.19,195.17 C100.78,192.1 99.45,189.29 98.69,187.79 C96.33,183.11 94.72,176.61 93.87,168.28 C93.8,167.63 94.3,166.95 95.34,166.28 C96.01,165.84 96.46,165.42 96.64,165.06 C96.83,164.69 97.01,164.25 97.19,163.74 C97.39,163.15 97.6,162.63 97.75,162.35 C98.16,161.57 98.36,160.91 98.35,160.31 C98.32,158.71 96.49,157.82 93.67,158.05 C93.24,158.08 92.85,158.11 92.63,158.11 L90.09,160.6 C88.69,161.97 86.35,161.09 84.23,158.4 C83.8,157.85 83.39,157.36 83.15,157.11 C83.01,156.96 82.9,156.86 82.81,156.8 C81.73,156.07 80.24,156.79 79.82,158.23 C79.54,159.2 79.77,160.44 80.51,161.94 L80.51,161.94 C87.89,183.44 96.66,201.54 106.79,216.17 L108.6,218.79 L97.01,219.74 C87.63,220.51 78.55,219.16 70.46,215.78 C67.77,214.66 65.3,213.47 63.05,212.2 C53.78,206.99 46.24,200.37 40.81,192.67 C40.3,191.94 39.8,191.17 39.29,190.36 C38.02,188.3 36.42,187.51 35.36,188.41 C33.67,189.83 34.28,192.55 36.93,195.41 C37.2,195.7 37.44,195.97 37.58,196.12 C47.21,207.02 56.27,215.2 63.84,219.81 C68.12,222.42 73.2,224.27 78.95,225.3 C84.37,226.28 94.01,226.54 105,226 L109.08,225.8 C111.04,225.7 113.26,226.68 115.76,228.75 L118.39,231.56 C123.74,237.31 130.28,242.55 143.82,251.93 L149.16,255.25 C157.48,260.44 165.41,267.57 172.89,276.59 C178.71,283.61 187.82,297.22 197.17,312.85 L208.64,332.01 C215.99,344.3 223.21,354.86 227.93,360.26 C230.7,363.42 234.1,369.56 237.35,377.27 C238.78,380.67 240.17,383.76 241,385.41 C243.5,390.39 245.84,395.97 248.02,402.11 C249.96,407.62 252.79,417.02 255.62,427.44 L256.1,429.18 L253.63,427.87 C251.2,426.58 246.91,423.94 242.31,420.91 C238.34,418.29 234.64,415.96 232.56,414.8 C232.07,414.52 231.89,414.39 231.86,414.26 C231.82,414.09 231.96,413.97 232.22,413.92 C232.54,413.89 232.46,413.9 232.77,413.86 C232.83,413.74 232.54,413.48 232.23,413.36 C231.75,413.22 231.05,412.64 230.14,411.65 C229.63,411.09 229.12,410.75 228.47,410.52 C226.93,409.98 224.07,409.09 220.93,408.18 C215.5,406.61 210.72,404.93 208.17,403.69 C204.89,402.11 202.17,400.23 200.02,398.07 C198.17,396.21 196.2,393.65 194.19,390.48 C192.33,387.54 190.52,385.03 189.34,383.75 L188.6,382.94 C183.24,377.1 179.46,370.08 177.6,362.53 L175.85,355.4 C175.64,354.55 175.29,352.97 174.92,351.26 C173.86,346.28 172.58,342.05 171.45,339.77 L171.37,339.61 C170.49,337.82 169.57,336.76 168.59,336.42 C168.39,336.35 168.09,336.16 167.76,335.88 C166.91,335.17 166.06,335.09 165.81,335.7 C165.56,336.33 165.63,336.2 165.33,336.57 C165.33,336.57 165.33,336.57 165.33,336.57 L165.33,336.57 C164.78,337.25 164.93,338.34 165.75,339.76 C166.41,340.9 166.63,341.79 166.43,342.44 C166.26,342.97 166.26,342.88 166.44,343.09 C170.1,347.31 172.11,354.91 172.47,365.86 C172.58,369.29 172.77,372.43 172.97,374.14 C173.15,375.7 171.03,375.87 169.18,374.45 C168.88,374.22 168.6,374.02 168.44,373.91 L166.03,372.33 C161.57,369.42 157.42,366.92 155.04,365.71 C149.4,362.85 141.95,359.65 133.81,356.6 C126.42,353.83 119.72,351.09 116.16,349.4 C114.32,348.52 112.51,347.38 110.75,345.98 C107.98,343.79 103.87,339.26 99.58,333.67 C94.67,327.27 89.99,322.34 86.64,320.05 C84.61,318.66 82.12,317.26 79.22,315.88 C73.34,313.08 69.16,310.2 67.17,307.57 C65.42,305.27 65.06,302.42 66.24,300.21 C66.67,299.41 67.24,298.55 67.93,297.63 C70.05,294.82 70.94,292.55 70.62,290.77 C70.36,289.31 69.74,288.86 67.98,288.84 C64.75,288.78 62.41,291.8 61.57,297.1 L61.32,298.68 C61.02,300.6 60.67,302.32 60.39,303.25 C60.23,303.82 60.08,304.35 60,304.63 L55.69,301.02 C54.93,300.38 53.89,299.07 52.83,297.42 C51.02,294.59 49.29,292.98 47.62,292.56 C46.52,292.29 45.09,292.36 43.44,292.78 C42.24,293.09 41.18,293.26 40.56,293.26 C40.29,293.26 40.16,293.35 39.97,293.64 C39.74,294 39.91,294.47 40.39,294.81 C42.52,296.22 43.67,297.01 44.43,297.6 C46.41,299.12 49.77,302.17 53.33,305.66 C58.34,310.57 63.04,314.53 66.04,316.36 L70.99,319.38 C80.91,325.45 90.46,333.42 99.56,343.24 L99.82,343.51 C100.51,344.25 100.89,344.88 100.96,345.39 C101.08,346.27 100.47,347 99.73,346.87 C96.9,346.37 91.85,345.06 86.35,343.4 L84.28,342.78 C77.46,340.72 70.35,339.53 63.1,339.23 C49.75,338.68 36.2,341.17 23.43,346.5 C22.47,346.91 21.93,347.19 21.45,347.53 C20.86,347.95 20.17,348.28 19.13,348.63 C20.1,350.97 21.46,352.21 22.98,352.15 C23.86,352.11 24.29,352.1 24.7,352.1 C25.63,352.11 26.49,351.96 30.52,351.14 C37.01,349.81 43.97,349.02 52.83,348.6 C61.44,348.2 69.54,348.77 77.33,350.32 C93.97,353 105.86,355.81 116.77,359.63 C133.83,365.6 150.94,375.25 176.12,393.12 L176.12,393.12 C186.56,400.52 185.37,399.72 185.71,399.61 C186.05,399.47 185.97,399.5 186.31,399.36 C186.66,399.35 186.81,399.69 186.68,400.15 C186.51,400.61 184.83,402.11 184.34,402.25 C183.31,402.47 182.13,402.74 181.17,402.98 C177.31,403.91 170.74,406.44 163.54,409.77 C150.56,415.77 140.15,418.4 132.96,417.5 L129.18,417.02 C123.44,416.3 117.35,416.87 111.16,418.7 C107.14,419.89 100.92,423.22 94,427.88 C83.53,434.93 74.93,438.33 68.07,438.15 C62.32,437.99 55.01,434.33 46.25,427.2 C39.33,421.56 33.29,418.13 28.06,416.84 C26.35,416.42 23.28,416.14 19.77,416.09 C16.88,416.05 14.28,415.88 12.85,415.63 C12.38,415.55 11.98,415.56 11.65,415.67 C10.53,416.03 10.13,417.34 10.95,417.96 C11.07,418.06 11.18,418.11 11.34,418.14 C12.76,418.37 13.52,418.54 14.05,418.72 C18.64,420.32 23.51,421.66 28.81,422.78 C31.02,423.7 33.11,424.83 35.06,426.14 C36.63,427.2 39.4,429.33 42.34,431.74 C46.05,434.77 49.52,437.35 51.57,438.58 C60.12,443.72 69.11,445.27 77.08,442.95 C80.26,442.24 80.28,442.24 80.63,442.48 C80.91,442.67 80.9,442.99 80.61,443.21 C80.01,443.62 79.99,443.63 79.83,443.89 C79.5,444.42 79.01,445.12 78.54,445.72 C70.52,456.02 63.6,465.6 59.94,471.51 C55.62,478.47 52.25,485.19 49.81,491.68 C49.64,492.11 49.35,492.93 49.05,493.81 C47.41,498.57 45.5,501.63 43.31,502.98 C43.23,503.03 43.2,503.06 43.11,503.22 C42.59,504.22 43.35,505.32 44.61,505.4 C46.26,505.51 50.01,503.49 50.45,502.25 C50.45,502.25 50.45,502.25 50.45,502.25 L50.45,502.25 C51.12,500.1 52.8,496.48 54.98,492.53 C56.07,490.57 57.04,488.73 57.53,487.72 C58,486.76 58.57,485.72 59.22,484.64 C60.01,483.34 60.69,482.12 61.03,481.44 C62.76,477.96 65.02,474.12 68.16,469.36 C76.92,456.04 84.05,448.52 91.99,444.21 C97.43,441.25 104.41,436.12 111.89,429.6 C115.81,426.19 121.17,424.47 126.77,424.83 C128.08,424.92 129.57,425.05 131.1,425.24 C134.62,425.65 137.75,425.81 139.52,425.67 C142.8,425.4 142.5,425.46 142.64,425.01 C142.98,423.92 143.04,423.8 143.38,423.49 C143.68,423.23 143.62,423.24 146.71,422.69 L146.71,422.69 C150.31,422.04 156.83,420.48 163.89,418.59 C179.72,414.33 192.91,412.57 201.1,413.62 C217.95,415.78 235.12,425.41 251.42,441.84 C255.36,445.81 259.08,450.42 262.58,455.64 C266.91,462.12 273.37,474.5 279.81,488.66 C282.48,494.53 285,499.94 286.42,502.83 C287.39,504.82 288.36,506.98 288.99,508.55 C292.68,517.76 292.15,516.61 294.69,520.92 L295.97,523.59 L289.56,523.21 C272.43,522.19 257.29,522.35 248.79,523.66 C237.92,525.33 228.48,528.74 220.77,533.79 C217.34,536.03 213.27,539.02 209.08,542.38 C196.53,552.45 186.06,557.66 177.87,557.92 C176.42,557.97 174.83,557.97 173.13,557.94 L173.13,557.94 C170.93,557.89 166.91,557.61 162.54,557.2 C148.76,555.91 138.59,556.99 132.43,560.39 C128.36,562.65 123.89,565.92 119.05,570.2 L119.05,570.21 C116.09,572.83 113.31,575.17 111.73,576.37 C97.34,587.31 78.78,590.34 62.39,584.42 C58.2,582.9 52.98,580.61 47.48,577.85 C36.07,572.14 26.43,568.92 20,568.68 C11.56,568.37 8.62,568.54 5.92,569.47 C4.18,570.08 2.42,570.86 -0,572.1 C0.89,573.26 2.28,574.06 4.08,574.42 C5.1,574.63 6.2,574.63 7.49,574.42 C9.87,574.03 12.4,574.21 17.18,575.14 C19.33,575.55 21.53,575.92 23.78,576.23 C25.88,576.53 28.08,577.03 30.38,577.75 C32.93,578.53 37.42,580.33 42.27,582.5 C46.57,584.43 50.56,586.06 52.79,586.81 C63.62,590.48 77.63,592.86 94.17,593.86 C94.52,593.88 94.71,594.05 94.83,594.45 C95.01,595.14 95.02,595.58 94.84,595.88 C94.56,596.34 93.92,596.84 92.96,597.32 C92.04,597.79 91.41,598.27 91.12,598.71 C89.2,601.69 85.38,604.96 79.88,608.34 C75.95,610.76 72.73,613.14 71.12,614.8 C70.66,615.27 70.22,615.68 69.48,616.29 C65.39,619.69 63.89,623.25 65.4,625.95 L67.43,629.57 C67.87,630.17 67.92,630.27 67.87,630.64 L68.38,633.35 L71.57,634.65 L73.86,640.76 C74.15,641.67 74.09,641.53 74.31,641.73 C74.65,642.03 76.12,642.2 76.51,641.98 C76.88,641.77 76.8,642.06 77.07,639.96 C77.34,637.82 76.6,634.69 74.9,630.8 C74.11,628.98 73.47,627.3 73.19,626.34 C72.31,623.22 72.89,620.88 74.78,620.01 C75,619.91 75.36,619.77 77.53,618.98 C77.53,619.1 77.53,619.1 77.53,619.22 L77.87,620.52 C77.87,620.52 77.87,620.52 77.87,620.52 L77.87,620.52 C78.46,621.57 79.35,622.49 81.13,623.86 L81.07,631.67 C81.93,631.91 82.46,631.84 82.61,631.47 C82.87,630.84 83.4,629.69 84.01,628.46 C86.38,623.66 87.07,620.01 86.11,617.43 C85.93,616.95 85.66,616.4 85.29,615.81 C84.06,613.83 83.93,612.21 84.94,611.41 C87.91,609.05 91.27,606.71 95,604.37 C99.31,601.67 105.17,596.83 111.37,590.85 C115.45,586.92 119.3,583.44 121.52,581.67 C122.97,580.51 124.57,579.08 126.22,577.48 C129.34,574.43 132.25,572.06 134.17,571 C135.6,570.21 137.24,569.65 139.02,569.35 C141.86,568.86 146.57,569.19 152.2,570.28 C154.52,570.73 156.67,571.1 157.84,571.24 C160.45,571.57 163.42,572.03 166.47,572.57 C175.66,574.21 183.46,574.74 188.09,574.04 C192.4,573.39 196.81,571.89 201.2,569.57 C206.24,566.9 214.03,560.89 222.4,553.19 C226.16,549.73 229.68,546.61 231.64,544.99 C234.75,542.43 239.75,540.72 246.67,539.86 L253.6,538.99 C269.57,537 284.03,535.93 292.08,536.13 C302.43,536.39 311.72,537.94 319.91,540.77 C332.76,545.2 350.67,553.73 370.18,564.69 C370.46,564.85 370.61,564.98 370.7,565.15 C370.93,565.63 370.62,566.14 370.07,566.19 C370.07,566.19 370.07,566.19 370.07,566.19 L370.07,566.19 C367.9,566.39 365.03,567.85 361.63,570.48 C360.41,571.42 359.27,572.26 358.63,572.68 C347.77,579.69 337.56,583.19 328.21,583.09 C322.66,583.03 314.98,582.03 306.43,580.25 L300.06,578.93 C298.24,578.56 296.17,578.09 294.05,577.57 C286.77,575.79 280.74,575.14 277.02,575.73 C274.74,576.09 271.72,576.76 268.51,577.62 C265.75,578.36 263.2,578.98 261.8,579.25 C261.48,579.3 260.9,579.37 260.26,579.42 C258.7,579.54 257.28,580.09 256.49,580.88 C255.7,581.68 255.64,582.61 256.33,583.36 C256.6,583.66 256.9,583.81 259.33,584.83 C260.76,585.44 261.88,585.86 262.95,586.21 C265.1,586.9 267.54,586.79 270.9,585.84 C275.77,584.47 279.93,583.78 282.47,583.93 C284.4,584.04 286.89,584.48 289.66,585.18 L290.11,585.3 C312.65,591.07 331.07,592.08 345.22,588.32 C351.02,586.78 358.03,583.57 365.95,578.81 C369.71,576.55 373.22,574.55 375.17,573.55 C377.51,572.34 377.96,572.13 378.29,572.03 C380.09,571.5 382.65,572.02 385.97,573.59 C387.46,574.3 388.82,574.85 389.62,575.06 C397.66,577.27 405.95,580.99 414.44,586.22 C421.04,590.29 432.23,598.72 444.16,608.62 L462.08,623.49 C476.34,635.33 489.12,646.53 495.76,653.01 C498.97,656.14 502.23,661.04 505.43,667.55 C508.08,672.94 510.76,677.43 512.7,679.74 L514.77,681.53 L512.73,681.87 L512.74,681.87 C511.07,682.14 509.47,682.35 507.94,682.49 L507.94,682.49 C502.56,682.98 493.58,681.9 483.1,679.51 C473.34,677.27 464.83,676.14 459.81,676.41 C458.24,676.49 456.8,676.52 456.01,676.49 C452.51,676.33 448.83,675.54 445.06,674.12 C441.06,672.62 434.49,668.99 427.34,664.34 L425.83,663.35 C408.87,652.31 393.58,645.18 380.44,642.19 C379.59,641.99 378.13,641.46 376.53,640.76 C373.24,639.33 370.7,638.84 368.94,639.31 C368.1,639.53 367.63,640.44 367.88,641.35 C368.09,642.14 368.79,642.75 369.7,642.96 C372.06,643.51 375.2,645.46 378.79,648.63 C380.43,650.07 381.99,651.29 383.42,652.22 C384.94,653.21 387.56,653.72 391.15,653.72 C393.67,653.71 395.79,653.93 396.99,654.32 C399.5,655.14 402.31,656.69 405.43,658.99 C406.98,660.13 408.42,661.14 409.23,661.65 C412.32,663.57 416.01,666.9 419.96,671.3 C423.56,675.31 426.97,678.54 429.2,680.06 L431.83,681.86 C432.52,682.33 432.44,683.38 431.68,683.99 C431.23,684.34 430.43,684.55 429.31,684.6 C428.67,684.63 428.1,684.71 427.79,684.8 C426.53,685.17 425.1,685.63 423.64,686.14 C420.91,687.08 418.4,687.77 416.2,688.17 L404.69,690.25 C393.13,692.35 382.59,694.55 376.91,696.07 C372.71,697.19 368.24,697.38 363.82,696.61 C356.79,695.4 350.07,689.75 344.17,680.09 C340.7,674.4 337.08,665.74 333.83,655.35 C332.55,651.25 331.31,647.48 330.59,645.46 C328.77,640.39 324.55,635 317.88,629.26 C315.48,627.19 310.81,624.64 304.99,622.2 L304.99,622.2 C296.29,618.57 290.62,614.65 288.13,610.55 C287.64,609.76 287.11,608.84 286.58,607.88 C285.23,605.44 283.89,603.35 283,602.27 L282.58,601.77 C281.88,600.93 280.74,600.79 280.11,601.47 C279.86,601.74 279.73,602.09 279.7,602.59 L279.7,602.59 C279.73,603.12 279.7,604.08 279.62,605.13 C279.43,607.58 279.67,609.36 280.33,610.43 C285.34,618.51 290.75,623.98 296.52,626.83 C298.15,627.63 300.05,628.48 302.06,629.3 C307.5,631.53 311.76,633.89 313.95,635.88 C316.41,638.11 319.27,641.81 322.19,646.51 C326.05,652.74 329.17,662.01 331.42,673.93 C331.51,674.42 331.5,674.82 331.4,674.95 C331.24,675.17 330.95,674.99 330.59,674.43 C329.01,671.98 326.35,669.26 322.75,666.44 L320.51,664.68 C312.26,658.21 305.2,654.39 299.96,653.57 C298.32,653.31 295.46,652.51 292.32,651.42 L292.32,651.42 C286.77,649.5 282.3,648.74 279.37,649.23 C278.34,649.4 277.16,649.66 275.92,650 C274.44,650.39 273.08,650.67 271.89,650.83 C269.93,651.09 266.59,650.86 262.71,650.2 C257.62,649.33 253.62,649.3 251.14,650.1 C250.47,650.31 249.97,650.64 249.7,651.04 C249.33,651.65 249.45,652.06 250.04,652.15 C250.94,652.28 251.09,652.3 251.19,652.32 C251.62,652.4 252.41,652.49 253.28,652.56 C256.66,652.86 258.74,653.8 259.54,655.38 C260.04,656.53 260.02,656.5 260.35,656.51 C261,656.53 261.87,656.66 262.92,656.88 C270.77,658.55 279.34,659.38 288.62,659.36 C289.2,659.36 289.71,659.35 290.12,659.34 C295.4,659.12 301.8,662.02 309.44,668.09 C311.71,669.9 313.84,671.5 315.04,672.32 C324.48,678.7 332.11,690.64 337.95,708.12 C338.08,708.51 338.42,709.11 338.88,709.77 C340.09,711.54 340.24,713.04 339.28,713.75 C337.65,714.96 334.84,717.35 331.84,720.08 C328.47,723.14 325.28,725.68 322.36,727.61 L322.36,727.61 C315.05,732.45 305.82,735.01 295.45,735.07 C286.68,735.12 273.8,732.61 258.84,727.96 C256.66,727.27 254.38,726.52 252.03,725.7 C248.05,724.32 240.8,721.5 232.99,718.29 C220.83,713.3 209.62,709.26 203.26,707.57 C195.08,705.4 187.44,704.33 180.37,704.35 C177.49,704.35 174.42,704.45 171.24,704.63 C168,704.82 165.03,704.96 163.41,705.01 C162.22,705.04 160.86,705.04 159.45,705 C153.02,704.82 148.51,705.76 145.94,707.8 C142.64,710.42 137.96,711.07 133.36,709.55 C131.73,709.01 130.05,708.33 128.34,707.53 C125.68,706.28 121.07,703.59 116.12,700.41 C110.98,697.11 106.19,694.34 103.4,693.06 C99.82,691.43 96.39,690.37 93.13,689.89 C88.02,689.15 81.93,688.62 75.38,688.33 L70.08,688.11 C67.22,687.98 62.11,687.23 56.5,686.1 C50.04,684.81 44.22,684.02 40.92,683.99 C40.11,683.98 39.69,684.65 39.95,685.55 C40.3,686.56 41.25,687.32 42.95,687.94 C44.06,688.34 46.05,689.18 48.2,690.15 C51.95,691.84 55.35,693.07 57.37,693.49 C62.34,694.51 67.05,695.07 71.49,695.19 C72.7,695.22 74.95,695.22 77.37,695.18 C85.79,695.07 92.45,695.92 96.33,697.62 C104.41,701.17 113.34,706.34 122.88,713.01 C123.53,713.46 124.21,713.99 124.91,714.59 C126.87,716.24 128.63,717.41 129.85,717.84 C131.79,718.53 131.51,718.41 131.79,718.72 C132.39,719.44 132.42,720.21 131.85,720.42 C131.29,720.61 130.99,720.75 130.47,721.02 C123.87,724.48 117.79,726.49 112.25,727.04 C108.21,727.44 102.95,727.49 97.15,727.17 C86.6,726.6 78.19,727.36 72.87,729.36 C71.63,729.83 70.33,730.37 68.98,730.99 C65.4,732.61 62.18,733.75 59.78,734.24 C58.94,734.41 57.5,734.41 55.81,734.23 C53.46,733.99 51.68,734.12 50.59,734.63 C49.87,734.97 49.4,735.16 49,735.27 C48.75,735.34 48.33,735.35 47.81,735.29 C46.72,735.16 46.01,735.42 45.84,735.99 C45.88,736.21 46.07,736.58 46.33,736.95 C47.3,738.33 48.37,739.43 49.45,740.15 C51.18,741.31 53.97,741.4 57.88,740.41 C67.27,738.06 75.9,736.8 83.73,736.65 L90.44,736.52 C99.99,736.33 108.7,735.82 113.43,735.16 L115.19,734.92 C126.16,733.41 135.07,729.78 141.51,724.19 C145.47,720.76 150.66,718.35 156.78,717.11 L156.79,717.11 C161.59,716.14 170.06,715.88 179.83,716.42 L181.19,716.49 C198.99,717.47 214.7,721.32 227.99,727.97 C230.4,729.17 232.2,730.38 233.21,731.46 C233.55,731.82 233.8,732.4 234.02,733.33 L232.1,734.54 C228.32,736.93 224.52,739.55 220.68,742.43 C212.92,748.26 203.4,751.13 193.83,750.52 C181.86,749.76 170.26,746.41 159.85,740.72 C159.26,740.39 158.6,740.01 157.92,739.6 C154.53,737.56 151.79,736.62 149.78,736.81 C148.96,736.88 148.09,736.96 146.75,737.07 C145.09,737.22 144.47,738.58 145.64,739.52 C146.51,740.23 147.5,740.85 148.62,741.4 C151.2,742.65 152.11,743.29 152.61,744.19 C153.28,745.38 153.32,745.52 153.12,746.02 C152.63,747.21 154.14,748.01 156.11,747.63 C157.14,747.43 157.89,747.45 158.37,747.68 C168.96,752.85 178.6,756.74 184.33,758.16 L184.33,758.16 C191.66,759.99 198.54,760.34 204.77,759.22 C211.82,757.94 220.8,754.28 231.14,748.46 L231.79,748.09 C232.45,747.71 233.19,747.19 233.97,746.54 C236.09,744.78 237.82,744.05 239.21,744.33 C241.76,744.9 245.46,744.08 250.22,741.89 C253.57,740.35 258.85,742.12 263.86,746.47 C266.36,748.65 269.57,750.11 275.78,751.9 C283.04,754 290.71,754.71 298.56,754.01 C304.78,753.46 310.22,752.21 315.08,750.22 C320.28,748.09 325.45,744.88 332.7,739.28 L339.66,733.9 C347.18,728.09 353.98,723.41 358.23,721.14 C361.3,719.5 364.32,718.15 367.3,717.1 C371.77,715.51 376.82,714.25 382.42,713.31 C386.77,712.57 394.79,711.69 403.58,710.99 C413.1,710.22 421.76,709.2 426.45,708.29 L432.67,707.09 L432.67,707.09 z"/>
 </g>
</svg>

