<?xml version="1.0" encoding="UTF-8" standalone="no"?>
<!-- Creator: FutureCorp VMX -->

<svg
   xml:space="preserve"
   shape-rendering="geometricPrecision"
   text-rendering="geometricPrecision"
   image-rendering="optimizeQuality"
   fill-rule="evenodd"
   clip-rule="evenodd"
   version="1.1"
   id="svg6"
   sodipodi:docname="waardenboom.svg"
   inkscape:version="1.2.2 (732a01da63, 2022-12-09)"
   width="1000"
   height="1000"
   xmlns:inkscape="http://www.inkscape.org/namespaces/inkscape"
   xmlns:sodipodi="http://sodipodi.sourceforge.net/DTD/sodipodi-0.dtd"
   xmlns="http://www.w3.org/2000/svg"
   xmlns:svg="http://www.w3.org/2000/svg"><defs
   id="defs10" /><sodipodi:namedview
   id="namedview8"
   pagecolor="#ffffff"
   bordercolor="#000000"
   borderopacity="0.25"
   inkscape:showpageshadow="2"
   inkscape:pageopacity="0.0"
   inkscape:pagecheckerboard="0"
   inkscape:deskcolor="#d1d1d1"
   showgrid="false"
   inkscape:zoom="0.50416667"
   inkscape:cx="114.04959"
   inkscape:cy="480"
   inkscape:window-width="1920"
   inkscape:window-height="1009"
   inkscape:window-x="-8"
   inkscape:window-y="-8"
   inkscape:window-maximized="1"
   inkscape:current-layer="svg6" />
 <g
   id="Layer_1">
  <metadata
   id="FutureCorpID_Layer" />

  <path
   fill="#000000"
   d="m 406.37533,697.60305 c 11.03592,-2.24941 21.24532,-3.81807 28.0641,-4.31137 2.34807,-0.17758 4.79945,-0.16771 7.35415,0.0197 1.17403,0.0888 2.36685,0.21704 3.59724,0.3749 3.00553,0.39463 8.45304,1.47001 14.37017,2.84136 l 3.70056,0.84846 c 3.86022,0.89779 7.84254,2.31847 11.90939,4.2719 5.04365,2.40727 12.47294,7.11327 20.55029,13.01303 4.57404,3.33466 7.06299,10.6551 7.36354,21.66537 0.0564,1.9041 0.14088,3.73915 0.26298,5.34728 0.2442,3.35438 0.38509,9.53039 0.3663,16.25889 -0.009,4.12392 0.0564,8.13931 0.18785,11.67128 l 0.479,9.0371 c 0.53536,10.07301 0.6105,19.18904 0.20663,24.22061 -0.26298,3.18667 -0.70442,6.81729 -1.28674,10.61564 -0.9674,6.21547 -1.55911,11.84886 -1.58729,14.99606 -0.047,6.93568 -0.43205,12.87491 -1.0989,16.78178 -0.27237,1.56867 -0.64806,3.34452 -1.09889,5.18943 -1.26796,5.14996 -1.75636,9.412 -1.38067,12.05604 0.23481,1.6476 0.64807,3.54184 1.21161,5.59393 0.54475,1.95343 0.97679,3.74901 1.15525,4.74546 1.25856,7.1034 2.24475,16.76205 2.81768,27.5454 0.75138,13.92069 -0.1221,39.10816 -2.31989,66.88047 l -0.1315,1.66733 c -0.0376,0.36503 -0.0376,1.04577 0,1.79558 0.14089,3.38398 -1.24917,5.61366 -3.09944,4.96251 -0.77017,-0.26638 -1.5873,-1.06551 -2.12266,-2.09156 -0.51657,-0.95698 -1.01436,-1.60813 -1.46519,-1.9041 -1.27735,-0.81886 -0.72321,-0.62155 -3.83205,-1.40095 -0.1221,0.85833 -0.57293,2.26914 -1.24917,3.83781 -0.77956,1.80545 -1.23978,3.36425 -1.30552,4.3607 l -0.11271,1.83504 c -0.26299,1.38122 -0.19724,1.03591 -0.46022,2.41713 v 0 c -0.0376,0.52289 -0.53536,0.94712 -1.44641,1.2135 -0.88288,0.25651 -1.37127,0.65114 -1.43702,1.16417 v 0.01 c 0.21602,2.81176 -2.60166,4.83426 -7.10056,5.06117 -11.10166,0.58209 -19.68619,2.81176 -25.68785,6.67917 -0.25359,0.15785 -0.70442,0.28611 -1.28674,0.35517 -1.32431,0.16772 -2.08509,0.84846 -1.8221,1.618 0.10331,0.27624 0.33812,0.62154 0.78895,1.15426 h 18.47459 c 1.2116,0 3.02431,-0.59191 5.17514,-1.69688 1.91602,-0.98659 3.57846,-1.57854 4.63978,-1.6772 1.18343,-0.10852 2.57348,-0.10852 4.10442,-0.01 2.87404,0.17758 5.21271,0.01 6.59338,-0.47356 0.29116,-0.10853 0.61989,-0.26638 0.94862,-0.45383 0.80773,-0.47356 1.47458,0.62155 1.27735,2.10142 -0.17846,1.31216 0.19723,2.20995 0.92044,2.20995 h 4.32983 c 0.28177,0 0.70442,0 0.83592,0 h 11.38343 c 1.85027,0 4.80884,-0.75967 8.26519,-2.12116 7.08178,-2.78216 12.20056,-2.53551 14.80222,0.73008 1.79392,2.24948 4.93094,1.69698 8.06796,-1.42068 2.66741,-2.65391 7.44807,-3.40372 14.4547,-2.26914 3.06188,0.49329 5.78564,0.73007 7.33537,0.62154 0.92044,-0.0197 1.11768,0.29598 0.9674,1.54894 -0.047,0.41436 0.009,0.81886 0.16906,1.14443 0.77017,1.57854 2.921,1.55881 5.47569,-0.0493 1.01437,-0.64128 1.91603,-1.03592 2.69559,-1.19377 0.42265,-0.0888 1.19281,-0.27624 2.01933,-0.51302 1.54973,-0.4341 2.88343,-0.64128 4.00111,-0.63142 0.77017,0.01 2.10387,0.21705 3.59724,0.55249 4.30166,0.96685 7.22266,0.32557 8.3873,-1.82518 0.047,-0.0789 0.0845,-0.12825 0.1221,-0.17758 2.71436,-2.97948 7.7768,-4.0154 15.29061,-3.1472 3.97293,0.46369 7.35415,0.48342 9.32652,0.0789 4.48012,-0.94712 7.64531,0.33544 7.70167,3.11761 0.009,0.12825 0.0282,0.20718 0.0657,0.26637 0.99558,1.47988 3.10884,0.809 4.94973,-1.54893 0.32873,-0.42423 0.63867,-0.79913 0.81713,-0.99645 1.98176,-2.17048 1.19281,-5.85044 -1.67183,-7.76441 -1.66243,-1.11484 -4.50829,-1.66733 -8.40608,-1.618 l -6.72486,0.0691 c -5.26907,0.0691 -10.13426,0.20719 -12.77349,0.37491 -0.3663,0.0197 -0.45083,0 -0.65746,-0.15786 0,0 0,0 0,0 v 0 c -3.53149,-3.00908 -3.92597,-8.37609 -0.8453,-11.41476 0.30994,-0.29598 0.12209,-0.82873 -0.46023,-1.32203 0,0 0,0 0,0 v 0 c -2.76132,-2.18034 -6.24586,-2.77229 -9.24199,-1.57853 -2.07569,0.81887 -4.42376,-0.0197 -5.66354,-2.02249 -4.55525,-7.36978 -7.5326,-16.34769 -8.80055,-26.49963 -0.91105,-7.36977 -1.30553,-17.21587 -1.10829,-28.05842 l 0.10331,-5.66299 c 0.0188,-0.78926 0.13149,-2.24941 0.30056,-3.8378 0.36629,-3.53197 0.28176,-6.3536 -0.26299,-8.05052 -1.91602,-6.02803 -3.28729,-16.73245 -3.7663,-29.38045 l -0.2442,-6.58051 c -0.17845,-4.76519 -0.0845,-10.27033 0.29116,-16.22929 0.38509,-6.16614 0.56354,-11.81926 0.46962,-14.90727 -0.28177,-8.84965 -1.3431,-18.17286 -3.18398,-27.9499 -4.2547,-22.60262 -5.28785,-41.29837 -3.02431,-54.72576 2.27293,-13.53592 8.43425,-26.69694 17.86409,-38.1709 7.02542,-8.55368 16.69007,-14.40412 27.42543,-16.59433 28.5525,-5.83071 59.25583,-5.07104 90.61662,2.23954 13.9757,3.25573 26.38288,5.67286 33.55858,6.55091 10.23757,1.2431 19.65802,1.40095 28.23316,0.4637 12.54807,-1.36149 24.88012,-4.66654 36.59228,-9.8165 3.21216,-1.41082 6.6873,-3.04854 10.23758,-4.81453 7.17569,-3.5813 13.82542,-6.55091 17.59172,-7.87293 4.8558,-1.70679 9.41105,-2.73284 13.68453,-3.08801 l 4.53647,-0.38476 c 8.23702,-0.69061 15.77901,-1.03592 19.91161,-0.91753 5.32542,0.14799 10.15305,0.79914 14.47349,1.94357 9.12929,2.427 16.54918,7.23166 21.35802,13.8319 0.38508,0.53275 0.78895,1.13457 1.19282,1.77585 1.77514,2.81176 3.44696,4.52841 4.98729,5.1105 2.65802,0.99645 5.26907,-0.57222 4.72432,-2.85123 l -0.70442,-2.95975 c 0,0 0,0 0,0 -0.30995,-1.03591 0.50718,-2.10142 1.86906,-2.42699 l 1.74696,-0.42423 c 2.45138,-0.58209 4.11381,-1.49961 4.9873,-2.73284 0.20663,-0.28611 0.30994,-0.63141 0.37569,-1.1839 -0.14089,-0.73993 -0.10332,-0.56235 -0.2536,-1.30229 -0.1127,-0.67087 -0.19723,-0.7202 -1.35248,-0.76953 -0.95801,-0.0395 -2.68619,0.0493 -4.59282,0.24664 -2.46078,0.25652 -4.63039,0.30584 -5.86078,0.13813 -1.53094,-0.20719 -3.7663,-1.23323 -6.36796,-2.93016 -2.02873,-1.31215 -3.86022,-2.279 -5.00608,-2.62431 -1.11768,-0.3453 -0.95801,-0.24664 -1.15525,-0.71034 -0.22541,-0.53275 -0.10331,-0.70047 0.54476,-0.7498 2.9116,-0.22691 8.03978,-1.25296 13.70332,-2.76243 3.46574,-0.92739 6.6779,-1.69693 8.43426,-2.03236 2.69558,-0.52289 4.93094,-1.01618 6.48066,-1.44042 4.05746,-1.11483 7.63592,-2.51578 10.74476,-4.22257 0.46961,-0.25651 0.91105,-0.51302 1.32431,-0.7794 1.18342,-0.75967 1.7,-1.82518 1.47458,-3.08801 -0.14088,-0.67087 -0.87348,-1.38121 -1.73757,-1.68705 -1.20221,-0.13813 -3.1558,0.12825 -5.48508,0.75967 -1.30553,0.3453 -2.49834,0.61168 -3.1652,0.71033 -4.35801,0.59195 -10.50055,1.75612 -17,3.21627 -7.62653,1.71665 -14.62377,2.99921 -18.50278,3.41357 -4.99668,0.53276 -9.58011,0.52289 -13.75028,-0.01 -4.05746,-0.51303 -9.05415,-1.59827 -14.4547,-3.12747 -4.77127,-1.35162 -9.15746,-2.41713 -11.59945,-2.83149 l -5.28785,-0.90766 9.30774,-7.94199 c 5.88895,-5.02171 11.4116,-9.46134 14.55802,-11.69101 v 0 c 2.9116,-2.07183 6.37735,-3.62076 10.28453,-4.61721 v 0 c 4.35801,-1.10498 11.57128,-1.59827 20.00553,-1.37135 4.07625,0.10852 9.65526,0.47356 15.53482,1.02604 11.23315,1.05565 21.16078,1.23323 26.76797,0.49329 2.75193,-0.3749 4.92155,-0.95698 6.33978,-1.71665 1.05193,-0.56235 1.74696,-1.12471 2.05691,-1.66733 0.25359,-0.43409 0.65746,-0.76953 1.68121,-1.40094 -0.32873,-0.55249 -0.88287,-0.94712 -2.00994,-1.42068 -3.13702,-1.32202 -6.71548,-1.56867 -13.86299,-0.94712 -2.28232,0.19731 -4.36741,0.30584 -5.52266,0.29597 -5.06243,-0.0789 -12.07846,-0.53275 -19.52653,-1.28256 -9.64586,-0.96685 -18.41824,-1.44041 -23.26465,-1.24309 -3.22155,0.12825 -3.17459,0.12825 -3.1558,-0.17759 0.009,-0.11839 0.29116,-0.44396 0.66685,-0.76953 2.84586,-2.46646 8.3873,-6.14641 14.85857,-9.85597 l 2.83647,-1.61799 c 0.44143,-0.25651 0.92983,-0.52289 1.43701,-0.7794 3.12763,-1.59827 4.99669,-3.25573 5.62597,-5.01185 0.6105,-1.69692 0.58232,-1.94356 -0.21602,-2.05209 -2.03812,-0.28611 -4.87459,0.62155 -8.43426,2.69337 -5.2221,3.03868 -12.96133,8.46489 -21.1326,14.81848 -3.74752,2.90056 -7.24144,5.56433 -9.15747,6.96528 l -6.30221,4.61721 c -13.121,9.58959 -25.35913,17.73876 -32.45968,21.60617 -9.13868,4.97238 -17.92045,8.42542 -26.32654,10.34925 -4.25469,0.97672 -9.45801,2.427 -14.88674,4.14365 -9.01658,2.86109 -17.17846,4.87372 -21.86521,5.40648 -6.01105,0.67088 -11.50553,0.31571 -16.38951,-1.08524 l -1.85027,-0.53276 c 0.18784,-0.18745 0.34751,-0.35517 0.50718,-0.52289 5.59779,-6.08721 10.86685,-10.92147 15.29061,-14.01934 2.48895,-1.75612 5.55083,-4.23244 8.72542,-7.06394 4.06685,-3.63062 7.87072,-6.6397 10.17183,-8.06038 6.73426,-4.13378 12.66078,-7.02447 16.53039,-8.07025 1.56851,-0.42423 3.56907,-0.89779 5.68233,-1.33189 5.35359,-1.10497 9.74917,-2.52565 12.15359,-3.9266 0.84531,-0.50316 1.49338,-0.98658 1.66244,-1.24309 0.43204,-0.7794 0.10331,-1.72652 -0.64807,-1.90411 l -0.98619,-0.18745 c -0.51657,-0.36504 -0.41326,-0.31571 -0.7326,-0.35517 -0.51657,-0.0691 -0.83591,-0.0888 -1.04254,-0.0987 -2.94917,-0.0197 -8.05857,0.73994 -13.80663,2.07183 -2.66741,0.61168 -5.14697,1.13457 -6.49006,1.37135 -1.92542,0.3453 -1.93481,0.3453 -2.23536,0.15785 -0.1221,-0.0789 -0.16906,-0.19732 -0.13149,-0.35517 0.82652,-3.16693 3.31547,-7.86307 6.95028,-13.15115 l 2.04751,-2.95975 c 0.44144,-0.65115 0.9674,-1.38122 1.51216,-2.12116 l 0.93922,-1.27269 c 0.46962,-0.64128 0.75138,-1.20363 0.83591,-1.65746 0.0845,-0.47356 0.009,-0.92739 -0.26298,-1.45027 -0.89226,-1.6476 -2.10387,-1.71666 -4.00111,-0.23678 -3.91657,3.06827 -7.05359,6.6397 -9.27017,10.5663 -5.13757,9.12589 -12.3884,17.52172 -21.51769,24.95069 -1.73757,1.42068 -3.69116,3.0584 -5.67293,4.75533 -6.5558,5.63339 -12.67017,10.1914 -16.42708,12.26323 -4.81823,2.64404 -9.56133,4.15351 -14.09779,4.50868 -5.89835,0.44396 -11.56189,-0.20718 -16.7746,-1.92384 -0.41326,-0.14798 -0.76077,-0.3157 -0.95801,-0.48342 -0.33812,-0.32557 -0.047,-1.41082 0.49779,-1.88438 1.85028,-1.56866 5.19393,-4.55801 8.78177,-7.84333 6.37736,-5.85044 12.37902,-10.95107 15.86355,-13.48659 3.21215,-2.34807 6.85635,-4.56788 10.92321,-6.64957 3.83204,-1.9633 11.27072,-5.17956 19.47956,-8.40569 2.89282,-1.13457 5.19393,-2.29874 6.52763,-3.29519 1.72818,-1.28256 2.89282,-2.48619 3.38122,-3.48264 0.28177,-0.60181 0.30055,-1.07537 0.0564,-1.34175 l -0.95801,-0.36504 c -0.35691,-0.12825 -0.83591,0.01 -1.43702,0.41437 -1.52154,1.05564 -3.01491,1.73639 -4.46132,2.04223 -9.52377,2.02249 -19.16023,5.41634 -28.7967,10.11247 -7.20387,3.5221 -16.36134,10.17167 -26.33593,19.13972 -5.35359,4.80465 -10.37846,9.06669 -13.23371,11.22731 -4.79005,3.62076 -12.58564,5.02171 -23.53702,4.22258 -2.01934,-0.14799 -3.87901,-0.27625 -4.89338,-0.32558 l -14.83978,-0.79913 c -10.5757,-0.56235 -20.33427,-0.97672 -25.63151,-1.07537 l -8.12431,-0.14799 c -7.21326,-0.13812 -13.8536,-0.12826 -17.45084,0.0197 -4.63978,0.18745 -8.89448,0.62155 -12.71713,1.29242 -1.98177,0.34531 -4.46133,1.00632 -7.11934,1.89424 -4.38619,1.46015 -8.1431,2.22968 -10.4536,2.16062 -1.46519,-0.0493 -1.32431,-0.0592 -1.67182,0.13812 l -0.28177,0.17759 c -0.15967,0.0493 -0.26298,-0.13812 -0.2348,-0.41437 0.047,-0.39463 0.15027,-0.65114 0.34751,-0.86819 1.27735,-1.38122 3.41879,-4.07459 5.65415,-7.12313 3.20276,-4.3903 6.28342,-7.98146 8.34033,-9.72771 2.40442,-2.05209 5.15636,-3.9858 8.24641,-5.80111 3.26851,-1.92384 9.45802,-4.90332 16.38951,-7.8828 2.88343,-1.24309 5.51327,-2.39739 6.94089,-3.05841 7.73923,-3.53196 15.28122,-5.44593 22.4851,-5.71231 l 7.38232,-0.27624 c 9.75857,-0.35517 18.7094,-0.92739 23.55581,-1.49961 6.24586,-0.73994 11.91879,-1.85478 16.98123,-3.33465 4.29226,-1.2431 7.4011,-2.92029 9.30773,-5.01184 0.92045,-0.99645 1.01437,-1.14444 0.86409,-1.39109 -0.22541,-0.3749 -0.95801,-0.51302 -1.36188,-0.25651 0,0 0,0 0,0 v 0 c -1.71878,1.20363 -4.76188,1.9929 -8.83812,2.29874 -1.89724,0.14799 -3.60663,0.35517 -4.53647,0.54262 -5.9453,1.25296 -14.89614,1.9929 -24.98343,2.05209 -10.04034,0.0592 -18.92543,0.72021 -23.85637,1.75612 -0.71381,0.15786 -1.15525,-0.75967 -0.7326,-1.4996 0.2442,-0.4341 0.81713,-0.7794 1.71879,-1.03592 0.43204,-0.11839 0.79834,-0.24664 0.99558,-0.35517 1.08011,-0.57221 3.11823,-1.46014 5.39116,-2.3382 1.19282,-0.46369 2.30111,-0.90765 2.88343,-1.1543 l 4.48011,-1.91397 c 12.11603,-5.15983 23.31161,-9.4416 29.59504,-11.31611 8.50001,-2.53552 21.90278,-4.07459 37.61604,-4.3015 9.31713,-0.13812 17.83592,-0.55249 22.4757,-1.10497 8.57515,-1.02605 20.42819,-5.50514 34.20665,-12.93411 7.21326,-3.88714 13.90995,-7.17246 17.69504,-8.6918 10.46298,-4.19297 23.21769,-6.04775 38.19836,-5.55446 5.69171,0.18745 12.74531,0.79913 20.18398,1.74625 8.09614,1.02605 15.52543,1.72652 19.59228,1.83505 14.9431,0.41436 28.86244,-0.25651 41.73925,-2.03236 2.96795,-0.4045 6.07679,-0.98659 9.31713,-1.74626 4.27348,-0.99644 12.00332,-3.26559 20.36244,-5.97869 7.02542,-2.28887 13.53426,-4.26204 17.10332,-5.18943 2.73315,-0.71034 5.27846,-1.0951 7.63592,-1.1543 0.77016,-0.0197 1.23978,-0.22691 1.41823,-0.60181 0.0939,-0.8682 0.17845,-0.57222 -0.61989,-2.08169 l -0.0282,-0.0493 c -0.29116,-0.57222 -0.20663,-0.4933 -0.77956,-0.74981 -0.7232,-0.32557 -1.77514,-0.57222 -2.69558,-0.63141 -4.08563,-0.26638 -8.52818,0.11839 -13.32763,1.13457 -3.72873,0.78927 -10.34089,2.83149 -17.53537,5.40648 -8.44365,3.01894 -16.12652,5.25848 -20.55028,5.96882 -5.66354,0.90766 -10.88564,0.85833 -15.59117,-0.14798 -1.20221,-0.26638 -1.47459,-0.39464 -2.3105,-1.12471 -0.52596,-0.31571 -0.39447,-0.23678 -0.91105,-0.55249 -0.54475,-0.36503 -0.37569,-1.45027 0.30995,-2.08169 l 10.76354,-9.7869 c 11.21437,-10.1914 21.75249,-19.24824 27.73537,-23.84571 1.48398,-1.13457 3.48453,-2.54539 6.47127,-4.53829 3.24973,-2.19021 4.69614,-3.12746 6.14255,-3.99566 2.00055,-1.20363 2.46077,-1.59826 2.46077,-2.12115 -0.0657,-1.35162 -0.98619,-2.13102 -2.47956,-2.07183 -0.009,0 -0.009,0 -0.009,0 -2.73315,0.15786 -5.18453,1.16417 -6.99724,2.88083 -3.32486,3.1472 -9.10111,7.11326 -16.10774,11.05959 -7.24144,4.07459 -13.17736,8.13931 -16.18288,11.09906 -2.15083,2.12116 -4.91216,5.08091 -7.73923,8.2873 -3.77569,4.28177 -7.34476,8.03079 -9.46741,9.91516 -0.4884,0.44396 -1.03315,0.96685 -1.5779,1.54894 -2.34807,2.44672 -4.33923,3.60103 -6.03923,3.47277 l -57.50887,-4.14365 c -4.93094,-0.3453 -10.22818,-0.0296 -15.87293,0.96685 -5.4757,0.96685 -15.12156,3.70955 -25.66908,7.30072 l -6.96906,2.37766 c -0.68564,0.23678 -1.4652,0.61168 -2.33868,1.12471 -2.74254,1.62786 -4.90276,1.75611 -6.00166,0.35517 -0.27237,-0.33544 -0.20663,-1.15431 0.11271,-1.50948 0.8547,-0.83859 2.45138,-2.36779 4.20774,-3.99566 4.88398,-4.55801 8.84752,-8.86938 10.72597,-11.68114 1.40884,-2.10142 0.49779,-4.92305 -1.67182,-5.15983 -2.64862,-0.29598 -5.56962,1.30229 -8.58454,4.706 -3.65359,4.12392 -8.08674,8.01106 -13.27128,11.64168 -4.92155,3.44318 -14.31382,8.71153 -24.99283,14.00948 l -2.92099,1.45028 c -1.78453,0.88792 -3.77569,1.53907 -5.92652,1.94357 -2.04752,0.38476 -4.31106,0.56235 -6.80001,0.52289 -1.9348,-0.0296 -5.44751,-0.31571 -9.28895,-0.76954 -5.66354,-0.66101 -10.70719,-0.87806 -13.55305,-0.60181 -3.6442,0.36503 -6.84696,1.33188 -9.52376,2.88082 -0.80773,0.47356 -1.7,1.04578 -2.62044,1.69692 -3.09006,2.18035 -5.61658,3.24586 -7.50442,3.1768 -0.75139,-0.0493 -0.92045,-0.18745 -0.7326,-0.64128 l 1.52155,-3.26559 c 2.68618,-5.78138 5.35359,-10.89188 7.07237,-13.55565 2.21658,-3.42345 4.61161,-6.25494 7.15691,-8.45502 1.27735,-1.09511 2.90222,-1.87451 4.77128,-2.27901 0.52596,-0.11839 0.7232,-0.16771 5.28785,-1.30229 0.54475,-0.12825 1.11768,-0.13812 1.7,-0.0197 0.66685,-0.47356 0.70442,-1.5292 0.0657,-2.19021 v 0 c -1.42762,-0.63141 -2.98674,-1.05565 -4.95912,-1.34175 -1.0895,-0.15786 -2.28232,-0.20719 -4.0011,-0.16772 -4.01989,0.0987 -7.78619,2.51578 -10.25636,6.59037 v 0 c -3.13702,5.18943 -5.86078,9.8461 -7.33536,12.51974 -8.50001,15.46962 -26.13869,27.64406 -52.64368,36.34572 -3.8884,1.27269 -7.93646,2.88082 -12.1442,4.81453 -4.75249,2.19021 -13.21492,6.71863 -22.31603,11.92779 -9.45802,5.40647 -18.25858,10.08288 -23.2083,12.32242 l -2.25415,1.02605 0.32873,-3.81808 c 0.67625,-7.86307 1.89724,-14.24626 3.5221,-18.33071 3.24034,-8.12945 10.5757,-15.94319 21.79946,-23.20444 5.05304,-3.26559 11.73095,-7.21192 18.85968,-11.14839 8.16188,-4.50868 15.52542,-8.84965 19.41382,-11.44436 3.90719,-2.60458 7.76741,-5.77151 11.56188,-9.48106 4.92155,-4.81453 12.80167,-14.41398 21.01051,-25.5821 l 2.65801,-3.62076 c 0.49779,-0.68075 0.82652,-1.10498 1.21161,-1.54894 1.53094,-1.76598 4.56464,-4.64681 8.07735,-7.65588 4.32044,-3.70956 7.88951,-7.25139 9.61768,-9.56 2.20719,-2.94988 3.67238,-6.01815 4.33923,-9.08643 0.11271,-0.55248 0.0939,-1.02604 -0.0751,-1.43054 l -0.63867,-1.53907 c -3.59724,1.34175 -6.95028,3.1472 -9.97459,5.36701 -5.69172,4.17325 -10.66962,8.08012 -13.31824,10.45778 -3.67238,3.29519 -6.75304,6.61011 -9.2326,9.95463 -1.0895,1.47987 -2.25415,3.39384 -3.40939,5.64325 -2.51713,4.88359 -5.01548,8.01106 -7.4199,9.27388 -0.63867,0.29598 -0.73259,0.18745 -0.83591,-0.89779 l -0.16906,-4.05485 c -0.2442,-5.87017 -1.36188,-14.91714 -3.08066,-24.97042 -0.27238,-1.59827 -0.61989,-3.39385 -1.01437,-5.23876 -1.74696,-8.34649 -2.03812,-14.87767 -0.83591,-19.01146 0.50718,-1.75611 0.55414,-3.03867 0.14088,-3.87727 -0.14088,-0.28611 -0.22541,-0.56235 -0.22541,-0.76953 -0.0939,-2.57498 -2.96796,-3.91674 -4.80884,-2.22968 -0.66686,0.60182 -1.23039,1.43055 -1.5873,2.31847 -2.23536,6.01816 -2.49834,15.77546 -0.77016,28.41359 1.30552,9.58959 1.58729,17.7289 0.77955,22.5237 -2.22596,13.13142 -9.41105,24.32913 -19.73315,30.77152 -5.21271,3.25573 -13.0083,7.1034 -21.83703,10.80309 -12.5199,5.22889 -22.63537,10.75375 -27.89504,15.22297 -2.82708,2.41713 -5.82321,5.46568 -8.96023,9.13576 -1.48398,1.73639 -2.87403,3.32479 -3.63481,4.17325 l -2.01933,2.21981 c -8.80056,9.73758 -14.60498,18.41951 -16.60554,24.85203 -0.0939,0.29598 -0.2442,0.48343 -0.46961,0.58209 -0.30994,0.13812 -0.19724,0.20718 -0.92983,-0.52289 0,0 0,0 0,0 v 0.01 c -3.42818,-3.21626 -5.76686,-8.48461 -6.96907,-15.74586 -0.6105,-3.63063 -2.03812,-10.21114 -3.77569,-17.34414 v 0 c -4.11382,-16.92976 -5.70111,-30.96884 -4.47072,-39.66064 0.23481,-1.68705 0.77016,-3.38398 1.58729,-5.0513 1.31492,-2.65391 4.3768,-6.3536 8.57514,-10.33939 3.22155,-3.05841 5.85139,-5.95896 7.10056,-7.82361 1.39945,-2.08169 2.80829,-4.68627 4.19834,-7.73481 2.16962,-4.76519 4.38619,-8.52408 6.15194,-10.41832 2.96796,-3.18666 6.99724,-6.57064 11.94697,-10.04341 2.19779,-1.53907 4.20774,-2.98935 5.27845,-3.79835 8.04918,-6.12668 18.58731,-13.87135 29.63261,-21.77389 10.71658,-7.67561 20.56908,-14.84807 25.82875,-18.81413 10.72597,-8.08999 20.48454,-12.08565 29.20995,-11.95739 4.78067,0.0691 10.22819,0.3453 15.88233,0.79913 5.42873,0.4341 10.44421,0.75967 13.16796,0.85833 8.04918,0.27624 19.4514,-0.89779 32.28124,-3.33465 11.20497,-2.13102 21.34862,-3.45304 27.04034,-3.53197 8.91326,-0.11839 18.55913,0.45383 28.89062,1.72652 9.09172,1.11484 26.23261,4.15351 44.73538,7.92226 10.46299,2.13102 19.47957,3.45304 26.1293,3.81808 11.95636,0.66101 22.85139,-0.48343 32.5536,-3.43331 1.5873,-0.48343 3.27791,-1.01618 4.97791,-1.5884 5.14696,-1.70679 9.86188,-3.05841 12.5105,-3.56156 3.41879,-0.65115 6.57459,-0.85833 9.46741,-0.63142 0.7232,0.0592 1.34309,0.0592 1.85967,0 1.9348,-0.21705 3.57845,-1.00631 4.68674,-2.26914 0.55414,-0.62155 0.61989,-1.53907 0.15967,-2.18035 -0.76078,-1.05564 -1.04254,-1.27269 -1.74696,-1.32202 -11.85305,-0.86819 -22.70112,-0.23678 -32.50665,1.88437 -2.13205,0.45383 -4.48011,0.99645 -6.86575,1.57854 -6.64973,1.60813 -12.73592,2.82163 -16.13592,3.18666 -4.3674,0.48343 -8.36851,0.45383 -12.01271,-0.0888 -0.30995,-0.0493 -0.46022,-0.12826 -0.67624,-0.36504 -0.16907,-0.18745 -0.11271,-0.49329 0.1127,-0.60181 2.1884,-1.06551 5.49448,-3.5813 9.09172,-6.93568 l 2.20718,-2.05209 c 2.54531,-2.3678 5.51327,-4.53829 8.8757,-6.49172 4.2547,-2.47633 9.09171,-5.10064 14.43592,-7.86307 9.80553,-5.04144 16.32376,-7.87293 22.66354,-9.82637 5.05304,-1.5588 10.05912,-2.29874 19.00056,-2.83149 5.98288,-0.35517 9.4768,-2.17048 10.44421,-5.44594 0.10331,-0.32557 0.15027,-0.50316 0.19724,-0.63141 0.2442,-0.7498 -0.37569,-1.50947 -1.29614,-1.57853 -7.48564,-0.55249 -13.95691,-0.25652 -19.23537,0.88792 -19.81768,4.28177 -36.91162,11.32597 -51.0188,21.03395 -2.16023,1.48974 -5.89835,4.48895 -9.89006,7.942 -5.44752,4.72573 -10.53813,8.56354 -13.65636,10.29992 -1.63426,0.91753 -4.08564,0.69061 -7.41051,-0.67087 -1.24917,-0.50316 -2.38563,-0.89779 -3.0337,-1.05565 -6.1895,-1.46014 -14.04144,-2.94001 -22.37238,-4.20284 -5.36299,-0.809 -10.31272,-1.60813 -12.98012,-2.09156 -2.41381,-0.44396 -6.84697,-1.44041 -11.62763,-2.61444 v 0 c -5.09061,-1.25296 -9.79614,-2.28888 -12.37901,-2.7427 -3.31547,-0.58209 -6.39614,-0.92739 -9.20443,-1.03592 -1.00497,-0.0395 -1.26795,-0.0691 -1.3337,-0.16771 -0.0751,-0.10853 -0.0751,-0.28611 -0.009,-0.44397 0.56353,-1.41081 1.96298,-3.4925 3.8884,-5.77151 l 0.39447,-0.47356 c 6.03923,-7.18232 11.83426,-12.59866 17.16907,-16.04184 5.16575,-3.33465 9.80553,-6.01816 12.62321,-7.31058 4.03868,-1.84491 7.90829,-2.98935 11.58067,-3.41358 1.81271,-0.20718 2.93039,-0.75967 3.36243,-1.64759 l 0.22542,-0.52289 c 0.43204,-0.96685 -0.34752,-2.05209 -1.81271,-2.51579 -3.81326,-1.21349 -9.29835,-0.20718 -16.46465,3.03868 l -2.20718,1.00631 c -1.83149,0.82873 -3.67238,1.79558 -5.52266,2.91042 -4.20773,2.52566 -10.98895,8.00119 -18.23039,14.70996 -6.00166,5.56433 -11.65581,10.31966 -14.99946,12.62826 -15.45967,10.66496 -31.00388,16.09117 -45.69339,15.95305 -4.40497,-0.0395 -10.23757,-0.31571 -16.36133,-0.78927 -5.76686,-0.44396 -11.07349,-0.7498 -13.96631,-0.79913 -3.70994,-0.0789 -7.13812,0.0296 -10.22818,0.31571 -1.62486,0.14798 -3.49392,0.44396 -5.49448,0.87806 -3.58784,0.76953 -6.71547,1.1247 -8.54696,0.98658 -0.65746,-0.0493 -1.11768,-0.25651 -1.24917,-0.54262 -0.0564,-0.13812 0.009,-0.24665 0.16906,-0.28611 0.94862,-0.19732 0.79834,-0.14799 1.00497,-0.33544 0.42265,-0.42423 0.43204,-0.84846 0.0188,-1.08524 -0.92983,-0.46369 -0.79834,-0.38477 -0.89226,-0.54262 -0.15028,-0.27624 -0.15028,-0.35517 -0.009,-0.59195 0.77016,-1.25296 2.33867,-3.40371 4.16077,-5.69259 1.28674,-1.62786 2.44199,-3.1472 3.03371,-4.00552 l 1.92541,-2.75257 c 6.86575,-9.83623 17.4978,-28.7589 28.28952,-50.31574 4.23591,-8.45501 8.19006,-16.21942 10.39724,-20.39267 4.18895,-7.9124 8.40608,-13.46686 12.47293,-16.39701 8.24642,-5.9491 19.28233,-9.99409 33.03262,-12.09551 l 14.19172,-2.18035 c 14.13536,-2.17048 27.06852,-3.64049 34.20664,-3.88714 9.19503,-0.32557 17.57294,0.30584 25.11493,1.89424 22.55084,4.72574 44.78234,6.7285 66.38456,5.95897 10.83868,-0.38477 27.04974,-0.4045 44.27516,-0.0493 l 21.7525,0.44396 c 2.74254,0.0592 5.59779,-0.0395 8.54696,-0.27624 5.42874,-0.4341 15.24366,-1.9929 25.93206,-4.10419 5.32542,-1.06551 10.27514,-1.9929 12.95194,-2.43686 1.49337,-0.25651 2.7895,-0.42423 3.84144,-0.49329 4.621,-0.31571 8.81934,0.20718 12.47293,1.56867 2.03813,0.75966 4.19835,-0.91753 4.41437,-3.40372 0.0657,-0.81886 -0.0939,-1.34175 -0.46022,-1.5292 -4.61161,-2.40726 -10.05912,-3.80821 -16.19227,-4.19298 v 0 c -4.79945,-0.29597 -13.26189,0.3749 -22.75747,1.79558 -3.60664,0.53276 -6.9315,0.99645 -8.74421,1.20363 -14.83978,1.74626 -27.90443,2.55525 -37.89781,2.34807 l -8.33094,-0.17758 10.06851,-2.90056 c 9.53316,-2.7427 19.71438,-9.94476 30.51549,-21.57657 4.4989,-4.84412 9.8431,-11.87846 15.26244,-20.0967 4.53646,-6.88635 8.89448,-12.97357 11.52431,-16.1109 2.62044,-3.1176 6.25525,-6.52131 10.72597,-10.02368 0.50719,-0.39464 1.12708,-0.81887 1.81271,-1.23323 1.4652,-0.89779 2.56409,-1.77585 3.09006,-2.48619 1.39945,-1.86464 1.7,-3.48264 0.82652,-4.41989 -0.9768,-1.03592 -1.96299,-1.40095 -2.83647,-1.06551 -4.81823,1.85477 -9.37348,4.29163 -13.57183,7.25138 -5.8232,4.10419 -11.6558,11.78967 -17.51658,23.05645 -2.61105,5.01184 -5.13757,9.49093 -6.69669,11.82913 -8.021,12.08564 -19.24476,21.20167 -32.15913,26.09512 -9.88067,3.73915 -23.5746,6.30427 -40.12378,7.51777 l -9.31713,0.67087 c -25.79117,1.88438 -47.41217,1.04578 -59.99782,-2.3086 -0.77016,-0.14799 -0.65745,-0.10853 -0.94861,-0.30584 -0.46962,-0.32557 -0.51658,-0.62155 -0.16907,-0.88793 13.57183,-10.20127 25.24643,-20.52093 34.94864,-30.88005 4.42376,-4.72573 9.74918,-12.00671 15.14034,-20.72811 4.95912,-8.02092 9.77735,-14.91714 12.8768,-18.41951 2.42321,-2.7427 5.43812,-5.70245 8.90387,-8.73126 5.94531,-5.19929 10.58509,-10.12234 12.73592,-13.51618 2.51713,-3.9562 4.89337,-8.55368 7.10056,-13.75297 1.70939,-4.03513 4.46132,-11.61209 7.22265,-19.96844 1.53094,-4.60735 2.97735,-8.84966 3.79448,-11.12866 2.4232,-6.74823 4.67735,-12.29283 6.38674,-15.736 3.26851,-6.60024 6.99724,-12.12511 11.16741,-16.55487 0.19724,-0.20718 0.59171,-0.44396 1.10829,-0.66101 0.6011,-0.24664 1.01436,-0.51302 1.2116,-0.7794 1.50276,-1.98303 1.3337,-1.59826 1.19282,-2.7131 -0.25359,-2.05209 -0.17845,-1.95344 -1.38067,-1.85478 -4.80884,0.64128 -9.45801,3.47277 -13.22431,8.07025 -2.99613,3.64049 -6.38674,10.66496 -9.51437,19.65274 l -0.55414,1.60813 c -0.50719,1.45027 -1.31492,3.23599 -2.32929,5.1401 -1.59668,3.01894 -2.63922,5.65312 -2.90221,7.36977 -1.11768,7.24152 -3.56906,16.05171 -7.19448,25.83861 -0.42265,1.12471 -0.62928,1.43055 -1.0895,1.63773 l -1.17403,0.15785 0.41326,-2.55525 c -2.25415,-5.25848 -3.90719,-10.88201 -5.24089,-17.84728 -1.51216,-7.90254 -1.20221,-21.26087 0.8547,-37.14486 l 0.58232,-4.45935 c 1.39005,-10.72416 1.27735,-17.01856 -0.41326,-22.79994 -1.06133,-3.64049 -2.09448,-5.23876 -3.58785,-5.58406 -1.05193,-0.23678 -0.7326,-0.21705 -2.1884,-0.11839 l -0.14088,8.34649 c -0.10332,6.76796 -0.30995,13.18075 -0.62928,19.80073 -0.16907,3.53196 -0.38509,6.81729 -0.64807,9.95462 -0.69503,8.32676 -0.70442,23.46095 -0.0188,40.1342 l 0.33813,8.40569 c 0.43204,10.55644 -4.1326,20.0079 -13.14918,27.24942 -2.96796,2.38753 -5.91713,5.25849 -8.84752,8.59314 -2.81768,3.22613 -7.5326,9.45147 -12.48233,16.47594 l -3.99171,5.67285 c -2.16962,3.09787 -4.70553,6.16615 -7.57956,9.23442 -3.50332,3.71942 -10.74476,10.32953 -18.87846,17.21588 -16.4083,13.89109 -34.9956,21.87254 -53.62986,23.01698 l -8.68785,0.54262 c -14.03205,0.85833 -26.77736,2.15075 -33.70886,3.41358 -8.92266,1.62786 -16.86852,4.00552 -23.82819,7.14286 -1.70939,0.76953 -3.62541,1.84491 -5.68232,3.1768 -4.34862,2.83149 -8.00221,4.41989 -10.58509,4.58761 -0.22541,0.0197 -0.39447,0.0789 -0.62928,0.22691 -0.59171,0.4045 -0.95801,0.56235 -1.49337,0.64128 -0.88288,0.10853 -0.99558,-0.01 -0.8547,-0.82873 0,0 0,0 0,0 v 0 c 2.15083,-14.9862 7.79559,-26.46016 16.33316,-33.18865 3.30608,-2.60458 7.05359,-5.08091 11.23315,-7.40924 4.33923,-2.40727 12.5199,-6.19575 21.6304,-10.00396 14.99006,-6.2648 27.27515,-12.85517 33.67129,-18.05447 3.2779,-2.67364 6.81878,-7.13299 10.46299,-13.21034 3.73812,-6.22534 7.37293,-10.89188 10.20939,-13.09196 l 6.94089,-5.36701 c 12.49172,-9.67838 15.94807,-12.46055 19.33868,-15.52882 3.87901,-3.50237 7.73923,-7.22179 16.42708,-15.84453 4.39558,-4.37056 6.16133,-6.12668 7.88951,-7.89266 3.84144,-3.91674 3.93536,-4.66654 0.68563,-5.61366 -7.48563,-2.17048 -7.05359,-2.05209 -7.5326,-2.08169 3.26851,-0.0493 2.75194,2.32834 -1.61547,7.46843 -2.4232,2.84136 -3.57845,4.17325 -4.74309,5.43608 -2.46078,2.67364 -5.09061,5.14996 -13.39338,12.5592 -9.76796,8.71153 -13.29945,11.7502 -16.95305,14.57183 -7.72044,5.93923 -9.45801,6.89622 -10.65083,5.88004 -3.77569,-3.24586 -5.16575,-10.44792 -3.80387,-19.64287 0.29116,-1.91397 0.52597,-3.68982 0.61989,-4.65667 0.26299,-2.7427 0.64807,-5.69259 1.12707,-8.76086 1.00498,-6.30427 1.62487,-12.03632 1.67183,-15.23284 l 0.0282,-2.33821 0.19724,-5.56433 c 0.13149,-3.61089 0.18785,-6.93567 0.15967,-8.73126 -0.0376,-2.31847 -0.17845,-4.45935 -0.43204,-6.37332 -0.0282,-0.26638 -0.0751,-0.50316 -0.1315,-0.70048 -0.30994,-1.06551 -0.93922,-1.88437 -1.75635,-2.279 -0.0658,-0.0296 -0.1221,-0.0691 -0.2442,-0.16772 -0.49779,-0.4045 -1.0895,-0.75967 -1.79392,-1.06551 -1.00498,1.14443 -1.72818,2.26914 -2.21658,3.44317 -0.6011,1.46015 -0.49779,3.70955 0.32873,6.71863 0.33812,1.26283 0.60111,2.41713 0.68564,3.06828 0.76077,5.94909 0.0751,16.01224 -1.89724,27.78218 v 0 c -1.51216,8.99763 -2.36685,17.07775 -2.3105,21.64563 0.17845,14.1476 -2.27293,23.54974 -7.42928,28.45306 -3.66299,3.48263 -8.021,6.68903 -13.05526,9.59945 -4.80884,2.78216 -13.91934,6.88635 -24.20388,10.90174 -14.77404,5.77151 -26.84311,11.93766 -33.15471,16.93964 -8.19006,6.49171 -15.87294,16.14049 -23.04863,28.91675 l -2.3105,4.12391 c -0.3663,-0.13812 -0.61989,-0.25651 -0.94862,-0.45383 -0.74199,-0.44396 -1.25856,-1.13457 -1.35248,-1.79558 l -2.85525,-20.16575 c -1.78454,-12.63813 -3.18398,-24.29955 -3.67238,-30.66301 -0.88288,-11.4345 -0.95801,-20.94516 -0.20663,-27.18036 1.39945,-11.51343 4.95912,-21.45818 10.50056,-29.26206 2.88342,-4.06472 7.2884,-9.27388 12.41658,-14.67049 4.45193,-4.69613 8.35912,-9.11603 10.34088,-11.70087 2.53592,-3.32479 4.56465,-6.58051 6.0768,-9.77704 2.11326,-4.48895 4.88398,-10.86228 7.67349,-17.6697 l 5.26906,-12.87491 c 0.92984,-1.89424 1.0895,-2.20995 1.17403,-2.3974 1.13647,-2.57498 2.87404,-7.42897 4.60222,-12.80585 2.00055,-6.24507 4.06685,-11.78967 5.49447,-14.72969 0.59172,-1.21349 1.23978,-2.44672 1.96299,-3.69968 1.37127,-2.37767 4.21713,-6.6693 7.46685,-11.247049 1.8221,-2.565116 2.27293,-4.68627 1.28674,-6.067486 L 727.2916,90.06518 c -0.17845,0.217048 -0.32873,0.384767 -0.49779,0.59195 v 0 c -0.41326,0.513023 -1.13646,1.470008 -1.91602,2.525652 -1.14586,1.568667 -2.23536,2.95975 -2.89282,3.670089 -3.81326,4.123919 -7.88011,11.296379 -11.75912,20.747839 l -1.16464,2.8315 c -4.77128,11.61208 -9.98399,23.48068 -15.59117,35.47753 -9.10111,19.45541 -21.16078,35.86229 -35.56853,48.3919 -0.33812,0.29597 -0.67624,0.39463 -0.86409,0.24664 -0.16906,-0.12825 -0.55414,-1.62786 -0.85469,-3.31492 -0.45083,-2.49605 -0.3663,-2.10142 -0.56354,-2.72297 v 0 c -2.38563,-6.08721 -3.63481,-13.38793 -3.73812,-21.84295 -0.0657,-5.28808 0.66685,-12.62826 2.05691,-20.79717 0.88287,-5.12036 1.5685,-9.82637 1.8127,-12.42108 0.56354,-5.76164 1.71879,-12.77625 3.34365,-20.28415 l 1.4652,-6.72849 c 2.26353,-10.44792 4.99668,-19.159448 7.46685,-23.865449 0.92044,-1.746252 1.3337,-3.1472 1.2116,-4.153515 -0.047,-0.463694 -0.29116,-0.878059 -0.68563,-1.174034 -0.65746,-0.503157 -1.61547,-0.384767 -2.32929,0.286109 -0.57292,0.532755 -1.01436,1.578533 -1.32431,3.127469 l -0.0751,0.384767 c -0.55415,2.79203 -1.80332,6.758094 -3.49393,11.079333 -1.72818,4.40016 -3.01492,8.41555 -3.46575,10.74389 l -2.68618,12.63812 c -2.02874,9.55999 -3.72874,18.37018 -4.46133,23.20444 l -1.13647,7.43884 c -2.70497,17.70916 -2.84586,31.85676 -0.41326,40.5387 1.87846,6.67916 1.40884,15.60774 -1.40884,26.83506 -7.73923,30.81099 -6.52763,63.2597 3.47514,93.16304 7.56078,22.59275 8.31216,42.95583 2.21658,59.7376 -4.85581,13.36821 -12.36023,29.43964 -21.83703,46.78378 -17.0094,31.12669 -43.7398,54.40019 -75.18512,65.46965 l -2.26354,0.79913 3.13702,-11.03986 c 1.11768,-3.94634 2.84586,-9.0371 4.8652,-14.36465 2.96796,-7.82361 5.2221,-14.9566 6.02044,-19.09039 3.70056,-19.01145 1.98177,-40.4499 -5.06243,-63.06239 -1.29613,-4.19298 -2.94917,-8.90884 -4.81823,-13.7727 -3.5315,-9.18509 -6.21769,-17.56118 -7.18509,-22.4053 -0.95801,-4.81453 1.63425,-10.75376 7.63591,-17.49212 1.98177,-2.23954 3.70056,-4.34096 4.54586,-5.59392 1.08951,-1.59827 3.22155,-4.42976 5.60719,-7.44871 7.42928,-9.40213 11.5431,-17.37373 12.17238,-23.53987 0.35691,-3.5221 0.0845,-8.03079 -0.82652,-13.35833 -0.51657,-3.03868 -0.90166,-5.81098 -1.01437,-7.35005 -0.10331,-1.30229 -0.91105,-2.40726 -2.0569,-2.80189 -1.19282,-0.41437 -2.47956,0.0493 -3.13702,1.1247 -1.0989,1.80545 -1.01437,1.51934 -0.68564,2.22968 v 0 c 0.68564,5.58406 -0.009,11.51342 -2.0569,17.38359 -3.7663,10.83268 -13.22432,24.44753 -27.44421,39.50279 -0.9768,1.02605 -1.37128,1.2135 -1.55912,0.7202 0,0 0,0 0,0 v 0 c -0.95801,-2.67364 -3.11824,-7.29084 -5.73868,-12.29282 -2.89282,-5.52487 -5.20332,-10.6255 -6.18011,-13.61485 -2.74254,-8.39582 -4.88398,-20.07696 -6.20829,-33.75101 -0.6105,-6.30426 -1.25857,-12.10537 -1.71879,-15.2427 -2.85525,-19.67247 -3.89779,-36.55291 -2.86464,-46.60619 0.65746,-6.43252 1.67182,-12.31256 3.0431,-17.61051 2.49834,-9.67838 6.23646,-18.37018 11.08287,-25.80901 2.86465,-4.38043 8.92266,-11.12866 16.38951,-18.26166 6.33979,-6.04775 11.71216,-11.78966 14.342,-15.3315 11.73095,-15.76559 17.96741,-31.116827 18.55913,-45.678794 0.26298,-6.363461 1.54972,-11.838997 3.82265,-16.32795 0.70442,-1.391083 1.52155,-2.949884 2.37624,-4.538283 4.35802,-8.099847 6.92211,-15.005929 7.31658,-19.672467 0.11271,-1.37135 0.21602,-2.811761 0.29116,-4.291636 0.28177,-5.495268 0.87348,-10.290062 1.59669,-12.94397 2.75193,-10.15194 8.08674,-16.979096 15.09337,-19.3074316 l 0.62929,-0.2071825 c 0.44143,-0.3058407 0.25359,-1.5094721 -0.30056,-2.0126295 -1.46519,-1.2924239 -3.8884,-1.1049731 -7.11934,0.5722182 l -0.18784,0.098658 c -3.99172,2.0718245 -7.47625,5.6728534 -10.09669,10.4380494 -2.33868,4.262039 -4.63978,12.065911 -6.38674,21.694962 -1.18343,6.471986 -2.53592,12.223765 -3.60664,15.321636 -1.38066,3.985796 -3.12762,7.379642 -5.23149,10.161806 l -2.10387,2.782164 -1.24917,-7.991323 c -1.15525,-7.369776 -3.54089,-14.749417 -7.10056,-21.981071 -2.99613,-6.087218 -7.66409,-12.529606 -13.92873,-19.208773 -1.31492,-1.400948 -2.82708,-3.551699 -4.34862,-6.17601 -1.91603,-3.3050541 -3.79448,-5.820841 -5.24089,-7.0343383 l -1.87845,-1.5686671 c -0.47901,3.097871 -0.46962,2.4565919 -0.11271,4.5086848 0.71381,4.1732466 3.83204,9.5106616 9.16685,15.7064036 l 2.14144,2.565116 c 13.7315,16.495669 20.24034,35.56632 18.27736,53.561596 -2.31989,21.241132 -10.47238,38.437282 -23.30222,49.161432 -9.69283,8.09985 -17.99559,15.52882 -22.46631,20.11643 -6.45249,6.60024 -11.74034,13.22022 -15.86355,19.83032 -0.52596,0.8386 -0.61049,0.97672 -0.66685,1.05565 l -1.8221,2.53552 -3.09945,-6.18588 c -1.70939,-3.42344 -4.22652,-6.76796 -7.54199,-9.97435 -13.74089,-13.35834 -22.87017,-28.88716 -26.51438,-45.16578 -0.75138,-3.36425 -1.49337,-7.24152 -2.16022,-11.28651 -0.92044,-5.574194 -1.89724,-10.655097 -2.57348,-13.397798 -0.14088,-0.562353 -0.29116,-1.134571 -0.45083,-1.716655 -1.15525,-4.163381 -3.90718,-11.45423 -7.31658,-19.35676 -3.97293,-9.204821 -6.99724,-17.610509 -8.10553,-22.543424 -1.23977,-5.465671 -1.49337,-12.421081 -0.78895,-20.836635 0.14089,-1.608131 0.46023,-3.709553 0.92045,-5.958962 0.92044,-4.498819 1.16464,-8.1689086 0.70442,-10.4380497 -0.35691,-1.7857154 -1.07072,-3.1965293 -2.13205,-4.24230736 -0.25359,-0.23677994 -0.56353,-0.34530408 -1.01436,-0.33543825 -0.71382,0.0493291 -0.6105,0.059195 -0.69503,-0.0295975 -0.37569,-0.36503575 -0.33812,-0.35516992 -0.72321,-0.16771913 -0.99558,0.48342572 -0.87348,0.40449907 -0.88287,0.5426207 -0.0657,1.31215554 -0.0939,2.00276374 -0.0845,2.48618944 0.0282,2.1507511 -0.38508,5.9392302 -1.10829,10.1716718 -0.76077,4.400161 -1.17403,8.316896 -1.10829,10.556439 0.27238,9.579722 1.25857,17.98541 2.93039,25.039479 1.85028,7.823604 4.63978,14.759284 8.29338,20.678782 0.21602,0.35517 0.45083,0.720206 0.69502,1.085242 1.56851,2.348067 2.32929,4.262039 2.25415,5.732047 -0.0282,0.52289 -0.1221,0.976718 -0.25359,1.164169 -0.49779,0.720205 -1.42763,0.355169 -2.1884,-0.868194 L 457.35783,76.0557 C 450.44512,64.887579 440.98711,56.29444 430.08268,51.272732 423.81804,48.382044 417.02743,46.842974 410.1335,46.73445 c -0.2442,0 -0.40387,0.0296 -1.2116,0.246646 -1.18343,0.315706 -1.67183,1.84491 -1.00498,3.137334 0.47901,0.937254 1.49337,1.627862 2.94918,2.01263 22.21271,5.860303 37.86963,17.048156 45.12985,32.241535 3.09006,6.471985 6.05802,15.706405 8.55636,26.657475 1.89724,8.2873 3.92597,15.7064 5.40056,19.68233 0.92983,2.50592 2.08508,5.05131 3.46574,7.62629 2.15083,4.01539 6.69669,10.77349 12.12542,17.99528 5.25028,6.99487 9.69283,13.55565 11.81548,17.42305 1.19282,2.18035 2.24475,4.53829 3.73812,8.38596 1.39006,3.60103 2.50774,7.65589 3.41879,12.48028 1.59668,8.48461 2.74254,17.86702 3.57845,29.36071 l 1.50277,20.8169 c 1.19281,16.46608 2.69558,31.55093 3.96353,39.88756 1.63426,10.74389 4.08564,20.33348 7.32597,28.76876 1.3431,3.47277 3.1652,7.72495 5.20332,12.12511 3.12763,6.76796 5.68232,13.01303 6.78122,16.59433 1.39945,4.60734 2.16022,8.9483 2.25414,12.99329 l 0.0845,3.36425 -3.47514,-2.6835 c -0.479,-0.4341 -0.70442,-0.62155 -0.98618,-0.809 -10.04973,-6.88635 -18.89725,-13.50632 -23.65913,-17.6993 -5.99227,-5.27822 -10.9326,-10.69456 -14.821,-16.23916 -1.95359,-2.78216 -3.61603,-6.05762 -4.94973,-9.76717 -1.4558,-4.00553 -3.10884,-11.39504 -4.44254,-19.84019 -1.70939,-10.81295 -4.04807,-19.73166 -6.45249,-24.62511 -1.25857,-2.55525 -2.82707,-5.08091 -4.69614,-7.57696 -2.92099,-3.897 -8.92265,-9.95462 -16.14531,-16.31809 l -4.32983,-3.80821 c -1.85967,-1.63772 -3.50332,-2.20994 -4.84641,-1.68705 -0.83592,0.32557 -0.71382,0.28611 -0.87349,0.28611 -0.98618,-0.01 -0.8453,-0.0197 -0.97679,0.0888 -0.30995,0.25651 -0.30995,0.25651 -0.0939,3.1472 0.22541,3.02881 2.57348,6.22534 7.10994,9.66851 1.61547,1.22337 3.02431,2.40727 3.74752,3.13734 9.04475,9.10616 15.75084,20.99449 19.47017,34.52054 0.86409,3.1768 1.62487,7.19219 2.1978,11.66141 0.2348,1.82518 0.46961,3.5221 0.6011,4.42976 0.15028,1.02605 0.1221,0.85833 0.50718,2.40726 0.32873,1.2135 0.30995,1.03591 0.0939,1.26283 -0.19724,0.22691 -0.55415,0.0888 -0.8547,-0.31571 -0.47901,-0.70047 -0.35691,-0.52289 -0.84531,-1.23323 -0.0751,-0.0888 -0.54475,-0.50315 -1.09889,-0.96685 -1.62486,-1.34175 -4.67735,-3.75888 -8.00221,-6.324 -7.49504,-5.79124 -13.96631,-11.36543 -17.23482,-14.85794 -0.94862,-1.01618 -1.99116,-2.23954 -3.04309,-3.57143 -3.84144,-4.91318 -7.26962,-7.55722 -10.34089,-7.99132 -0.60111,-0.0888 -1.19282,0.01 -1.96299,0.32557 -0.68563,0.29598 -0.49779,0.16772 -1.35248,0.95699 l 0.52596,1.1839 c 0.46962,1.04577 0.77017,1.64759 1.08951,2.15075 3.47514,5.43607 11.01713,12.76638 21.03868,20.442 6.53702,5.01184 12.17238,9.82637 15.02763,12.84531 3.20277,3.38398 7.06299,8.40569 10.97956,14.30546 4.97791,7.48816 9.80553,13.48659 13.19614,16.36741 l 10.96078,9.35281 c 6.91271,5.8899 13.19614,11.41476 16.5304,14.5225 12.74531,11.87846 21.94034,23.26363 27.34089,33.8398 1.59669,3.12747 2.94918,6.2944 4.07625,9.49093 5.53205,15.77546 3.05249,36.6121 -7.44807,62.42111 -1.74696,4.27191 -3.57846,9.28375 -5.3442,14.57184 -2.62045,7.84333 -5.25967,14.8974 -6.97846,18.64642 -2.21657,4.81452 -4.65856,8.9779 -7.31658,12.48027 -0.29116,0.38477 -0.58232,0.73994 -0.70442,0.84846 -0.38508,0.36504 -1.23038,0.38477 -1.36188,0.0296 -0.0657,-1.37135 -0.009,-3.897 0.1315,-6.65943 0.1127,-2.21982 0.17845,-4.27191 0.15966,-5.38675 -0.0657,-5.89976 -1.95359,-13.42739 -5.63536,-22.48423 l -1.43702,-3.53196 c -2.52652,-6.19575 -6.54641,-8.88912 -10.16243,-6.80743 -1.04254,0.4637 -0.92984,0.33544 -1.60608,1.93371 -0.25359,0.60181 -0.0845,0.7794 0.95801,1.01618 1.85967,0.35517 3.32487,2.3678 4.33923,5.97869 0.25359,0.90766 0.51658,1.72652 0.67624,2.17048 4.27349,11.28651 6.24586,20.77744 5.8326,28.03869 -0.74199,13.03277 -4.48011,22.53356 -11.01713,28.0091 -2.23536,1.87451 -3.85083,5.4854 -4.83702,10.81295 -0.15967,0.85833 -0.30994,1.64759 -0.40386,2.08169 -1.18343,5.69258 -1.8315,11.82913 -1.9442,18.37018 -0.15028,8.48461 1.27734,23.5596 3.81326,40.29205 1.54972,10.2506 2.77072,19.6922 3.22155,24.86189 l 0.66685,7.77428 c 0.18784,2.20995 0.14088,6.18588 -0.1315,10.60577 -0.12209,2.04222 -0.22541,3.9266 -0.25359,4.94278 -0.0751,2.69337 -0.0657,2.61444 -0.44143,2.7131 -0.44144,0.12826 -0.54475,0.0395 -1.7,-1.42068 -0.88288,-1.10497 -2.62984,-2.97948 -4.621,-4.96251 -1.9442,-1.9337 -3.65359,-3.76875 -4.51768,-4.84412 -0.68564,-0.84846 -1.37127,-1.73639 -2.07569,-2.67364 l -2.80829,-3.75888 c -0.65746,-0.57222 -0.54475,-0.4341 -0.83591,-0.95699 v 0 c -5.26907,-8.21824 -16.58675,-20.0671 -31.11659,-32.56711 -12.7641,-10.9708 -23.19891,-21.44832 -28.22377,-28.34453 -10.66962,-14.60143 -19.91162,-32.84335 -27.7072,-54.66657 -5.15636,-14.41398 -8.17127,-30.12038 -9.15746,-47.73089 -0.77956,-13.91082 -0.78895,-28.01896 -0.009,-42.21589 0.47901,-8.91871 1.47459,-12.92424 3.81327,-15.41043 3.5221,-3.75888 9.63646,-6.49172 18.44641,-8.2281 l 2.38564,-0.4637 c 2.16961,-0.43409 4.4989,-0.82873 6.9221,-1.19376 7.82376,-1.16417 14.41714,-2.81176 18.04255,-4.49882 4.31105,-2.01263 6.57459,-4.72573 6.60277,-7.8828 0.009,-1.08524 -0.0751,-2.17048 -0.21602,-2.78216 -0.2442,-1.09511 -0.64807,-1.74626 -0.9768,-1.56867 -0.75138,0.39463 -2.00995,1.27269 -3.37182,2.3382 -2.01934,1.59826 -3.82266,2.67364 -5.05305,3.03868 -12.43536,3.67009 -21.85581,4.08445 -28.28012,1.23322 l 6.45249,-8.49448 c 1.36188,-1.78571 3.37182,-3.9266 5.77625,-6.14641 5.81381,-5.35714 8.7442,-10.07301 8.87569,-14.24626 0.0657,-2.09155 -0.55414,-3.70955 -1.84088,-4.78493 -0.75139,-0.62154 -1.54034,-1.04577 -2.10387,-1.1247 -0.42265,-0.0493 -0.98619,0.3453 -1.13647,0.809 0,0 0,0 0,0 -1.66243,6.14641 -7.18508,13.44712 -16.32376,21.5963 l -3.5221,3.13734 c -9.28896,8.27743 -16.39891,18.55762 -20.75692,30.01185 -1.09889,2.91042 -1.9442,6.07736 -2.51713,9.48107 -0.89226,5.32755 -1.12707,14.79874 -0.62928,25.5821 l 0.15967,3.44317 c 0.0282,0.59195 -0.0282,0.86819 -0.22542,1.01618 -0.13149,0.10853 -0.28176,0.13812 -0.43204,0.0789 -2.02873,-0.71034 -4.24531,-2.91042 -6.61216,-6.54105 -0.94862,-1.46014 -1.85967,-2.7427 -2.41381,-3.40371 -1.89724,-2.25927 -3.86962,-5.59392 -5.79503,-9.8165 -0.55415,-1.2135 -1.07072,-2.32834 -1.36188,-2.92029 -1.42763,-2.93015 -2.96796,-6.30426 -4.48951,-9.80663 -6.41492,-14.75929 -13.07403,-25.15787 -19.29172,-30.11052 -4.72431,-3.75888 -11.70277,-7.65588 -20.32487,-11.33584 -6.48066,-2.7723 -12.19116,-5.57419 -15.19669,-7.46843 -3.41879,-2.15075 -6.38674,-6.77783 -8.80056,-13.69378 -0.45083,-1.30229 -0.87348,-2.48619 -1.11768,-3.13733 -0.77956,-2.04223 -1.54972,-4.44949 -2.27293,-7.03434 -1.56851,-5.63339 -3.36243,-10.1914 -4.95912,-12.60853 -1.28674,-1.94357 -2.47955,-2.94988 -3.6348,-3.06827 -2.41382,-0.10853 -3.06188,3.16693 -1.36188,6.82715 0.3663,0.7794 0.66685,1.50947 0.79834,1.92384 0.62928,1.9337 1.30553,4.14365 1.96298,6.41279 1.51216,5.20916 3.07128,9.88556 4.11382,12.38162 0.44144,1.07537 0.92044,2.31847 1.37127,3.62076 1.61547,4.56788 3.38122,7.87293 5.1,9.54026 1.14586,1.05564 1.28674,1.27269 1.0989,1.67719 -1.10829,0.91752 -2.98674,1.17403 -5.69172,0.78926 -1.32431,-0.18745 -2.48895,-0.25651 -3.14641,-0.19731 -4.94972,0.49329 -8.69724,1.59826 -11.15801,3.28532 -6.75305,4.63694 -10.91382,14.30545 -12.12542,28.19654 -0.26299,2.95975 -0.16907,5.40648 0.28176,7.33032 0.22542,0.97671 0.94862,2.41712 2.04752,4.04499 v 0 c 0.1221,0.18745 0.2442,0.53275 0.32873,0.97671 0.11271,0.62155 0.29116,1.01618 0.53536,1.2135 0.41326,0.33544 0.98619,0.16772 1.03315,-0.29597 0.0376,-0.4045 0.0845,-0.7794 0.13149,-1.13457 0.44144,-3.25573 1.75635,-9.03711 3.49392,-15.35124 l 0.61989,-2.24941 c 1.47459,-5.37688 3.8884,-9.74744 7.14752,-12.97356 3.68177,-3.6405 10.3221,-4.99212 19.66741,-4.00553 l 1.54973,0.15785 c 16.95304,1.79558 32.78841,13.01303 43.11051,30.53475 4.0105,6.80742 8.91327,17.50198 13.63758,29.72575 5.4663,14.1476 11.12984,26.14445 15.3094,32.41912 1.43702,2.15075 2.25414,4.11405 2.44199,5.8899 0.17845,1.69692 0.33812,3.65036 0.45083,5.66299 0.2442,4.15351 0.64807,7.86306 1.08011,9.89542 1.81271,8.43529 5.15636,19.781 9.42984,31.9061 2.16022,6.14641 4.09503,11.839 5.08122,14.94674 l 3.81326,12.0955 -10.58509,-6.73836 c -11.02652,-7.00474 -26.77736,-15.69654 -44.54753,-24.56592 -3.2873,-1.63773 -6.83758,-3.34451 -10.47239,-5.03157 -23.91271,-11.07933 -39.80443,-22.76047 -46.93317,-34.51068 -11.33647,-18.70561 -19.74255,-35.49726 -24.2978,-48.55962 -1.69061,-4.86385 -3.60663,-10.85241 -5.4663,-17.09748 -2.69558,-9.07657 -5.39116,-17.31454 -7.10995,-21.7147 -1.29613,-3.31492 -2.87403,-7.05407 -4.60221,-10.87214 -4.19834,-9.29362 -7.27901,-17.70917 -8.33094,-22.74074 -2.46078,-11.82914 -2.34807,-25.04935 0.33812,-39.17722 1.18342,-6.2648 2.29171,-15.47949 3.06188,-25.50317 1.15525,-15.12432 3.21215,-28.07816 5.59779,-35.25062 1.72818,-5.19929 4.10442,-11.03986 7.01603,-17.25533 5.80442,-12.36189 9.40166,-23.09591 10.06851,-29.99213 0.65746,-6.82716 0.92983,-12.648 0.76077,-16.1997 -0.74199,-15.736 -0.32873,-30.37689 1.23039,-43.90294 0.98619,-8.53395 2.61105,-15.23285 4.67735,-19.27784 l 1.87846,-3.51223 c 4.59282,-8.62274 6.75304,-15.58802 6.35856,-20.58999 -0.44143,-5.75178 0.19724,-13.54579 1.85028,-22.64208 l 0.58232,-3.196533 c 0.65746,-3.610894 0.91105,-8.711529 0.7326,-14.552101 -0.0939,-2.91042 -0.13149,-5.593926 -0.0939,-7.054069 0.0657,-3.018944 1.07072,-8.089982 2.75194,-13.851627 0.52597,-1.825179 1.00497,-3.512236 1.23978,-4.439624 0.66685,-2.525653 2.32928,-6.876484 4.46133,-11.621949 v 0 c 1.97237,-4.380429 3.55967,-8.425419 4.22652,-10.74389 1.28674,-4.51855 1.90663,-10.319659 1.84088,-17.304667 -0.0376,-4.883587 -0.50718,-8.928577 -1.29613,-11.2470476 -0.33812,-0.9865831 -0.79834,-1.5094721 -1.3337,-1.5094721 h -1.11768 c -0.49779,0 -0.80774,0.3255724 -0.89227,0.8977906 -0.30055,2.2395436 -0.4884,6.3141321 -0.51657,10.8228171 -0.0376,6.985008 -0.63868,12.865043 -1.66243,16.199694 -0.74199,2.43686 -2.39503,6.758094 -4.35802,11.434498 -1.41823,3.393846 -2.6674,6.541046 -3.28729,8.267567 -2.03812,5.672852 -3.63481,11.513424 -4.79006,17.472386 l -0.68564,3.531968 -4.32983,-8.721395 c -2.60166,-5.219024 -7.82376,-11.700875 -15.11216,-18.725347 l -1.93481,-1.854776 c -9.03536,-8.721395 -17.19725,-15.578147 -22.5978,-19.011457 -0.53536,-0.335438 -1.10829,-0.848461 -1.71879,-1.529203 -2.0569,-2.298739 -3.72873,-3.324786 -5.4663,-3.344517 -0.33812,-0.0099 -0.61989,0.01973 -2.35746,0.207182 0.11271,1.677192 0.54475,3.157066 1.28674,4.380429 0.47901,0.799133 1.04254,1.410814 1.68122,1.825179 0.39447,0.266377 0.75138,0.59195 1.08011,0.996449 0.23481,0.286109 0.50718,0.562352 0.92044,0.927388 0.77956,0.680742 1.50277,1.519338 2.17901,2.525653 1.55912,2.338202 2.26354,3.176797 3.12762,3.758881 0.39448,0.256512 0.77956,0.532755 1.15525,0.818864 v 0 c 1.41824,1.085242 4.10443,3.009079 7.03481,5.061172 12.59504,8.780589 20.23095,17.067887 22.78565,24.694175 4.48011,13.407664 6.09558,28.758897 4.79006,45.560412 -0.53536,6.96527 -3.17459,16.61405 -7.59835,27.76244 l -1.0895,2.7427 c -0.7326,1.86465 -1.36188,4.3311 -1.83149,7.24152 -0.38509,2.40727 -0.83592,4.55802 -1.20221,5.72219 -4.96852,15.97278 -6.31161,32.68549 -3.91658,48.80626 0.9674,6.53118 0.59171,13.19062 -1.0895,19.54421 -0.0751,0.28611 -0.14089,0.79914 -0.15967,1.40095 -0.0564,1.56867 -0.50719,2.52565 -1.27735,2.76243 -0.41326,0.12826 -0.89227,0.0789 -1.32431,-0.13812 -0.71381,-0.35517 -1.35249,-1.26282 -1.9442,-2.75256 -0.42265,-1.06551 -0.87348,-1.86465 -1.27735,-2.26915 -1.9442,-1.91397 -3.92597,-5.18942 -5.8326,-9.64878 -1.68122,-3.9266 -3.41879,-7.0442 -4.81823,-8.64247 -3.34365,-3.80821 -6.35857,-8.40568 -9.01658,-13.76283 -2.48895,-5.01184 -6.00166,-14.47317 -9.3641,-25.2072 -4.20773,-13.46686 -8.78177,-24.79283 -12.41658,-30.78139 -0.70442,-1.1543 -1.4558,-2.30861 -2.24475,-3.46291 -3.33425,-4.85399 -10.17183,-12.73679 -18.30553,-21.09314 l -5.87017,-6.02803 c -6.06741,-6.235202 -13.78785,-11.000399 -22.72929,-14.039075 -9.30774,-3.166931 -19.78952,-4.350831 -30.81604,-3.492504 -6.85636,0.532755 -15.38454,1.627862 -24.36355,3.137334 -5.522652,0.927389 -10.613262,1.726521 -13.383982,2.111288 -0.234807,0.0296 -0.49779,0.05919 -0.779558,0.07893 -1.296134,0.09866 -2.160222,0.404499 -2.601659,0.937254 -0.751382,0.89779 -0.338122,2.269141 0.666851,2.219812 0.29116,-0.0099 0.469614,0.01973 0.544752,0.11839 0.150276,0.562352 0.112707,0.424231 0.253591,0.986583 0.460221,1.558801 2.695581,1.588399 6.227075,0.06906 4.404974,-1.884374 9.38288,-2.515787 19.82708,-2.505921 5.31603,0.0099 9.46741,0.177585 13.38399,0.552486 3.6442,0.35517 7.279,0.730072 11.58066,1.203632 6.85636,0.749803 12.01272,1.825178 16.72764,3.472771 6.56519,2.29874 12.84862,6.19574 18.50277,11.48383 2.71436,2.54538 5.2221,4.92305 6.94088,6.57064 7.95526,7.69535 17.02819,19.97831 26.984,36.5529 2.62044,4.37057 4.08563,9.63892 4.51768,16.26876 0.32873,4.96251 0.99558,9.13576 1.83149,11.46409 5.82321,16.21943 11.83426,30.35717 17.69504,41.57462 6.56519,12.57893 8.41547,22.17838 5.60718,29.00554 -0.74199,1.81531 -1.64365,3.84767 -2.61105,5.92936 -2.78011,5.93923 -4.70553,11.24705 -5.27846,14.50278 -1.48397,8.48461 -2.11326,20.69851 -1.78453,34.56 0.3663,15.60775 -0.42265,29.06474 -2.16022,36.6713 l -0.77017,3.39384 c -2.10386,-2.75257 -1.79392,-2.35793 -2.15082,-2.7131 -1.0989,-1.07538 -1.85967,-1.93371 -2.40443,-2.75257 -18.63426,-27.56513 -35.8315,-54.61724 -51.57295,-81.12673 -5.49448,-9.25415 -9.71161,-25.75968 -12.07846,-47.2376 l -0.63867,-5.8603 c -1.23039,-11.12866 -5.89835,-23.44121 -14.01327,-36.87848 -4.40497,-7.31058 -10.92321,-15.78533 -19.06631,-24.78296 l -1.5779,-1.74626 c -0.34751,-0.18745 -0.62928,0.22692 -0.77016,1.13457 0,0 0,0 0,0 v 0 l 0.58232,2.60458 c 0.55414,2.49606 1.29613,4.27191 2.179,5.22889 1.08012,1.15431 2.22597,2.69338 3.40001,4.55802 1.01436,1.61799 1.99116,3.03867 2.59226,3.76875 5.43813,6.58051 9.38288,12.79598 11.77791,18.52803 1.76575,4.22257 3.37182,9.8165 4.68674,16.35754 0.67624,3.35439 1.35249,6.43253 1.77514,8.08999 1.28674,5.04144 2.68619,11.29637 3.99171,17.84728 2.38564,11.95739 5.06244,22.57303 7.14752,28.28534 0.0939,0.25651 0.32873,0.65115 0.65746,1.07538 0.49779,0.65114 0.75138,1.1839 0.77956,1.60813 0.0376,0.71034 -0.47901,1.27269 -1.04254,1.13457 -2.89282,-0.73007 -6.24586,-3.08801 -10.0873,-7.09353 -2.1884,-2.28888 -4.2547,-4.17325 -5.55083,-5.06118 -17.69504,-12.10537 -30.33703,-24.03316 -37.31549,-35.21115 -2.4326,-3.897 -5.137571,-9.20482 -7.767406,-15.21311 -1.32431,-3.02881 -2.573482,-5.80111 -3.287295,-7.28098 -2.216575,-4.61721 -3.728731,-11.03 -4.527074,-19.24824 -0.06575,-0.64128 0.403868,-1.31215 1.380664,-1.97316 0.629282,-0.4341 1.051934,-0.84847 1.220995,-1.20363 0.178453,-0.36504 0.347514,-0.79914 0.516575,-1.30229 0.187845,-0.58209 0.385083,-1.09511 0.525967,-1.37136 0.385083,-0.76953 0.572928,-1.42067 0.563536,-2.01262 -0.02818,-1.57854 -1.746962,-2.4566 -4.395582,-2.22968 -0.403868,0.0296 -0.770166,0.0592 -0.976796,0.0592 l -2.385637,2.45659 c -1.314917,1.35162 -3.512708,0.48343 -5.50387,-2.17048 -0.403867,-0.54262 -0.78895,-1.02604 -1.014365,-1.27269 -0.131491,-0.14799 -0.234806,-0.24665 -0.319337,-0.30584 -1.014365,-0.72021 -2.413813,-0.01 -2.808289,1.41081 -0.262983,0.95699 -0.04696,2.18035 0.648067,3.66023 v 0 c 6.931495,21.21153 15.168516,39.06869 24.682887,53.5024 l 1.7,2.58484 -10.885642,0.93726 c -8.809949,0.75967 -17.33813,-0.57222 -24.936476,-3.90687 -2.52652,-1.10497 -4.846411,-2.27901 -6.959672,-3.53197 -8.706634,-5.1401 -15.788405,-11.67128 -20.888407,-19.26797 -0.479006,-0.7202 -0.94862,-1.47987 -1.427625,-2.279 -1.192819,-2.03236 -2.695582,-2.81176 -3.691162,-1.92384 -1.587294,1.40095 -1.014366,4.08445 1.474586,6.90608 0.253591,0.28611 0.479006,0.55249 0.610497,0.70048 9.044756,10.75375 17.554152,18.824 24.664101,23.37215 4.019891,2.57498 8.791164,4.40016 14.191719,5.41634 5.09061,0.96685 14.144758,1.22336 24.466863,0.69061 l 3.832048,-0.19732 c 1.84088,-0.0987 3.92597,0.8682 6.27403,2.91042 l 2.47017,2.7723 c 5.02486,5.67285 11.16741,10.84255 23.88454,20.0967 l 5.01547,3.27545 c 7.81437,5.12037 15.26244,12.15471 22.28786,21.05369 5.4663,6.92581 14.02266,20.35321 22.80443,35.7735 l 10.77293,18.90293 c 6.90332,12.12511 13.68454,22.54343 18.11769,27.87098 2.60166,3.1176 5.79503,9.17522 8.84752,16.78177 1.3431,3.35439 2.64862,6.40293 3.42818,8.03079 2.34807,4.91318 4.54586,10.41832 6.59337,16.47594 1.8221,5.43607 4.48011,14.70995 7.13813,24.99015 l 0.45083,1.71665 -2.31989,-1.29242 c -2.28233,-1.27269 -6.31161,-3.87727 -10.63205,-6.86662 -3.72873,-2.58485 -7.20387,-4.88359 -9.15747,-6.02802 -0.46022,-0.27624 -0.62928,-0.4045 -0.65746,-0.53276 -0.0376,-0.16772 0.0939,-0.28611 0.33813,-0.33543 0.30055,-0.0296 0.22541,-0.0197 0.51657,-0.0592 0.0563,-0.11839 -0.21602,-0.3749 -0.50718,-0.49329 -0.45083,-0.13812 -1.10829,-0.71034 -1.96299,-1.68706 -0.479,-0.55248 -0.95801,-0.88792 -1.5685,-1.11484 -1.44641,-0.53275 -4.1326,-1.41081 -7.08178,-2.3086 -5.1,-1.54894 -9.5895,-3.2064 -11.98453,-4.42976 -3.08067,-1.5588 -5.63536,-3.41358 -7.6547,-5.5446 -1.73757,-1.83504 -3.58785,-4.36069 -5.4757,-7.48816 -1.74696,-2.90056 -3.44696,-5.37688 -4.55525,-6.63971 l -0.69502,-0.79913 c -5.03426,-5.76164 -8.58454,-12.68746 -10.3315,-20.13616 l -1.64365,-7.03434 c -0.19724,-0.83859 -0.52596,-2.39739 -0.87348,-4.08445 -0.99558,-4.91319 -2.19779,-9.08643 -3.25912,-11.33584 l -0.0751,-0.15785 c -0.82652,-1.76599 -1.69061,-2.81177 -2.61106,-3.14721 -0.18784,-0.0691 -0.46961,-0.25651 -0.77955,-0.53275 -0.79835,-0.70047 -1.59669,-0.7794 -1.8315,-0.17758 -0.2348,0.62154 -0.16906,0.49329 -0.45083,0.85832 0,0 0,0 0,0 v 0 c -0.51657,0.67088 -0.37569,1.74625 0.39448,3.1472 0.61989,1.12471 0.82652,2.00277 0.63867,2.64405 -0.15966,0.52288 -0.15966,0.43409 0.009,0.64127 3.43757,4.16338 5.32541,11.66142 5.66353,22.4645 0.10332,3.38398 0.28177,6.48185 0.46962,8.16891 0.16906,1.53907 -1.8221,1.70679 -3.55967,0.30584 -0.28177,-0.22691 -0.54475,-0.42423 -0.69503,-0.53275 l -2.26354,-1.55881 c -4.18895,-2.87095 -8.08674,-5.33741 -10.3221,-6.53118 -5.29724,-2.82162 -12.29448,-5.97869 -19.93979,-8.98777 -6.94089,-2.73283 -13.23371,-5.43607 -16.57736,-7.1034 -1.72817,-0.86819 -3.42817,-1.99289 -5.08121,-3.37411 -2.60166,-2.16062 -6.461885,-6.62984 -10.491169,-12.14484 -4.611604,-6.31413 -9.007186,-11.17799 -12.153597,-13.43726 -1.90663,-1.37135 -4.245305,-2.75257 -6.969064,-4.11405 -5.522654,-2.76243 -9.448623,-5.60379 -11.317685,-8.19851 -1.643647,-2.26914 -1.981769,-5.0809 -0.873481,-7.26125 0.403868,-0.78927 0.939227,-1.63773 1.587294,-2.54538 1.991161,-2.7723 2.827073,-5.01185 2.52652,-6.76796 -0.244199,-1.44041 -0.826519,-1.88438 -2.479559,-1.90411 -3.033703,-0.0592 -5.231494,2.92029 -6.020445,8.14918 l -0.234806,1.5588 c -0.281768,1.89424 -0.610498,3.59116 -0.873481,4.50868 -0.150277,0.56236 -0.291161,1.08524 -0.366299,1.36149 l -4.048068,-3.56157 c -0.713813,-0.63141 -1.690609,-1.92383 -2.686189,-3.5517 -1.700001,-2.79203 -3.324864,-4.38042 -4.893373,-4.79479 -1.03315,-0.26638 -2.376244,-0.19732 -3.925969,0.21705 -1.127072,0.30584 -2.122653,0.47356 -2.704973,0.47356 -0.253592,0 -0.375691,0.0888 -0.554144,0.3749 -0.216022,0.35517 -0.05635,0.81886 0.394475,1.1543 2.000554,1.39108 3.080665,2.17049 3.794477,2.75257 1.85967,1.49961 5.015472,4.50868 8.35912,7.95186 4.705527,4.84412 9.119894,8.75099 11.937575,10.55644 l 4.649173,2.97948 c 9.317132,5.98856 18.286749,13.85163 26.833715,23.53987 l 0.244199,0.26638 c 0.648066,0.73007 1.004973,1.35162 1.070719,1.85478 0.112707,0.86819 -0.460222,1.58839 -1.15525,1.46014 -2.658012,-0.49329 -7.401108,-1.78572 -12.566856,-3.42344 l -1.9442,-0.61169 c -6.405528,-2.03236 -13.083432,-3.20639 -19.892827,-3.50237 -12.53868,-0.54262 -25.265206,1.91397 -37.259134,7.17246 -0.901658,0.4045 -1.408841,0.68074 -1.85967,1.01618 -0.554143,0.41437 -1.20221,0.73994 -2.179006,1.08524 0.91105,2.30861 2.188399,3.53197 3.616024,3.47278 0.826519,-0.0395 1.230387,-0.0493 1.61547,-0.0493 0.873481,0.01 1.681216,-0.13812 5.466301,-0.94712 6.095583,-1.31216 12.632603,-2.09156 20.954154,-2.50592 8.086744,-0.39464 15.694482,0.16772 23.01106,1.69692 15.628737,2.64404 26.796146,5.41634 37.043109,9.18509 16.02321,5.8899 32.09339,15.41043 55.74312,33.04067 v 0 c 9.80553,7.30071 8.68785,6.51145 9.00719,6.40292 0.31934,-0.13812 0.2442,-0.10852 0.56354,-0.24664 0.32873,-0.01 0.46961,0.32557 0.34751,0.7794 -0.15967,0.45382 -1.73757,1.9337 -2.19779,2.07182 -0.9674,0.21705 -2.07569,0.48343 -2.97735,0.72021 -3.62542,0.91752 -9.79614,3.41357 -16.55857,6.6989 -12.19117,5.91949 -21.96852,8.51421 -28.72156,7.62628 l -3.55028,-0.47356 c -5.39116,-0.71034 -11.11106,-0.14798 -16.92487,1.65746 -3.77569,1.17404 -9.617685,4.45936 -16.117135,9.05684 -9.833706,6.95541 -17.911058,10.30979 -24.354155,10.1322 -5.400555,-0.15785 -12.266305,-3.76874 -20.493933,-10.80308 -6.49945,-5.56433 -12.172381,-8.94831 -17.084538,-10.221 -1.606078,-0.41437 -4.489505,-0.69061 -7.786192,-0.73994 -2.714366,-0.0395 -5.156356,-0.20718 -6.49945,-0.45383 -0.441437,-0.0789 -0.817128,-0.0691 -1.127073,0.0395 -1.051934,0.35517 -1.4276248,1.64759 -0.657459,2.25927 0.112708,0.0987 0.216022,0.14799 0.366299,0.17759 1.333702,0.22691 2.047515,0.39463 2.545305,0.57221 4.311052,1.57854 8.885087,2.90056 13.86299,4.00553 2.075692,0.90766 4.038676,2.0225 5.870168,3.31492 1.474587,1.04578 4.076245,3.1472 6.837573,5.52487 3.484532,2.98934 6.743649,5.53473 8.669065,6.74822 8.03039,5.07104 16.474041,6.60025 23.95968,4.31137 2.986741,-0.70047 3.005526,-0.70047 3.334255,-0.46369 0.262984,0.18745 0.253592,0.50316 -0.01878,0.7202 -0.563536,0.4045 -0.582321,0.41437 -0.732597,0.67088 -0.309945,0.52289 -0.770166,1.2135 -1.211603,1.80545 -7.5326,10.1618 -14.032051,19.61327 -17.469622,25.44398 -4.05746,6.86661 -7.222655,13.49645 -9.514369,19.89938 -0.159668,0.42423 -0.432044,1.23323 -0.713812,2.10142 -1.540333,4.69613 -3.334256,7.71508 -5.391163,9.04697 -0.07514,0.0493 -0.103315,0.0789 -0.187845,0.23678 -0.488398,0.98658 0.225414,2.07182 1.40884,2.15075 1.549724,0.10852 5.071826,-1.88438 5.485085,-3.10774 0,0 0,0 0,0 v 0 c 0.629283,-2.12115 2.207184,-5.69258 4.254699,-9.58959 1.023757,-1.9337 1.934807,-3.74901 2.395028,-4.74546 0.441437,-0.94712 0.976796,-1.97317 1.587294,-3.03868 0.741989,-1.28256 1.380664,-2.48619 1.700001,-3.15706 1.624862,-3.43331 3.747515,-7.22179 6.696688,-11.91793 8.227628,-13.14128 14.924317,-20.56039 22.381779,-24.81256 5.109394,-2.92029 11.665199,-7.98146 18.690617,-14.41398 3.68177,-3.36425 8.71602,-5.06117 13.97569,-4.706 1.23039,0.0888 2.62984,0.21705 4.06686,0.4045 3.30607,0.40449 6.24585,0.56235 7.90829,0.42423 3.08066,-0.26638 2.79889,-0.20719 2.93038,-0.65115 0.31934,-1.07537 0.3757,-1.19376 0.69503,-1.4996 0.28177,-0.25652 0.22542,-0.24665 3.12763,-0.78927 v 0 c 3.38122,-0.64128 9.50498,-2.18035 16.13592,-4.04499 14.86796,-4.20285 27.25636,-5.93923 34.94863,-4.90332 15.82598,2.13102 31.9525,11.63182 47.2619,27.84138 3.70056,3.91673 7.19448,8.46488 10.48178,13.61484 4.06685,6.39306 10.13426,18.60696 16.18288,32.57698 2.50773,5.79124 4.87459,11.12865 6.20829,13.97988 0.91105,1.9633 1.8221,4.09432 2.41381,5.64325 3.46575,9.08643 2.96796,7.95186 5.35359,12.20404 l 1.20222,2.63417 -6.02045,-0.3749 c -16.08896,-1.00631 -30.30885,-0.84846 -38.29228,0.44396 -10.2094,1.6476 -19.0757,5.01185 -26.31714,9.99409 -3.22155,2.20995 -7.0442,5.15983 -10.97957,8.47475 -11.78729,9.93489 -21.621,15.07499 -29.31327,15.3315 -1.36188,0.0493 -2.85525,0.0493 -4.45194,0.0197 v 0 c -2.06629,-0.0493 -5.84199,-0.32557 -9.94641,-0.73007 -12.94255,-1.27269 -22.49448,-0.20718 -28.28012,3.1472 -3.82266,2.22968 -8.021,5.45581 -12.56686,9.67838 v 0.01 c -2.78011,2.58485 -5.39116,4.89345 -6.87514,6.07735 -13.515473,10.79322 -30.947526,13.78257 -46.341456,7.94199 -3.935361,-1.4996 -8.838125,-3.75888 -14.003874,-6.48185 -10.717863,-5.63339 -19.772011,-8.81018 -25.811241,-9.04696 -7.927075,-0.30585 -10.6884025,-0.13813 -13.2243154,0.7794 C 3.9259687,562.4313 2.2729293,563.20084 0,564.4242 c 0.835912,1.14444 2.1414375,1.9337 3.832046,2.28887 0.9580115,0.20719 1.9911612,0.20719 3.202764,0 2.2353602,-0.38476 4.611604,-0.20718 9.101109,0.71034 2.019338,0.4045 4.085638,0.76954 6.198898,1.07538 1.972377,0.29597 4.038676,0.78926 6.198898,1.4996 2.395029,0.76954 6.612158,2.54539 11.167409,4.68627 4.038676,1.90411 7.786191,3.51224 9.880668,4.25218 10.171828,3.62076 23.330397,5.96883 38.865211,6.95541 0.32873,0.0197 0.507183,0.18745 0.61989,0.58208 0.169061,0.68074 0.178453,1.11484 0.0094,1.41082 -0.262984,0.45382 -0.864089,0.94712 -1.765747,1.42068 -0.864089,0.46369 -1.455802,0.93725 -1.728178,1.37135 -1.803316,2.94001 -5.391163,6.16614 -10.556911,9.50079 -3.691162,2.38753 -6.715473,4.7356 -8.227628,6.37333 -0.432045,0.46369 -0.845304,0.86819 -1.540332,1.47001 -3.841439,3.35438 -5.250279,6.86662 -3.832046,9.53039 l 1.90663,3.57143 c 0.41326,0.59195 0.460222,0.69061 0.41326,1.05564 l 0.479006,2.67364 2.996134,1.28256 2.15083,6.02803 c 0.272376,0.89779 0.216022,0.75966 0.422652,0.95698 0.319337,0.29598 1.700001,0.4637 2.066299,0.24665 0.347514,-0.20719 0.272376,0.0789 0.525967,-1.9929 0.253592,-2.11129 -0.441436,-5.19929 -2.038122,-9.0371 -0.741989,-1.79558 -1.343095,-3.45304 -1.606078,-4.40016 -0.82652,-3.07814 -0.281768,-5.38675 1.493371,-6.24507 0.20663,-0.0987 0.544751,-0.23678 2.582874,-1.01618 0,0.11839 0,0.11839 0,0.23678 l 0.319337,1.28255 c 0,0 0,0 0,0 v 0 c 0.554144,1.03592 1.390056,1.94357 3.06188,3.29519 l -0.05635,7.70522 c 0.807735,0.23678 1.305526,0.16771 1.44641,-0.19732 0.244199,-0.62155 0.741989,-1.75612 1.314917,-2.96962 2.225968,-4.7356 2.874035,-8.33662 1.972377,-10.88201 -0.169061,-0.47356 -0.422652,-1.01618 -0.770166,-1.59826 -1.155249,-1.95344 -1.277349,-3.5517 -0.328729,-4.34097 2.789504,-2.32833 5.945306,-4.63694 9.448623,-6.94554 4.048068,-2.66378 9.551938,-7.43884 15.375147,-13.33861 3.83204,-3.87727 7.44807,-7.31058 9.53315,-9.05683 1.36188,-1.14444 2.86464,-2.55525 4.41437,-4.13378 2.93039,-3.00908 5.66354,-5.34728 7.46685,-6.39306 1.3431,-0.7794 2.88343,-1.33189 4.55525,-1.62786 2.66741,-0.48343 7.09117,-0.15786 12.37901,0.91752 2.17901,0.44396 4.19835,0.809 5.29724,0.94712 2.45139,0.32557 5.24089,0.7794 8.10553,1.31215 8.6315,1.618 15.95747,2.14089 20.30609,1.45028 4.04807,-0.64128 8.19006,-2.12115 12.31327,-4.41003 4.7337,-2.63417 12.05028,-8.56354 19.91161,-16.16023 3.53149,-3.41357 6.83757,-6.49171 8.67845,-8.08998 2.921,-2.52565 7.61714,-4.21271 14.11659,-5.06117 l 6.50884,-0.85833 c 14.99945,-1.9633 28.58068,-3.01894 36.14145,-2.82162 9.721,0.25651 18.44642,1.78571 26.13869,4.57774 12.06907,4.37056 28.89062,12.78612 47.21494,23.59907 0.26298,0.15785 0.40387,0.28611 0.4884,0.45383 0.21602,0.47356 -0.0751,0.97671 -0.59172,1.02604 0,0 0,0 0,0 v 0 c -2.03812,0.19732 -4.7337,1.63773 -7.92707,4.23245 -1.14586,0.92738 -2.21658,1.75611 -2.81768,2.17048 -10.20001,6.91595 -19.78952,10.36899 -28.57129,10.27033 -5.21271,-0.0592 -12.42597,-1.04578 -20.45636,-2.8019 l -5.98288,-1.30229 c -1.70939,-0.36503 -3.65359,-0.82873 -5.64475,-1.34175 -6.83757,-1.75612 -12.50111,-2.3974 -15.99504,-1.81531 -2.14143,0.35517 -4.9779,1.01618 -7.99282,1.86464 -2.59226,0.73007 -4.98729,1.34175 -6.30221,1.60813 -0.30055,0.0493 -0.8453,0.11839 -1.44641,0.16772 -1.46519,0.11839 -2.7989,0.66101 -3.54089,1.44041 -0.74198,0.78927 -0.79834,1.70679 -0.15027,2.44673 0.25359,0.29597 0.53536,0.44396 2.81768,1.45027 1.34309,0.60182 2.39503,1.01618 3.4,1.36149 2.01934,0.68074 4.31105,0.57222 7.46686,-0.36504 4.57403,-1.35162 8.48121,-2.03236 10.86685,-1.88437 1.81271,0.10852 4.15138,0.54262 6.75304,1.23323 l 0.42266,0.11839 c 21.17017,5.69258 38.47073,6.68903 51.76079,2.97948 5.44752,-1.51934 12.0315,-4.68627 19.47018,-9.38241 3.53149,-2.22968 6.82818,-4.20284 8.65967,-5.18942 2.19779,-1.19377 2.62044,-1.40095 2.93039,-1.49961 1.69061,-0.52289 4.09503,-0.01 7.21326,1.53907 1.39945,0.70047 2.6768,1.24309 3.42818,1.45028 7.55139,2.18034 15.33758,5.85043 23.31161,11.01026 6.1989,4.0154 16.70885,12.33229 27.91383,22.09946 l 16.83095,14.6705 c 13.39337,11.68114 25.39669,22.73087 31.63316,29.12393 3.01492,3.088 6.0768,7.92226 9.08233,14.34492 2.48895,5.31768 5.00608,9.74744 6.82818,12.02644 l 1.9442,1.76599 -1.91603,0.33544 h 0.009 c -1.5685,0.26637 -3.07127,0.47356 -4.50828,0.61168 v 0 c -5.05305,0.48342 -13.4873,-0.58209 -23.3304,-2.94002 -9.16686,-2.20995 -17.15968,-3.32478 -21.8746,-3.05841 -1.47458,0.0789 -2.82707,0.10853 -3.56906,0.0789 -3.2873,-0.15785 -6.74365,-0.93725 -10.28454,-2.3382 -3.7569,-1.47988 -9.92763,-5.06117 -16.6431,-9.64878 l -1.41823,-0.97672 c -15.92929,-10.89188 -30.29007,-17.92622 -42.63151,-20.8761 -0.79835,-0.19732 -2.16962,-0.72021 -3.67238,-1.41081 -3.09006,-1.41082 -5.47569,-1.89424 -7.12873,-1.43055 -0.78895,0.21705 -1.23039,1.11484 -0.99558,2.01263 0.19723,0.7794 0.85469,1.38122 1.70939,1.5884 2.21658,0.54262 5.16575,2.46646 8.53757,5.59392 1.54033,1.42068 3.00553,2.62432 4.34862,3.54184 1.42763,0.97672 3.8884,1.47987 7.26023,1.47987 2.36685,-0.01 4.35801,0.20718 5.48508,0.59195 2.35746,0.809 4.99669,2.3382 7.92708,4.60735 1.4558,1.1247 2.80829,2.12115 3.56906,2.62431 2.90221,1.89424 6.36796,5.17956 10.07791,9.52052 3.38121,3.9562 6.58398,7.14287 8.67845,8.64247 l 2.47017,1.77585 c 0.64807,0.4637 0.57293,1.49961 -0.14088,2.10142 -0.42266,0.34531 -1.17404,0.55249 -2.22597,0.60182 -0.60111,0.0296 -1.13647,0.10852 -1.42763,0.19732 -1.18342,0.36503 -2.52652,0.81886 -3.89779,1.32202 -2.56409,0.92738 -4.92155,1.60813 -6.98785,2.00276 l -10.8105,2.05209 c -10.85746,2.07183 -20.75691,4.24231 -26.09172,5.74192 -3.94476,1.10497 -8.1431,1.29242 -12.29448,0.53275 -6.60277,-1.19376 -12.91438,-6.76796 -18.45581,-16.29835 -3.25912,-5.61366 -6.65912,-14.15747 -9.71161,-24.40807 -1.20221,-4.04499 -2.36685,-7.76441 -3.0431,-9.7573 -1.70939,-5.00198 -5.67293,-10.31966 -11.93757,-15.98265 -2.25415,-2.04223 -6.64034,-4.55801 -12.10664,-6.96528 v 0 c -8.17127,-3.58129 -13.49669,-7.4487 -15.83536,-11.49369 -0.46023,-0.7794 -0.95802,-1.68706 -1.45581,-2.63418 -1.26795,-2.40726 -2.52652,-4.46922 -3.36243,-5.53473 l -0.39447,-0.49329 c -0.65746,-0.82873 -1.72818,-0.96685 -2.31989,-0.29597 -0.23481,0.26637 -0.35691,0.61168 -0.38509,1.10497 v 0 c 0.0282,0.52289 0,1.47001 -0.0751,2.50592 -0.17845,2.41713 0.047,4.17325 0.66686,5.22889 4.70552,7.97159 9.78674,13.3682 15.20608,16.17996 1.53094,0.78927 3.31547,1.62787 5.20332,2.43686 5.10939,2.20008 9.1105,4.52842 11.16741,6.49172 2.31049,2.20008 4.99668,5.85044 7.73923,10.48738 3.62541,6.14641 6.5558,15.29204 8.66906,27.05211 0.0845,0.48342 0.0751,0.87806 -0.0188,1.00631 -0.15028,0.21705 -0.42266,0.0395 -0.76078,-0.51302 -1.48398,-2.41713 -3.98232,-5.10064 -7.36354,-7.8828 l -2.10386,-1.73639 c -7.74863,-6.38319 -14.37957,-10.15194 -19.30112,-10.96093 -1.54033,-0.25652 -4.22652,-1.04578 -7.17569,-2.12116 v 0 c -5.21271,-1.89424 -9.41106,-2.64404 -12.16299,-2.16062 -0.96741,0.16772 -2.07569,0.42424 -3.24034,0.75967 -1.39005,0.38477 -2.6674,0.66101 -3.78508,0.81887 -1.84088,0.25651 -4.9779,0.0296 -8.6221,-0.62155 -4.78067,-0.85833 -8.53758,-0.88792 -10.86686,-0.0987 -0.62928,0.20718 -1.0989,0.53276 -1.35249,0.92739 -0.34751,0.60182 -0.2348,1.00631 0.31934,1.09511 0.84531,0.12825 0.98619,0.14798 1.08011,0.16772 0.40387,0.0789 1.14586,0.16772 1.96299,0.23678 3.17458,0.29597 5.12818,1.22336 5.87956,2.78216 0.46961,1.13457 0.45083,1.10497 0.76077,1.11484 0.6105,0.0197 1.42763,0.14799 2.41381,0.36504 7.37294,1.64759 15.42211,2.46645 24.13814,2.44672 0.54475,0 1.02375,-0.01 1.40884,-0.0197 4.95912,-0.21705 10.97017,2.64404 18.14586,8.6326 2.13205,1.78572 4.1326,3.36425 5.25967,4.17325 8.86631,6.2944 16.03261,18.0742 21.51769,35.31967 0.1221,0.38477 0.44144,0.97672 0.87348,1.62787 1.13647,1.74625 1.27735,3.22612 0.3757,3.9266 -1.53094,1.19376 -4.17017,3.5517 -6.98785,6.24507 -3.1652,3.01894 -6.16133,5.52486 -8.90387,7.42897 v 0 c -6.86575,4.77506 -15.53482,7.30071 -25.2746,7.35991 -8.23702,0.0493 -20.33427,-2.427 -34.3851,-7.01461 -2.04752,-0.68074 -4.18895,-1.42068 -6.39614,-2.22968 -3.73812,-1.36148 -10.54752,-4.14364 -17.88288,-7.31058 -11.421,-4.92305 -21.94973,-8.90884 -27.92322,-10.57617 -7.68287,-2.14088 -14.85857,-3.19653 -21.4989,-3.1768 -2.70498,0 -5.5884,0.0987 -8.57514,0.27625 -3.0431,0.18745 -5.8326,0.32557 -7.35415,0.3749 -1.11768,0.0296 -2.39503,0.0296 -3.71934,-0.01 -6.03923,-0.17758 -10.27514,0.74981 -12.68896,2.76244 -3.09945,2.58484 -7.49503,3.22612 -11.81547,1.72652 -1.53094,-0.53276 -3.10884,-1.20363 -4.71492,-1.9929 -2.49834,-1.23323 -6.82818,-3.88714 -11.47735,-7.02447 -4.82763,-3.25573 -9.326527,-5.98856 -11.946971,-7.25139 -3.362432,-1.60813 -6.583981,-2.65391 -9.645861,-3.12747 -4.799449,-0.73007 -10.519342,-1.25296 -16.671278,-1.53907 l -4.977903,-0.21704 c -2.686189,-0.12826 -7.485639,-0.8682 -12.754702,-1.98304 -6.067407,-1.27269 -11.533708,-2.05209 -14.633157,-2.08169 -0.760773,-0.01 -1.155249,0.65115 -0.91105,1.53907 0.32873,0.99645 1.220995,1.74625 2.817681,2.35794 1.042542,0.39463 2.911604,1.22336 4.930942,2.18034 3.522101,1.66733 6.715473,2.88083 8.612711,3.29519 4.667958,1.00632 9.091717,1.5588 13.261885,1.67719 1.136464,0.0296 3.249725,0.0296 5.522654,-0.01 7.908291,-0.10853 14.163543,0.73007 17.807744,2.40726 7.588954,3.50237 15.976245,8.60301 24.936475,15.18351 0.6105,0.44397 1.24917,0.96686 1.90663,1.55881 1.84089,1.62786 3.49392,2.78216 4.63978,3.20639 1.8221,0.68074 1.55912,0.56235 1.8221,0.86819 0.56354,0.71034 0.59171,1.47001 0.0564,1.6772 -0.52597,0.18745 -0.80774,0.32557 -1.29614,0.59195 -6.1989,3.41357 -11.9094,5.3966 -17.11271,5.93923 -3.79448,0.39463 -8.734813,0.44396 -14.182329,0.12825 -9.908845,-0.56235 -17.807743,0.18745 -22.804431,2.16062 -1.164641,0.46369 -2.385636,0.99645 -3.653593,1.60813 -3.362432,1.59826 -6.386743,2.72297 -8.640888,3.20639 -0.788951,0.16772 -2.141437,0.16772 -3.728731,-0.01 -2.207183,-0.23678 -3.879007,-0.10853 -4.902765,0.39463 -0.676243,0.33544 -1.11768,0.52289 -1.493371,0.63141 -0.234806,0.0691 -0.629282,0.0789 -1.11768,0.0197 -1.023757,-0.12826 -1.690608,0.12825 -1.850277,0.6906 0.03757,0.21705 0.216022,0.58209 0.460221,0.94712 0.911051,1.36149 1.916023,2.44673 2.930389,3.15707 1.624862,1.14444 4.245305,1.23323 7.917683,0.25651 8.819341,-2.31847 16.92487,-3.56156 24.279017,-3.70955 l 6.302213,-0.12826 c 8.969617,-0.18745 17.150282,-0.6906 21.592822,-1.34175 l 1.65304,-0.23678 c 10.30332,-1.48974 18.67184,-5.07104 24.72046,-10.58604 3.71934,-3.38398 8.59392,-5.76164 14.34199,-6.985 h 0.009 c 4.50829,-0.95699 12.46354,-1.2135 21.63979,-0.68075 l 1.27734,0.0691 c 16.71824,0.96686 31.4735,4.7652 43.95583,11.32598 2.26353,1.1839 3.95414,2.37766 4.90276,3.44317 0.31934,0.35517 0.55414,0.92739 0.76077,1.84491 l -1.80331,1.19377 c -3.55028,2.35793 -7.11934,4.94278 -10.72597,7.78414 -7.2884,5.75178 -16.22984,8.58327 -25.21825,7.98146 -11.24254,-0.74981 -22.13758,-4.05486 -31.91493,-9.66852 -0.55414,-0.32557 -1.17403,-0.70047 -1.81271,-1.10497 -3.18398,-2.01263 -5.75746,-2.94002 -7.6453,-2.75257 -0.77017,0.0691 -1.5873,0.14799 -2.84586,0.25651 -1.55912,0.14799 -2.14144,1.48974 -1.04254,2.41713 0.81712,0.70048 1.74696,1.31216 2.79889,1.85478 2.42321,1.23323 3.2779,1.86464 3.74752,2.75257 0.62928,1.17403 0.66685,1.31215 0.479,1.80544 -0.46022,1.17404 0.95801,1.9633 2.80829,1.5884 0.96741,-0.19732 1.67183,-0.17758 2.12265,0.0493 9.94642,5.10064 19.00057,8.93844 24.38234,10.33939 v 0 c 6.88453,1.80545 13.34641,2.15075 19.1978,1.04578 6.62155,-1.26283 15.0558,-4.87372 24.76741,-10.61563 l 0.6105,-0.36504 c 0.61989,-0.3749 1.31492,-0.88793 2.04751,-1.5292 1.99116,-1.73639 3.61603,-2.4566 4.92155,-2.18035 2.39503,0.56235 5.87017,-0.24665 10.34089,-2.40727 3.14641,-1.51933 8.10553,0.22692 12.81106,4.51856 2.34806,2.15075 5.36298,3.59116 11.19558,5.35714 6.81879,2.07183 14.02266,2.7723 21.39559,2.08169 5.84199,-0.54262 10.95139,-1.77585 15.51603,-3.73915 4.88398,-2.10142 9.73979,-5.26835 16.54918,-10.79322 l 6.53702,-5.30781 c 7.06299,-5.73205 13.44973,-10.34926 17.44145,-12.5888 2.88342,-1.618 5.71989,-2.94989 8.51878,-3.9858 4.19835,-1.56867 8.94145,-2.81176 14.20112,-3.73915 4.08563,-0.73007 11.61823,-1.59827 19.87404,-2.28887 8.94144,-0.75967 17.07515,-1.76599 21.48012,-2.66378 l 5.84199,-1.1839 z"
   id="path3"
   style="stroke-width:0.962614" />
 </g>
</svg>
