<?xml version="1.0" encoding="UTF-8" standalone="no"?>
<svg
   height="77"
   id="Layer_1"
   version="1.1"
   viewBox="0 0 340 77"
   width="340"
   x="0px"
   xml:space="preserve"
   y="0px"
   sodipodi:docname="karus-logo.svg"
   inkscape:version="1.2.2 (732a01da63, 2022-12-09)"
   xmlns:inkscape="http://www.inkscape.org/namespaces/inkscape"
   xmlns:sodipodi="http://sodipodi.sourceforge.net/DTD/sodipodi-0.dtd"
   xmlns="http://www.w3.org/2000/svg"
   xmlns:svg="http://www.w3.org/2000/svg"><defs
   id="defs105">







</defs><sodipodi:namedview
   id="namedview103"
   pagecolor="#ffffff"
   bordercolor="#000000"
   borderopacity="0.25"
   inkscape:showpageshadow="2"
   inkscape:pageopacity="0.0"
   inkscape:pagecheckerboard="0"
   inkscape:deskcolor="#d1d1d1"
   showgrid="false"
   inkscape:zoom="2.5164683"
   inkscape:cx="134.31523"
   inkscape:cy="17.484822"
   inkscape:window-width="1920"
   inkscape:window-height="1009"
   inkscape:window-x="1072"
   inkscape:window-y="-8"
   inkscape:window-maximized="1"
   inkscape:current-layer="Layer_1" />
<style
   type="text/css"
   id="style2">
	.st0{fill:#C10053;}
	.st1{fill:#AF0529;}
	.st2{fill:#D64410;}
	.st3{fill:#C80214;}
	.st4{fill:#C90045;}
	.st5{fill:#1D1D1B;}
</style>
<g
   id="g494"
   transform="matrix(1.0016752,0,0,0.99870298,-0.60099826,1.21e-7)"><path
     class="st0"
     d="M 339.7,4.2 320.6,33 c 8.4,3.5 13.9,11.5 13.9,20.8 0,12.5 -10.2,22.6 -22.7,22.6 h -33.7 c -0.6,0 -1.2,-0.4 -1.5,-0.9 -0.3,-0.6 -0.3,-1.3 0.1,-1.8 L 295.9,44.9 C 287.5,41.4 282,33.4 282,24.1 282,11.6 292.2,1.5 304.7,1.5 h 33.7 c 0.6,0 1.2,0.4 1.5,0.9 0.2,0.6 0.2,1.3 -0.2,1.8"
     id="path4" /><path
     class="st1"
     d="m 262.4,1.5 h -54.1 c -1,0 -1.8,0.8 -1.8,1.8 v 43.4 c 0,16.8 13,30.4 28.9,30.4 15.9,0 28.8,-13.7 28.8,-30.4 V 3.3 c 0,-1 -0.8,-1.8 -1.8,-1.8"
     id="path6" /><path
     class="st2"
     d="M 170.1,44.6 C 180.5,43 188.4,34 188.4,23.3 c 0,-12 -9.8,-21.7 -21.7,-21.7 h -26.5 c -1,0 -1.8,0.8 -1.8,1.8 v 71.4 c 0,1 0.8,1.8 1.8,1.8 h 51.9 c 0.7,0 1.3,-0.4 1.6,-1 0.3,-0.6 0.2,-1.3 -0.2,-1.9 z"
     id="path8" /><path
     class="st3"
     d="M 96.2,1.1 C 96,0.4 95.3,0 94.6,0 V 0 C 93.9,0 93.3,0.4 93,1.1 L 62.5,74 c -0.2,0.5 -0.2,1.2 0.2,1.6 0.3,0.5 0.9,0.8 1.5,0.8 h 61 c 0.6,0 1.1,-0.3 1.5,-0.8 0.3,-0.5 0.4,-1.1 0.2,-1.6 z"
     id="path10" /><path
     class="st4"
     d="M 28.1,38.9 51.7,4.2 C 52.1,3.7 52.1,3 51.8,2.4 51.5,1.8 50.9,1.5 50.2,1.5 H 2.4 c -1,0 -1.8,0.8 -1.8,1.8 v 71.4 c 0,1 0.8,1.8 1.8,1.8 h 52 c 0.7,0 1.3,-0.4 1.6,-1 0.3,-0.6 0.2,-1.3 -0.2,-1.9 z"
     id="path12" /></g>
</svg>
