<svg height="143px" id="Layer_1" style="enable-background:new 0 0 340 143;" version="1.1" viewBox="0 0 340 143" width="340px" x="0px" xml:space="preserve" xmlns="http://www.w3.org/2000/svg" xmlns:xlink="http://www.w3.org/1999/xlink" y="0px">
<style type="text/css">
	.st0{fill:#C10053;}
	.st1{fill:#AF0529;}
	.st2{fill:#D64410;}
	.st3{fill:#C80214;}
	.st4{fill:#C90045;}
	.st5{fill:#1D1D1B;}
</style>
<g>
<path class="st0" d="M339.7,4.2L320.6,33c8.4,3.5,13.9,11.5,13.9,20.8c0,12.5-10.2,22.6-22.7,22.6h-33.7c-0.6,0-1.2-0.4-1.5-0.9
		c-0.3-0.6-0.3-1.3,0.1-1.8l19.2-28.8c-8.4-3.5-13.9-11.5-13.9-20.8c0-12.5,10.2-22.6,22.7-22.6h33.7c0.6,0,1.2,0.4,1.5,0.9
		C340.1,3,340.1,3.7,339.7,4.2"></path>
<path class="st1" d="M262.4,1.5h-54.1c-1,0-1.8,0.8-1.8,1.8v43.4c0,16.8,13,30.4,28.9,30.4c15.9,0,28.8-13.7,28.8-30.4V3.3
		C264.2,2.3,263.4,1.5,262.4,1.5"></path>
<path class="st2" d="M170.1,44.6c10.4-1.6,18.3-10.6,18.3-21.3c0-12-9.8-21.7-21.7-21.7h-26.5c-1,0-1.8,0.8-1.8,1.8v71.4
		c0,1,0.8,1.8,1.8,1.8h51.9c0.7,0,1.3-0.4,1.6-1c0.3-0.6,0.2-1.3-0.2-1.9L170.1,44.6z"></path>
<path class="st3" d="M96.2,1.1C96,0.4,95.3,0,94.6,0h0c-0.7,0-1.3,0.4-1.6,1.1L62.5,74c-0.2,0.5-0.2,1.2,0.2,1.6
		c0.3,0.5,0.9,0.8,1.5,0.8h61c0.6,0,1.1-0.3,1.5-0.8c0.3-0.5,0.4-1.1,0.2-1.6L96.2,1.1z"></path>
<path class="st4" d="M28.1,38.9L51.7,4.2c0.4-0.5,0.4-1.2,0.1-1.8c-0.3-0.6-0.9-0.9-1.6-0.9H2.4c-1,0-1.8,0.8-1.8,1.8v71.4
		c0,1,0.8,1.8,1.8,1.8h52c0.7,0,1.3-0.4,1.6-1c0.3-0.6,0.2-1.3-0.2-1.9L28.1,38.9z"></path>
<g>
<path class="st5" d="M3.7,102.9H0v-1.2h8.7v1.2H5v14.9H3.7V102.9z"></path>
<path class="st5" d="M19.7,109.6c0,5.3-1.2,8.4-4.6,8.4c-3.3,0-4.5-2.9-4.5-8.4c0-5.4,1.5-8.2,4.6-8.2
			C18.5,101.4,19.7,104.2,19.7,109.6z M12,109.6c0,4.9,1,7.2,3.2,7.2c2.2,0,3.2-2.3,3.2-7.2c0-5.1-1.1-7-3.2-7
			C13.1,102.7,12,104.9,12,109.6z"></path>
<path class="st5" d="M32,109.6c0,5.3-1.2,8.4-4.6,8.4c-3.3,0-4.5-2.9-4.5-8.4c0-5.4,1.5-8.2,4.6-8.2C30.7,101.4,32,104.2,32,109.6
			z M24.3,109.6c0,4.9,1,7.2,3.2,7.2c2.2,0,3.2-2.3,3.2-7.2c0-5.1-1.1-7-3.2-7C25.4,102.7,24.3,104.9,24.3,109.6z"></path>
<path class="st5" d="M35.7,117.8v-16.2h1.8c4.9,12,5.5,13.5,5.7,14.1h0c-0.1-2.3-0.1-4.7-0.1-7.3v-6.8h1.3v16.2h-1.7
			c-5.1-12.6-5.6-14-5.8-14.6h0c0.1,2,0.1,4.8,0.1,7.7v6.9H35.7z"></path>
<path class="st5" d="M50.1,112.3l-1.3,5.5h-1.4l3.9-16.2h1.8l4.1,16.2h-1.5l-1.3-5.5H50.1z M54.2,111.1c-1.1-4.3-1.7-6.9-1.9-8.1
			h0c-0.2,1.4-0.9,4.4-1.8,8.1H54.2z"></path>
<path class="st5" d="M62.4,112.3l-1.3,5.5h-1.4l3.9-16.2h1.8l4.1,16.2h-1.5l-1.3-5.5H62.4z M66.4,111.1c-1.1-4.3-1.7-6.9-1.9-8.1
			h0c-0.2,1.4-0.9,4.4-1.8,8.1H66.4z"></path>
<path class="st5" d="M72.6,117.8v-16.2h1.8c4.9,12,5.5,13.5,5.7,14.1h0c-0.1-2.3-0.1-4.7-0.1-7.3v-6.8h1.3v16.2h-1.7
			c-5.1-12.6-5.6-14-5.8-14.6h0c0.1,2,0.1,4.8,0.1,7.7v6.9H72.6z"></path>
<path class="st5" d="M93.8,117.8h-1.1c0-0.4-0.1-1-0.1-1.9c-0.5,1.1-1.1,2.1-3.3,2.1c-3.5,0-4.4-3.8-4.4-8.3
			c0-5.4,1.6-8.3,4.8-8.3c3.7,0,3.9,3.3,4,4.3h-1.4c0-0.5-0.2-3.1-2.6-3.1c-2.4,0-3.4,2.8-3.4,7c0,4.1,0.7,7.1,3.1,7.1
			c2.4,0,2.9-2,2.9-5.8v-0.8h-3v-1.2h4.4V117.8z"></path>
<path class="st5" d="M104.5,109.9h-5.5v6.7h6.1l-0.2,1.2h-7.2v-16.2h7.1v1.2h-5.8v5.7h5.5V109.9z"></path>
<path class="st5" d="M111.4,117.8l-4-16.2h1.5l1.9,8c0.6,2.3,1.2,5.3,1.5,6.8h0c0.2-1.3,1.1-4.4,1.6-6.8l2-8h1.4l-4.2,16.2H111.4z
			"></path>
<path class="st5" d="M127.1,109.9h-5.5v6.7h6.1l-0.2,1.2h-7.2v-16.2h7.1v1.2h-5.8v5.7h5.5V109.9z"></path>
<path class="st5" d="M130.9,117.8v-16.2h1.8c4.9,12,5.5,13.5,5.7,14.1h0c-0.1-2.3-0.1-4.7-0.1-7.3v-6.8h1.3v16.2h-1.7
			c-5.1-12.6-5.6-14-5.8-14.6h0c0.1,2,0.1,4.8,0.1,7.7v6.9H130.9z"></path>
<path class="st5" d="M143.7,101.7h3.4c3.6,0,5.3,2.6,5.3,7.6c0,5.5-1.5,8.5-5.5,8.5h-3.1V101.7z M145.1,116.6h1.6
			c3.2,0,4.2-2.6,4.2-7.3c0-4.5-1.3-6.5-4.2-6.5h-1.7V116.6z"></path>
<path class="st5" d="M163.4,101.7v16.2h-1.4v-16.2H163.4z"></path>
<path class="st5" d="M167.6,117.8v-16.2h1.8c4.9,12,5.5,13.5,5.7,14.1h0c-0.1-2.3-0.1-4.7-0.1-7.3v-6.8h1.3v16.2h-1.7
			c-5.1-12.6-5.6-14-5.8-14.6h0c0.1,2,0.1,4.8,0.1,7.7v6.9H167.6z"></path>
</g>
<g>
<path class="st5" d="M9.9,142.5H8.8c0-0.4-0.1-1-0.1-1.9c-0.5,1.1-1.1,2.1-3.3,2.1c-3.5,0-4.4-3.8-4.4-8.3c0-5.4,1.6-8.3,4.8-8.3
			c3.7,0,3.9,3.3,4,4.3H8.6c0-0.5-0.2-3.1-2.6-3.1c-2.4,0-3.4,2.8-3.4,7c0,4.1,0.7,7.1,3.1,7.1s2.9-2,2.9-5.8v-0.8h-3v-1.2h4.4
			V142.5z"></path>
<path class="st5" d="M20.7,134.5h-5.5v6.7h6.1l-0.2,1.2h-7.2v-16.2H21v1.2h-5.8v5.7h5.5V134.5z"></path>
<path class="st5" d="M31.2,134.5h-5.5v6.7h6.1l-0.2,1.2h-7.2v-16.2h7.1v1.2h-5.8v5.7h5.5V134.5z"></path>
<path class="st5" d="M35.5,138.4c0.1,1.8,1,3.2,2.9,3.2c1.8,0,2.8-1,2.8-3c0-1.9-0.7-2.8-2.9-3.9c-2.4-1.2-3.6-2.3-3.6-4.6
			c0-2.1,1.3-3.9,3.9-3.9c2.9,0,3.8,2.2,3.8,4H41c-0.1-0.7-0.3-2.8-2.5-2.8c-1.7,0-2.4,1.2-2.4,2.6c0,1.7,0.8,2.5,2.8,3.5
			c2.8,1.4,3.7,2.7,3.7,5c0,2.6-1.4,4.4-4.2,4.4c-3.1,0-4.1-2-4.2-4.4H35.5z"></path>
<path class="st5" d="M48.3,127.6h-3.7v-1.2h8.7v1.2h-3.7v14.9h-1.4V127.6z"></path>
<path class="st5" d="M63,134.5h-5.5v6.7h6.1l-0.2,1.2h-7.2v-16.2h7.1v1.2h-5.8v5.7H63V134.5z"></path>
<path class="st5" d="M66.7,126.3h1.4v14.9H74l-0.2,1.2h-7V126.3z"></path>
<path class="st5" d="M78.2,126.3v16.2h-1.4v-16.2H78.2z"></path>
<path class="st5" d="M85.2,138.8c0,2-0.2,3.9-2.9,3.9c-0.4,0-0.9,0-1.2-0.1v-1.2c0.3,0,0.6,0.1,1,0.1c1.4,0,1.7-0.9,1.7-2.6v-12.6
			h1.4V138.8z"></path>
<path class="st5" d="M89.3,126.3h1.4v8.3c1.3-1.7,4.1-5.8,5.9-8.3h1.5l-4.8,6.6l4.9,9.5h-1.6l-4.3-8.4l-1.7,2.3v6.1h-1.4V126.3z"></path>
<path class="st5" d="M107.8,134.5h-5.5v6.7h6.1l-0.2,1.2H101v-16.2h7.1v1.2h-5.8v5.7h5.5V134.5z"></path>
<path class="st5" d="M125.7,142.5h-1.1c0-0.4-0.1-1-0.1-1.9c-0.5,1.1-1.1,2.1-3.3,2.1c-3.5,0-4.4-3.8-4.4-8.3
			c0-5.4,1.6-8.3,4.8-8.3c3.7,0,3.9,3.3,4,4.3h-1.4c0-0.5-0.2-3.1-2.6-3.1c-2.4,0-3.4,2.8-3.4,7c0,4.1,0.7,7.1,3.1,7.1
			s2.9-2,2.9-5.8v-0.8h-3v-1.2h4.4V142.5z"></path>
<path class="st5" d="M136.4,134.5H131v6.7h6.1l-0.2,1.2h-7.2v-16.2h7.1v1.2H131v5.7h5.5V134.5z"></path>
<path class="st5" d="M139.5,141.5l7.1-13.9H140v-1.2h8.1v1.1l-7,13.8h7.1l-0.2,1.2h-8.5V141.5z"></path>
<path class="st5" d="M159.5,134.3c0,5.4-1.2,8.4-4.6,8.4c-3.3,0-4.5-2.9-4.5-8.4c0-5.4,1.5-8.2,4.6-8.2
			C158.2,126.1,159.5,128.8,159.5,134.3z M151.7,134.3c0,4.9,1,7.2,3.2,7.2c2.2,0,3.2-2.3,3.2-7.2c0-5.1-1.1-7-3.2-7
			C152.8,127.3,151.7,129.6,151.7,134.3z"></path>
<path class="st5" d="M163.2,142.5v-16.2h1.8c4.9,12,5.5,13.5,5.7,14.1h0c-0.1-2.3-0.1-4.7-0.1-7.3v-6.8h1.3v16.2h-1.7
			c-5.1-12.6-5.6-14-5.8-14.6h0c0.1,2,0.1,4.8,0.1,7.7v6.9H163.2z"></path>
<path class="st5" d="M176,126.3h3.4c3.6,0,5.3,2.6,5.3,7.6c0,5.5-1.5,8.5-5.5,8.5H176V126.3z M177.4,141.3h1.6
			c3.2,0,4.2-2.6,4.2-7.3c0-4.5-1.3-6.5-4.2-6.5h-1.7V141.3z"></path>
<path class="st5" d="M188.3,126.3h1.4v7h5.7v-7h1.4v16.2h-1.4v-7.9h-5.7v7.9h-1.4V126.3z"></path>
<path class="st5" d="M207.8,134.5h-5.5v6.7h6.1l-0.2,1.2h-7.2v-16.2h7.1v1.2h-5.8v5.7h5.5V134.5z"></path>
<path class="st5" d="M212.9,126.3v16.2h-1.4v-16.2H212.9z"></path>
<path class="st5" d="M217,126.3h3.4c3.6,0,5.3,2.6,5.3,7.6c0,5.5-1.5,8.5-5.5,8.5H217V126.3z M218.4,141.3h1.6
			c3.2,0,4.2-2.6,4.2-7.3c0-4.5-1.3-6.5-4.2-6.5h-1.7V141.3z"></path>
<path class="st5" d="M229.8,138.4c0.1,1.8,1,3.2,2.9,3.2c1.8,0,2.8-1,2.8-3c0-1.9-0.7-2.8-2.9-3.9c-2.4-1.2-3.6-2.3-3.6-4.6
			c0-2.1,1.3-3.9,3.9-3.9c2.9,0,3.8,2.2,3.8,4h-1.4c-0.1-0.7-0.3-2.8-2.5-2.8c-1.7,0-2.4,1.2-2.4,2.6c0,1.7,0.8,2.5,2.8,3.5
			c2.8,1.4,3.7,2.7,3.7,5c0,2.6-1.4,4.4-4.2,4.4c-3.1,0-4.1-2-4.2-4.4H229.8z"></path>
<path class="st5" d="M239.2,141.5l7.1-13.9h-6.5v-1.2h8.1v1.1l-7,13.8h7.1l-0.2,1.2h-8.5V141.5z"></path>
<path class="st5" d="M259.2,134.3c0,5.4-1.2,8.4-4.6,8.4c-3.3,0-4.5-2.9-4.5-8.4c0-5.4,1.5-8.2,4.6-8.2
			C257.9,126.1,259.2,128.8,259.2,134.3z M251.4,134.3c0,4.9,1,7.2,3.2,7.2c2.2,0,3.2-2.3,3.2-7.2c0-5.1-1.1-7-3.2-7
			C252.5,127.3,251.4,129.6,251.4,134.3z"></path>
<path class="st5" d="M264.2,134.8v7.7h-1.4v-16.2h4c2.6,0,3.9,1.5,3.9,4.1c0,2.4-1.1,3.5-2.2,3.8c1.6,0.5,2,1.9,2,4.2v0.6
			c0,1.4,0,2.6,0.2,3.5h-1.4c-0.2-0.7-0.2-2.2-0.2-3.5v-0.5c0-2.4-0.5-3.6-2.8-3.6H264.2z M264.2,133.7h2.3c2.1,0,2.8-1.3,2.8-3.2
			c0-1.7-0.8-2.9-2.7-2.9h-2.4V133.7z"></path>
<path class="st5" d="M282.7,142.5h-1.1c0-0.4-0.1-1-0.1-1.9c-0.5,1.1-1.1,2.1-3.3,2.1c-3.5,0-4.4-3.8-4.4-8.3
			c0-5.4,1.6-8.3,4.8-8.3c3.7,0,3.9,3.3,4,4.3h-1.4c0-0.5-0.2-3.1-2.6-3.1c-2.4,0-3.4,2.8-3.4,7c0,4.1,0.7,7.1,3.1,7.1
			s2.9-2,2.9-5.8v-0.8h-3v-1.2h4.4V142.5z"></path>
</g>
</g>
</svg>