<?xml version="1.0" encoding="UTF-8" standalone="no"?>
<!-- Created with Inkscape (http://www.inkscape.org/) -->

<svg
   width="300"
   height="300"
   viewBox="0 0 79.374999 79.375"
   version="1.1"
   id="svg5"
   xml:space="preserve"
   inkscape:export-filename="bitmap.svg"
   inkscape:export-xdpi="96"
   inkscape:export-ydpi="96"
   xmlns:inkscape="http://www.inkscape.org/namespaces/inkscape"
   xmlns:sodipodi="http://sodipodi.sourceforge.net/DTD/sodipodi-0.dtd"
   xmlns="http://www.w3.org/2000/svg"
   xmlns:svg="http://www.w3.org/2000/svg"><sodipodi:namedview
     id="namedview7"
     pagecolor="#ffffff"
     bordercolor="#000000"
     borderopacity="0.25"
     inkscape:showpageshadow="2"
     inkscape:pageopacity="0.0"
     inkscape:pagecheckerboard="0"
     inkscape:deskcolor="#d1d1d1"
     inkscape:document-units="mm"
     showgrid="false"
     showguides="true" /><defs
     id="defs2" /><g
     inkscape:label="Layer 1"
     inkscape:groupmode="layer"
     id="layer1"><path
       id="path1785"
       style="fill:#d64410;stroke:none;"
       d="m 54.449645,70.670285 c 0.35447,-0.248282 0.27095,-0.555059 -0.24049,-0.883272 -0.52772,-0.338669 -0.92351,-0.741645 -1.34664,-1.371105 -0.16709,-0.248573 -0.33921,-0.451953 -0.38249,-0.451953 -0.0433,0 -0.2188,-0.02802 -0.39005,-0.06227 l -0.31137,-0.06227 0.0477,0.422902 c 0.10122,0.897985 0.8195,1.817671 1.802,2.30727 0.58816,0.293092 0.55288,0.288769 0.82138,0.100705 z m -1.58246,-3.883633 c 0.10784,-0.215956 0.38189,-0.58532 0.609,-0.820815 0.5323,-0.551955 0.66313,-0.877556 0.43543,-1.083627 -0.0917,-0.08301 -0.30394,-0.198742 -0.47161,-0.257188 -0.26966,-0.094 -0.34099,-0.07869 -0.61808,0.132656 -0.36973,0.282007 -0.87407,1.191366 -0.96275,1.735908 -0.0497,0.305051 -0.027,0.41611 0.10891,0.534688 0.40498,0.353203 0.6326,0.292032 0.8991,-0.241622 z m 2.640538,-10.430919 c -0.0384,0 -0.260864,0.353232 -0.494543,0.784965 -0.91813,1.696293 -1.070542,1.951314 -1.576132,2.640666 -0.287869,0.392486 -0.923621,1.175657 -1.41335,1.740462 -1.853748,2.137945 -2.690792,3.962438 -2.690792,5.866309 0,2.039335 0.990952,3.948033 2.612761,5.032768 1.418748,0.948919 3.22384,1.268066 4.601269,0.81287 1.455679,-0.481058 2.766249,-1.384982 3.449919,-2.378666 0.763629,-1.109905 1.133797,-2.743109 0.958597,-4.228683 -0.196769,-1.668381 -0.737511,-2.926131 -1.92288,-4.471562 -1.498648,-1.953856 -2.672748,-3.859967 -3.234427,-5.251875 -0.12143,-0.300908 -0.252002,-0.547254 -0.290422,-0.547254 z m -0.06511,3.010669 0.314192,0.634587 c 0.37995,0.768391 0.933701,1.600126 1.659331,2.491837 1.031989,1.268189 1.76159,2.493159 2.01228,3.378089 0.06672,0.235489 0.124124,0.922622 0.127124,1.527038 0.0057,1.082722 6.87e-4,1.109233 -0.347782,1.807642 -0.63317,1.268998 -1.519799,2.068807 -2.790528,2.517159 -1.458808,0.514711 -3.05319,0.106314 -4.226098,-1.082621 -1.173679,-1.189684 -1.600212,-2.828265 -1.189592,-4.570264 0.21138,-0.896757 0.609833,-1.564854 1.775602,-2.977596 1.409929,-1.70864 2.138392,-2.685045 2.425692,-3.251998 z M 21.488611,0 C 16.733186,0 12.905155,3.8285443 12.905155,8.5839722 V 70.791028 c 0,4.755428 3.828031,8.583972 8.583456,8.583972 h 36.397778 c 4.755425,0 8.583456,-3.828544 8.583456,-8.583972 V 8.5839722 C 66.469845,3.8285443 62.641814,0 57.886389,0 Z m 18.280538,4.6446777 c 0.09544,-0.00776 0.193492,0.010428 0.30334,0.052193 0.50641,0.1925368 0.500596,0.1408128 0.503846,4.1491008 l 0.0026,3.7279385 c -0.293669,0.264075 -0.795078,0.405652 -1.119311,0.295589 -0.11851,-0.04761 -0.257455,-0.197673 -0.309025,-0.333313 -0.0556,-0.146179 -0.09405,-1.709431 -0.09405,-3.8390426 V 5.1040812 L 39.270988,4.9113281 C 39.45855,4.7424977 39.610085,4.6576041 39.769149,4.6446777 Z M 21.068998,4.7635335 a 3.420106,3.420106 0 0 1 3.419946,3.4199463 3.420106,3.420106 0 0 1 -3.419946,3.4204632 3.420106,3.420106 0 0 1 -3.419946,-3.4204632 3.420106,3.420106 0 0 1 3.419946,-3.4199463 z m 37.449394,0 A 3.420106,3.420106 0 0 1 61.938338,8.1834798 3.420106,3.420106 0 0 1 58.518392,11.603943 3.420106,3.420106 0 0 1 55.098446,8.1834798 3.420106,3.420106 0 0 1 58.518392,4.7635335 Z M 34.405135,5.8296183 c 0.202687,0.00801 0.40676,0.081167 0.5271,0.2165243 0.10467,0.1177459 0.525287,1.1346825 0.934826,2.2598104 0.40954,1.1251278 0.909664,2.464243 1.111044,2.975529 0.422409,1.072457 0.471712,1.632793 0.172082,1.954403 -0.20598,0.221096 -0.597102,0.268114 -0.876432,0.10542 -0.26528,-0.154514 -0.482724,-0.670591 -1.740462,-4.1315312 -0.22822,-0.6279784 -0.527259,-1.441321 -0.664559,-1.8076416 -0.26643,-0.7107913 -0.261186,-1.0881741 0.0186,-1.3973308 0.11411,-0.1260868 0.315111,-0.1831979 0.517798,-0.1751831 z m 10.713558,0.019637 c 0.0645,-0.00148 0.134211,0.00531 0.21084,0.01757 0.694719,0.1111598 0.858316,0.7568086 0.425297,1.6779337 -0.13531,0.2878237 -0.43587,1.0370363 -0.66766,1.6650147 -0.231799,0.6279783 -0.524152,1.4199443 -0.649572,1.7600993 -0.12542,0.340155 -0.294448,0.856622 -0.375688,1.147734 -0.0812,0.29111 -0.24658,0.676922 -0.367419,0.856795 -0.18236,0.271445 -0.28619,0.331611 -0.611849,0.355534 -0.31925,0.02345 -0.420763,-0.01141 -0.544153,-0.187586 -0.24007,-0.342744 -0.180435,-0.844937 0.237195,-2.000394 0.213819,-0.591561 0.682537,-1.9319991 1.041796,-2.9786301 0.645846,-1.8815544 0.8497,-2.3036917 1.301213,-2.3140706 z M 58.518392,5.97948 a 2.2038831,2.2038831 0 0 0 -2.204,2.2039998 2.2038831,2.2038831 0 0 0 2.204,2.2040002 2.2038831,2.2038831 0 0 0 2.204,-2.2040002 2.2038831,2.2038831 0 0 0 -2.204,-2.2039998 z M 29.817301,8.5090413 c 0.122666,-0.00276 0.254287,0.026952 0.387057,0.093534 0.14439,0.07241 0.790825,0.7949653 1.436605,1.6061037 0.645769,0.811139 1.544988,1.905983 1.998327,2.43241 0.45333,0.526426 0.872733,1.047908 0.932243,1.159102 0.28352,0.529755 -0.07944,1.166337 -0.665075,1.166337 -0.23967,0 -0.385411,-0.08817 -0.670761,-0.404626 -0.200549,-0.222409 -0.910225,-1.067339 -1.577164,-1.877405 -0.66694,-0.810067 -1.45251,-1.730292 -1.74563,-2.045353 -0.65127,-0.7000078 -0.751375,-0.8829837 -0.751375,-1.3689092 0,-0.4548873 0.287778,-0.7529172 0.655773,-0.7611935 z m 20.078878,0.075964 c 0.427609,-0.020205 0.806669,0.2683386 0.806669,0.7105509 0,0.3069067 -0.09022,0.4401353 -0.765844,1.1301638 -0.84102,0.858886 -1.875509,2.074309 -2.720248,3.196704 -0.896009,1.19052 -1.055004,1.344104 -1.395263,1.344104 -0.19895,0 -0.387458,-0.08464 -0.548287,-0.245463 -0.39575,-0.395752 -0.277775,-0.852957 0.411344,-1.593184 0.30571,-0.328392 1.236195,-1.430041 2.067574,-2.447913 0.831389,-1.0178711 1.601977,-1.9027285 1.712557,-1.9662884 0.141105,-0.081104 0.288962,-0.1219395 0.431498,-0.1286743 z M 26.792163,12.20649 c 0.244004,-0.0085 0.508802,0.0791 0.740007,0.264583 0.778949,0.624909 3.435631,2.586357 4.062801,2.999301 0.902969,0.594533 1.117371,1.092536 0.699182,1.62419 -0.1943,0.247011 -0.572559,0.319866 -0.944129,0.182418 -0.0785,-0.02904 -0.314152,-0.189905 -0.523482,-0.357601 -0.942009,-0.754666 -2.930395,-2.23676 -3.710884,-2.76624 -0.72591,-0.49245 -0.877399,-0.641299 -0.995289,-0.976168 -0.130109,-0.369591 -0.126685,-0.412118 0.05684,-0.658874 0.147739,-0.198644 0.370946,-0.303136 0.614949,-0.311609 z m 26.199951,5.17e-4 c 0.54954,0 0.812944,0.209636 0.812354,0.647506 -5.3e-4,0.489988 -0.224526,0.714044 -1.665015,1.667081 -0.680309,0.450099 -1.729314,1.208831 -2.331124,1.686202 -0.601819,0.477373 -1.158127,0.901908 -1.236617,0.943612 -0.294409,0.156414 -0.720008,0.189971 -0.944128,0.07441 -0.1267,-0.06532 -0.268793,-0.234653 -0.315743,-0.376204 -0.16554,-0.499033 0.104407,-0.804149 1.706356,-1.930632 0.818619,-0.575646 1.960356,-1.421571 2.536796,-1.879472 0.932009,-0.740359 1.090752,-0.832507 1.437121,-0.832507 z m 2.355412,4.199743 c 0.20621,-0.0017 0.359008,0.07168 0.507463,0.220142 0.361879,0.361876 0.263595,1.052717 -0.181385,1.274858 -0.236769,0.118197 -1.458537,0.569801 -3.343465,1.2361 -0.732639,0.25898 -1.665295,0.603875 -2.072225,0.766361 -0.896839,0.358108 -1.291121,0.376657 -1.574581,0.07493 -0.283939,-0.302236 -0.277,-0.822269 0.01447,-1.096057 0.12163,-0.114267 0.710011,-0.373464 1.30793,-0.576192 1.305399,-0.442595 3.721624,-1.335912 4.512903,-1.668632 0.363095,-0.152676 0.62268,-0.22981 0.82889,-0.231511 z M 24.46569,16.45791 c 0.20142,0.0078 0.644803,0.12981 0.984953,0.271301 0.701809,0.291925 3.145453,1.163972 4.418852,1.576648 1.347448,0.436677 1.728958,0.993361 1.106909,1.615406 -0.36079,0.360795 -0.595663,0.351181 -1.719792,-0.07028 C 28.759453,19.664594 27.73183,19.301751 26.973031,19.044316 24.867463,18.329972 24.048276,18.005672 23.881746,17.821651 23.395967,17.28488 23.761601,16.430724 24.46569,16.45791 Z m 4.732011,5.11545 c 1.785358,0.0032 1.773047,0.127222 1.905827,0.650606 0.11742,0.462863 -0.09906,0.787325 -0.61805,0.927076 -0.34793,0.09369 -6.7434,0.107138 -7.38818,0.0155 -0.27958,-0.03974 -0.596346,-0.453071 -0.596346,-0.777731 0,-0.142295 0.09906,-0.365482 0.220142,-0.496093 l 0.220141,-0.237195 3.799768,-0.05581 c 1.066624,-0.01553 1.861579,-0.02743 2.456698,-0.02635 z m 25.350391,0.04496 c 1.423257,0.0059 2.0789,0.03516 2.18798,0.09353 0.446849,0.239147 0.525478,0.80401 0.169498,1.218014 l -0.229443,0.26665 -3.814754,0.02791 -3.814238,0.02791 -0.243396,-0.242879 c -0.197229,-0.197231 -0.23764,-0.318388 -0.21394,-0.641821 0.0534,-0.729488 0.04367,-0.727799 4.271057,-0.747758 0.653277,-0.0031 1.212817,-0.0035 1.687236,-0.0016 z m -6.324162,3.148128 c 0.2433,0 0.478441,0.115782 0.91984,0.452169 0.968339,0.737976 1.310183,0.955884 2.757972,1.758032 2.351147,1.302664 2.664436,1.575737 2.664436,2.324406 0,0.775723 -0.574919,0.906369 -1.506368,0.342098 -0.323939,-0.196243 -0.865751,-0.562128 -1.20406,-0.81287 -0.73105,-0.541821 -2.729495,-1.783058 -3.493844,-2.169894 -0.723269,-0.366044 -0.932243,-0.603649 -0.932243,-1.059883 0,-0.48332 0.334187,-0.834058 0.794267,-0.834058 z m -16.664616,0.05529 c 0.390003,0.008 0.68988,0.298879 0.68988,0.800984 0,0.504382 -0.126153,0.612657 -1.612821,1.379761 -1.220719,0.629871 -2.618338,1.505652 -3.689697,2.312521 -0.57342,0.431855 -0.936962,0.580593 -1.258322,0.51418 -0.346889,-0.07169 -0.522965,-0.313558 -0.522965,-0.717786 0,-0.623254 0.591179,-1.10717 2.579687,-2.110465 1.613149,-0.813908 2.327826,-1.250962 3.060796,-1.872237 0.253162,-0.214584 0.51944,-0.311761 0.753442,-0.306958 z m 2.149223,2.799312 c 0.444439,0 0.729154,0.289233 0.729154,0.740523 0,0.356958 -0.07559,0.460447 -1.23455,1.687236 -0.679119,0.718862 -1.6559,1.805036 -2.17041,2.413289 -0.514509,0.608256 -1.022433,1.180694 -1.128613,1.272274 -0.27046,0.233262 -0.615569,0.207122 -0.889868,-0.06718 -0.17832,-0.178317 -0.233578,-0.334058 -0.233578,-0.658875 0,-0.379435 0.04911,-0.475398 0.452169,-0.886251 0.24858,-0.253355 1.158113,-1.229421 2.021582,-2.169376 2.230528,-2.428097 2.129224,-2.331641 2.454114,-2.331641 z m 12.281421,0.0016 c 0.246899,-0.0011 0.399789,0.08056 0.666109,0.356568 0.466379,0.483366 1.902765,2.072916 2.299084,2.54403 0.17609,0.209326 0.696963,0.770969 1.157552,1.247986 0.78126,0.809135 0.837675,0.893982 0.837675,1.265039 0,0.637765 -0.548825,1.031666 -1.117244,0.802019 -0.065,-0.02624 -0.578503,-0.589886 -1.141532,-1.25212 -0.56303,-0.662234 -1.547828,-1.780381 -2.188497,-2.48512 -1.219709,-1.341685 -1.39752,-1.664582 -1.16117,-2.113049 0.15862,-0.301001 0.269833,-0.363632 0.648023,-0.365353 z m -2.718181,1.749248 c 0.276795,-0.0061 0.545214,0.151681 0.675928,0.459403 0.14606,0.343841 0.696854,1.76789 1.390613,3.594096 0.2485,0.654144 0.585245,1.467487 0.748275,1.807642 0.367649,0.767089 0.370883,0.987215 0.0186,1.339453 -0.320974,0.32097 -0.819716,0.375684 -1.076937,0.118855 -0.0875,-0.08747 -0.394669,-0.76186 -0.682129,-1.498616 -1.343408,-3.443166 -1.863969,-4.853918 -1.863969,-5.049821 0,-0.116974 0.08483,-0.320681 0.188619,-0.452686 0.165117,-0.209909 0.385713,-0.313559 0.600997,-0.318326 z m -6.694165,0.05684 c 0.14828,0 0.365372,0.07753 0.482141,0.172082 0.36082,0.292178 0.274016,0.755166 -0.457853,2.444812 -0.362679,0.837304 -0.905171,2.164718 -1.205611,2.949691 -0.30044,0.784972 -0.612468,1.502121 -0.693498,1.593701 -0.203529,0.230027 -0.891538,0.225098 -1.102258,-0.0078 -0.25331,-0.279905 -0.199067,-0.927559 0.136943,-1.633492 0.161909,-0.340155 0.697192,-1.624816 1.189591,-2.854606 0.941739,-2.352025 1.135186,-2.664437 1.650545,-2.664437 z m 3.243213,0.536918 c 0.267792,0.0069 0.566143,0.138631 0.665076,0.323494 0.0587,0.109603 0.09302,3.16651 0.09302,8.256861 v 8.08271 l -0.21394,0.05736 c -0.24322,0.06518 -0.693465,0.0606 -0.975134,-0.0098 -0.10466,-0.02614 -0.222,-0.09618 -0.260449,-0.155546 -0.0384,-0.05936 -0.07051,-3.631035 -0.07131,-7.936984 -0.002,-8.501706 -0.009,-8.382246 0.513664,-8.580871 0.074,-0.02814 0.159816,-0.0395 0.24908,-0.03721 z m -15.809888,12.11864 c 1.577817,-0.0017 4.071307,0.660489 5.626014,1.494482 0.444817,0.238616 1.472444,0.871587 2.283581,1.406116 2.061764,1.35868 2.500925,1.581859 4.281909,2.179195 1.974934,0.662395 3.104431,0.813179 4.804875,0.640788 2.306024,-0.233794 5.006215,-1.399071 7.611939,-3.284554 1.387544,-1.004022 3.426419,-1.880967 5.235856,-2.251542 0.892607,-0.182809 1.22208,-0.20418 2.418457,-0.15813 2.334211,0.08985 4.189166,0.723769 5.73505,1.95957 1.079227,0.862789 1.036407,0.778555 1.005107,1.970939 L 62.986855,47.074689 62.606,46.732074 c -0.885397,-0.796848 -3.046877,-1.951441 -4.148584,-2.215885 -2.092074,-0.502167 -4.566281,-0.318757 -6.603215,0.489892 -1.569294,0.623003 -2.177478,0.94204 -3.663342,1.921847 -0.811137,0.534881 -1.84973,1.160188 -2.30787,1.389579 -0.892527,0.446892 -2.432418,0.977224 -3.590995,1.2361 -0.646587,0.144477 -3.413699,0.284651 -3.805969,0.192754 -0.07849,-0.01839 -0.463789,-0.08528 -0.856279,-0.148312 -0.883777,-0.141936 -2.714347,-0.732514 -3.500044,-1.12913 -0.5961,-0.300913 -1.877956,-1.076364 -3.3507,-2.027266 -2.038234,-1.316016 -4.745163,-2.173627 -6.844027,-2.167827 -0.987127,0.0027 -3.091168,0.322544 -3.697965,0.561723 -0.969917,0.382308 -2.2623,1.135839 -3.349667,1.953886 l -0.333313,0.250631 -0.05684,-1.027328 c -0.038,-0.685242 -0.02226,-1.071903 0.04754,-1.162203 0.168937,-0.21855 1.655314,-1.151855 2.531111,-1.58905 1.300117,-0.649015 3.508295,-1.175589 4.935099,-1.177189 z m 31.949988,4.008541 c 0.195255,0.0012 0.394517,0.0059 0.592212,0.01395 2.035744,0.08266 3.472879,0.532446 4.755266,1.488282 0.671247,0.500316 1.925644,1.719208 1.770434,1.720308 -0.05081,3.71e-4 -0.327649,-0.25004 -0.615466,-0.556555 -0.30647,-0.326429 -0.405416,-0.402676 -0.238229,-0.184485 0.15699,0.20488 0.424993,0.512019 0.595313,0.682646 0.28568,0.286181 0.304897,0.344035 0.249597,0.747241 l -0.05943,0.437183 -0.440283,-0.329179 c -1.587614,-1.186355 -2.70581,-1.726843 -4.339787,-2.098063 -0.928227,-0.210873 -1.211424,-0.233645 -2.475301,-0.200505 -2.005944,0.05259 -3.13786,0.342782 -4.961454,1.271757 -0.740317,0.377135 -1.832079,0.998628 -2.426209,1.381311 -1.948314,1.254934 -3.455496,1.917114 -5.50509,2.419491 -0.725757,0.177877 -3.899367,0.270559 -4.820894,0.140559 -0.84679,-0.119457 -2.46238,-0.521535 -3.175517,-0.790132 -0.980827,-0.369425 -2.29128,-1.060812 -3.579627,-1.888774 -1.582554,-1.01704 -3.44107,-1.903657 -4.694287,-2.239656 -0.924447,-0.24787 -1.123183,-0.267316 -2.66392,-0.259416 -1.485054,0.0076 -1.768297,0.03562 -2.616894,0.261483 -1.106867,0.294595 -2.18699,0.79028 -3.300057,1.514119 -0.43511,0.282956 -0.948813,0.609367 -1.141533,0.725021 l -0.350366,0.209806 -0.06615,-0.43925 c -0.08533,-0.569013 -0.0058,-0.699719 0.921908,-1.51567 1.452644,-1.277707 2.343877,-1.761707 4.171321,-2.264461 0.59844,-0.164639 1.006745,-0.198139 2.476852,-0.204639 1.570224,-0.0069 1.842219,0.01589 2.519226,0.211874 1.880874,0.544483 2.869446,1.035034 5.171777,2.564701 0.950137,0.631272 2.501534,1.338172 4.059701,1.850016 3.123041,1.025898 4.748794,1.081248 7.665165,0.26045 1.916674,-0.53944 3.555274,-1.329473 5.510258,-2.656686 1.379577,-0.936577 4.004658,-1.983493 5.510775,-2.197798 0.365345,-0.052 0.914921,-0.07856 1.500683,-0.07493 z M 24.165967,49.567 c 2.056614,-0.01675 3.620145,0.542065 6.470406,2.312521 1.797704,1.116661 1.886205,1.167932 2.759005,1.600936 2.106761,1.045188 4.985289,1.547732 7.707023,1.345654 2.813801,-0.208915 4.769773,-0.863033 7.374227,-2.466516 2.755851,-1.696704 3.32261,-1.962749 5.280814,-2.480986 0.891407,-0.235903 1.224929,-0.276973 2.251026,-0.277502 1.894184,-9.55e-4 3.013479,0.282776 4.814693,1.221631 0.677847,0.353319 1.181031,0.702674 1.646411,1.142049 l 0.670243,0.632519 -0.06666,0.694532 -0.06718,0.694014 -0.24753,-0.232027 c -0.630327,-0.590619 -2.44299,-1.547403 -3.724837,-1.966288 -1.667564,-0.544939 -3.88364,-0.60067 -5.597074,-0.14056 -1.276547,0.342794 -3.241558,1.281099 -5.207435,2.48667 -0.936637,0.574389 -1.895646,1.154523 -2.131136,1.28881 -0.675027,0.384928 -2.58056,0.921388 -3.800284,1.070219 -2.167364,0.264455 -3.522813,0.243134 -5.238957,-0.08217 -1.930154,-0.365863 -3.222322,-0.868803 -4.882906,-1.900659 -2.042064,-1.268904 -2.618585,-1.603506 -3.395142,-1.970422 -1.223077,-0.5779 -2.56599,-1.015708 -3.494877,-1.139982 -1.546874,-0.206955 -3.494056,0.02007 -5.023983,0.586527 -1.294554,0.479319 -2.774566,1.251149 -3.422013,1.784387 l -0.285771,0.235128 -0.06408,-0.418579 c -0.124,-0.80714 -0.139214,-0.779777 0.849043,-1.535307 1.274897,-0.974675 1.517911,-1.115689 2.878378,-1.666565 1.421674,-0.575659 2.536739,-0.806558 3.948596,-0.818038 z m -0.06873,3.644739 c 1.12293,-0.01825 2.170672,0.245675 3.7021,0.839742 0.894567,0.347017 2.370675,1.165329 3.645772,2.021582 1.024537,0.688001 2.933539,1.522521 4.138766,1.808675 2.551611,0.605842 6.125984,0.608282 8.474418,0.0062 1.986064,-0.509172 3.368198,-1.128249 5.654952,-2.533178 2.271651,-1.39565 4.490393,-2.135754 6.407877,-2.137854 0.789977,-8.7e-4 2.278324,0.290989 3.144511,0.617016 1.387077,0.522097 2.276739,1.078908 3.223576,2.017448 l 0.645955,0.640271 -0.02687,6.996989 -0.02636,6.996989 -0.222209,0.615466 c -0.739007,2.047962 -2.501898,3.708021 -4.724259,4.449341 l -0.762745,0.254765 -17.697627,0.0155 c -9.733653,0.0086 -17.80451,-0.0026 -17.93534,-0.02481 -1.605014,-0.271968 -3.855121,-1.956629 -4.614188,-3.454569 -0.34913,-0.688989 -0.607883,-1.732083 -0.719853,-2.902149 -0.0666,-0.69569 -0.07787,-3.035456 -0.03307,-6.973217 l 0.0677,-5.926254 0.564824,-0.522965 c 1.362754,-1.261676 2.757649,-1.97142 4.868953,-2.477885 0.848498,-0.20354 1.549363,-0.316164 2.22312,-0.327112 z" /></g></svg>
