<?xml version="1.0" encoding="UTF-8" standalone="no"?>
<!-- Created with Inkscape (http://www.inkscape.org/) -->

<svg
   width="300"
   height="300"
   viewBox="0 0 79.374999 79.375"
   version="1.1"
   id="svg5"
   xml:space="preserve"
   inkscape:export-filename="card-flitskaart.svg"
   inkscape:export-xdpi="96"
   inkscape:export-ydpi="96"
   xmlns:inkscape="http://www.inkscape.org/namespaces/inkscape"
   xmlns:sodipodi="http://sodipodi.sourceforge.net/DTD/sodipodi-0.dtd"
   xmlns="http://www.w3.org/2000/svg"
   xmlns:svg="http://www.w3.org/2000/svg"><sodipodi:namedview
     id="namedview7"
     pagecolor="#ffffff"
     bordercolor="#000000"
     borderopacity="0.25"
     inkscape:showpageshadow="2"
     inkscape:pageopacity="0.0"
     inkscape:pagecheckerboard="0"
     inkscape:deskcolor="#d1d1d1"
     inkscape:document-units="mm"
     showgrid="false"
     showguides="true" /><defs
     id="defs2" /><g
     inkscape:label="Layer 1"
     inkscape:groupmode="layer"
     id="layer1"><path
       style="fill:#d64410;stroke:none;"
       d="M 10.304715,67.404366 9.2735969,66.415682 9.2563938,64.077321 9.2391907,61.738959 9.7252658,61.273016 c 0.2673421,-0.256271 0.6491242,-0.563283 0.8484072,-0.68225 l 0.362333,-0.216296 5.923683,-0.03411 c 3.258025,-0.01878 6.223649,-0.0083 6.590274,0.02328 0.559161,0.04816 0.727377,0.103765 1.043774,0.345094 0.207454,0.158232 0.469645,0.424885 0.582647,0.592567 0.200739,0.297883 0.205454,0.361034 0.205454,2.75194 v 2.447063 l -0.386124,0.419304 c -0.21237,0.230616 -0.582714,0.61011 -0.822983,0.843322 l -0.436852,0.42402 -5.877452,0.05605 c -3.2326,0.03082 -6.000105,0.0772 -6.150013,0.103044 -0.246828,0.04257 -0.36991,-0.04634 -1.30368,-0.941682 z m 2.848187,-0.857197 c 0.257481,-0.147228 0.361311,-0.265966 0.3562,-0.407345 -0.0045,-0.123983 0.04712,-0.199857 0.136281,-0.200372 0.311606,-0.0019 2.032889,-0.487 3.368784,-0.949604 3.366392,-1.165738 4.092448,-1.436306 4.929009,-1.836823 1.00497,-0.481145 1.248054,-0.684885 1.098042,-0.920334 -0.08533,-0.133914 -0.248395,-0.149972 -1.268128,-0.124871 -1.820601,0.04481 -2.937588,0.233817 -3.850389,0.651532 -1.488445,0.681141 -3.179866,1.122559 -3.179866,0.829866 0,-0.151558 0.239538,-0.276326 1.502721,-0.782732 0.697567,-0.279651 1.329633,-0.569435 1.404586,-0.643964 0.242354,-0.240979 -0.05463,-0.323656 -0.953961,-0.265582 -0.449725,0.02904 -1.855495,0.08942 -3.123934,0.13419 -1.268441,0.04477 -2.336426,0.114736 -2.373301,0.15549 -0.03688,0.04076 -0.09164,0.856959 -0.121702,1.813787 -0.06235,1.98449 -0.0625,1.984 0.746946,2.497331 0.494122,0.313366 0.84435,0.326395 1.328712,0.04942 z m 16.392021,1.764548 C 29.15562,68.185375 27.526489,67.320829 27.235167,67.085975 l -0.272559,-0.219724 -0.05102,-2.5299 c -0.05879,-2.91465 -0.149851,-2.584994 0.959677,-3.473922 l 0.636101,-0.509626 h 9.094041 9.094043 l 0.536286,0.453194 c 0.294956,0.249259 0.586089,0.515003 0.64696,0.590547 0.08088,0.100377 0.111457,0.81636 0.113566,2.659429 l 0.003,2.52208 -0.822988,0.826131 -0.822988,0.826129 -1.97075,-0.06186 c -1.86089,-0.05841 -13.083912,0.08097 -14.11817,0.175346 -0.264659,0.02415 -0.586556,0.0097 -0.715332,-0.03208 z m 3.66853,-1.837528 c 0.389398,-0.10053 0.516868,-0.301143 0.317821,-0.500191 -0.07364,-0.07364 -0.559621,-0.256237 -1.079948,-0.405763 -0.520331,-0.149526 -1.130031,-0.362065 -1.354892,-0.472315 -0.403805,-0.197981 -0.409167,-0.206608 -0.435413,-0.700216 -0.01625,-0.305854 0.01897,-0.56123 0.09086,-0.658181 0.111477,-0.150388 0.154241,-0.14967 0.844253,0.01416 1.836398,0.436008 2.827694,0.584025 3.952119,0.590121 l 1.135665,0.0061 1.268267,-0.525899 c 1.521304,-0.630824 2.097245,-0.93481 2.328769,-1.229147 0.195717,-0.248811 0.231852,-0.646245 0.05982,-0.657806 -0.06246,-0.0043 -2.627934,-0.0015 -5.701048,0.0056 -5.111506,0.01208 -5.600646,0.02629 -5.742062,0.166624 -0.134754,0.133728 -0.156768,0.401791 -0.171607,2.089599 -0.0094,1.064905 0.01932,1.972034 0.06373,2.015842 0.04442,0.04381 0.464736,0.217953 0.934045,0.386985 l 0.853292,0.307329 1.145482,-0.171859 c 0.630014,-0.09452 1.300901,-0.211981 1.490861,-0.261022 z m 8.655627,-1.138097 c 0.246258,-0.08245 0.713486,-0.322122 1.038287,-0.532589 0.576054,-0.373275 1.795777,-1.560394 2.313542,-2.251698 0.373004,-0.498027 0.254122,-0.568963 -0.738748,-0.440795 -1.125042,0.145228 -1.602702,0.406367 -2.666283,1.45768 -0.961267,0.95018 -1.132613,1.289716 -0.860467,1.705065 0.164996,0.251817 0.316853,0.262178 0.913669,0.06234 z m 8.783783,2.093662 -0.886071,-0.827289 -0.0458,-2.261726 c -0.02886,-1.425567 -0.01208,-2.331005 0.04542,-2.449127 0.05018,-0.103066 0.410508,-0.48125 0.800737,-0.840393 l 0.709509,-0.65299 6.013639,-0.02272 c 3.307498,-0.01249 7.184409,-0.02271 8.615354,-0.02271 h 2.601718 l 0.53272,0.459026 c 0.292997,0.252467 0.686038,0.574168 0.873422,0.714897 l 0.3407,0.25587 v 2.333392 2.333393 L 69.550097,67.1715 c -1.178767,1.20892 -0.0497,1.082415 -9.675628,1.084089 l -8.33554,0.0015 -0.886071,-0.827289 z m 4.314015,-1.177881 c 0.345035,-0.224892 0.477474,-0.527079 0.598534,-1.36567 0.09862,-0.683081 0.143922,-0.811705 0.293441,-0.833055 0.836868,-0.119487 3.78712,-0.852036 4.692597,-1.165175 1.107807,-0.383111 1.344259,-0.52032 1.344259,-0.780046 0,-0.193716 -0.003,-0.193935 -1.839779,-0.134424 -1.011878,0.03279 -3.27072,0.05999 -5.019646,0.06047 l -3.179866,7.72e-4 -0.204419,0.300275 c -0.19357,0.284337 -0.20442,0.388353 -0.20442,1.959716 v 1.659439 l 0.278755,0.278755 0.278758,0.278756 1.379316,-0.06374 c 0.963436,-0.04453 1.44057,-0.103667 1.58247,-0.196156 z m 7.746512,-0.03409 c 0.524677,-0.0943 1.175067,-0.234204 1.445308,-0.310899 0.50992,-0.144716 2.376765,-0.960672 2.892939,-1.26444 0.296478,-0.174475 0.393733,-0.464046 0.181708,-0.54102 -0.234568,-0.08516 -4.036238,0.425571 -5.655621,0.759803 -1.092,0.225382 -1.66399,0.457053 -2.003591,0.81152 -0.244297,0.254992 -0.247574,0.27074 -0.09205,0.442597 0.08869,0.09801 0.248986,0.195355 0.3562,0.216327 0.5155,0.100836 2.009722,0.04164 2.875104,-0.113888 z M 14.703301,58.041143 C 14.475602,57.84407 14.068076,57.535987 13.797688,57.356514 13.527299,57.177039 13.26898,56.980546 13.223645,56.91986 c -0.04691,-0.06279 -0.06033,-0.865329 -0.03116,-1.862482 l 0.05127,-1.752143 0.590547,-0.564899 c 0.324799,-0.310695 0.730306,-0.680362 0.901128,-0.821482 l 0.310583,-0.256578 9.746317,0.04934 9.746319,0.04933 0.551917,0.419736 c 0.850843,0.647071 0.843744,0.619232 0.771102,3.023517 l -0.06222,2.059593 -0.539507,0.507554 -0.539506,0.507551 -5.78683,0.0602 c -3.182759,0.0331 -7.593464,0.06024 -9.801568,0.06029 l -4.014734,8e-5 z m 7.523327,-1.270317 c 0.905712,-0.214861 0.563417,-0.579455 -1.228557,-1.308595 -0.376483,-0.153188 -0.511651,-0.498264 -0.355771,-0.908258 0.08579,-0.225625 0.129703,-0.242533 0.617012,-0.237501 0.28856,0.003 0.708633,0.03866 0.933497,0.07927 2.047207,0.369847 2.630173,0.488221 3.41373,0.693179 1.119412,0.292809 1.348698,0.268459 3.00619,-0.319268 2.243448,-0.795499 2.937972,-1.105463 2.937972,-1.311206 0,-0.10053 -0.998659,-0.128275 -5.65562,-0.157146 -3.110591,-0.01929 -6.706711,-0.01462 -7.991379,0.01038 -2.198325,0.04276 -2.344178,0.05611 -2.478841,0.227131 -0.437314,0.555359 -0.431408,0.52733 -0.362562,1.720973 0.0768,1.331611 0.09205,1.351922 1.170397,1.559596 0.726817,0.139973 5.357347,0.102475 5.993932,-0.04854 z m 22.54323,1.539226 -5.269493,-0.04688 -0.454266,-0.339343 c -0.249847,-0.186635 -0.658687,-0.472823 -0.908532,-0.63597 L 37.6833,56.99123 37.624466,55.492151 c -0.04148,-1.056841 -0.02807,-1.557284 0.04542,-1.696375 0.150574,-0.284936 1.29138,-1.535047 1.651468,-1.8097 l 0.30641,-0.233709 12.315651,0.0015 c 12.140527,0.0015 12.319192,0.0043 12.564907,0.182037 0.137095,0.09923 0.474123,0.409716 0.748954,0.689975 l 0.499695,0.509569 0.05639,1.518987 c 0.03102,0.835441 0.08585,1.607032 0.121872,1.714646 0.05024,0.15009 0.02256,0.20929 -0.118859,0.254172 -0.101393,0.03218 -0.544631,0.413486 -0.984978,0.847345 l -0.800631,0.788838 -0.635972,0.06433 c -0.684132,0.06921 -10.074688,0.06222 -18.624934,-0.01384 z m -1.61943,-1.552798 c 0.06969,-0.06969 0.04795,-0.228616 -0.07585,-0.554431 -0.172122,-0.452987 -0.154457,-0.779368 0.04946,-0.913702 0.05573,-0.03671 0.562719,-0.06737 1.126649,-0.06815 l 1.025328,-0.0013 0.176958,0.431552 c 0.314559,0.76712 0.399837,0.88431 0.665955,0.915157 0.1392,0.01612 0.87382,-0.174071 1.632494,-0.422679 1.276456,-0.418285 3.817741,-1.121387 6.17406,-1.708188 0.53835,-0.13407 1.045207,-0.292306 1.126351,-0.351639 0.182449,-0.133409 0.102334,-0.545379 -0.130182,-0.669416 -0.09003,-0.04802 -3.252626,-0.113183 -7.356207,-0.151556 -7.695871,-0.07196 -7.377368,-0.08723 -7.574724,0.363102 -0.04469,0.101994 -0.224415,0.384103 -0.399373,0.626912 -0.298451,0.414195 -0.318108,0.48513 -0.318108,1.147932 0,0.63266 0.02135,0.720347 0.204421,0.839411 0.351831,0.22883 0.862027,0.355945 1.913441,0.476737 1.320777,0.151741 1.640598,0.159073 1.759333,0.04034 z M 10.423043,49.467539 C 10.120887,49.208268 9.7448078,48.893927 9.5873131,48.769003 l -0.2863519,-0.227131 -0.025761,-2.129873 -0.02575,-2.129873 0.7586238,-0.663868 0.758623,-0.663866 h 5.108876 5.108872 l 0.354331,0.261586 c 0.194884,0.143871 0.501956,0.419836 0.682387,0.61326 l 0.328053,0.351672 -0.05718,2.135053 c -0.06501,2.426882 -0.04528,2.358795 -0.880553,3.039203 l -0.477973,0.389357 -4.844263,0.06336 c -2.664345,0.03486 -4.905589,0.07859 -4.980542,0.09721 -0.07495,0.01862 -0.383501,-0.178277 -0.685659,-0.43755 z m 7.824693,-1.40265 c 0.77127,-0.462425 0.908029,-0.682975 0.597666,-0.963853 -0.16222,-0.146806 -0.281439,-0.1508 -1.571221,-0.05267 -2.703587,0.205697 -2.816653,0.205597 -3.149744,-0.0028 -0.273172,-0.170955 -0.297882,-0.222847 -0.272559,-0.572337 0.02741,-0.37824 0.03362,-0.384745 0.391263,-0.409914 1.116908,-0.07861 4.290775,-0.88645 4.607,-1.172628 0.219826,-0.198939 0.20494,-0.359518 -0.03924,-0.423375 -0.263502,-0.0689 -6.651567,0.03441 -7.066223,0.11428 -0.436443,0.08407 -0.514513,0.371721 -0.556504,2.05044 l -0.03403,1.360822 0.23192,0.11191 c 0.143057,0.06903 1.082203,0.150268 2.451092,0.21202 1.220545,0.05506 2.237082,0.118024 2.258975,0.139916 0.02189,0.02189 0.353012,0.03979 0.735822,0.03979 0.668748,0 0.72422,-0.01692 1.415797,-0.431552 z m 6.761526,1.154972 c -0.424741,-0.357027 -0.812999,-0.688196 -0.862798,-0.735935 -0.04981,-0.04774 -0.115291,-0.647052 -0.14554,-1.331802 -0.03025,-0.684749 -0.08476,-1.313652 -0.12113,-1.397563 -0.04911,-0.113272 0.09545,-0.312145 0.561289,-0.772253 0.34508,-0.340829 0.757185,-0.844552 0.915789,-1.119384 0.540267,-0.936187 0.331,-0.856855 2.404373,-0.911486 1.009859,-0.0266 4.146054,-0.0188 6.969323,0.01736 2.823266,0.03616 6.163899,0.04119 7.423631,0.0112 l 2.290418,-0.05454 0.344328,0.231101 c 0.189382,0.127105 0.534492,0.415253 0.766914,0.640327 l 0.422587,0.409224 -0.03892,1.713621 c -0.06019,2.650604 -0.02482,2.458535 -0.580638,3.152141 -0.266948,0.333122 -0.508686,0.609126 -0.537196,0.613341 -0.0285,0.0043 -4.078909,0.01808 -9.00089,0.03082 -4.921977,0.01274 -9.194357,0.05237 -9.49417,0.08807 l -0.545121,0.06491 z m 6.585777,-1.0834 c 0.06775,-0.213467 -0.05892,-0.471285 -0.467258,-0.95103 -0.167148,-0.19638 -0.303908,-0.431464 -0.303908,-0.522408 0,-0.286444 0.330378,-0.528765 0.720913,-0.528765 0.487971,0 0.754825,0.115637 1.355321,0.587308 0.642816,0.504909 1.627405,0.95767 2.078311,0.955704 0.530622,-0.0023 1.028564,-0.335392 1.325136,-0.886398 0.206737,-0.384103 0.300483,-0.474909 0.490296,-0.474909 0.239358,0 1.615998,0.4174 2.226619,0.675118 0.185779,0.07841 0.413223,0.142563 0.505429,0.142563 0.350304,0 2.478064,-1.457209 3.097689,-2.121472 0.441415,-0.473217 0.404386,-0.479395 -3.228353,-0.538752 -1.841037,-0.03008 -5.417187,-0.0302 -7.947004,-2.57e-4 l -4.599668,0.05443 -0.164265,0.280932 c -0.09034,0.154512 -0.36616,0.545512 -0.612923,0.868887 l -0.448657,0.58795 0.05421,0.580504 c 0.02982,0.31928 0.129145,0.708845 0.22073,0.865701 0.146898,0.251585 0.230171,0.293379 0.706592,0.354631 0.659146,0.08475 2.962692,0.216857 4.099939,0.235138 0.755502,0.01215 0.839614,-0.0034 0.890854,-0.164861 z m 36.288612,1.68412 c -0.02128,-0.02128 -4.307219,-0.06418 -9.524338,-0.09536 -9.059221,-0.05416 -9.496231,-0.06431 -9.720497,-0.225993 -0.129152,-0.09311 -0.374217,-0.314394 -0.544582,-0.491739 -0.287762,-0.299549 -0.314724,-0.379142 -0.379669,-1.120854 -0.03845,-0.439128 -0.07281,-1.343232 -0.07638,-2.009124 l -0.0064,-1.210713 0.790436,-0.8562 0.790435,-0.856199 h 9.797868 9.797872 l 0.427661,0.38956 c 0.235213,0.214259 0.583419,0.50439 0.773787,0.644736 l 0.346125,0.255174 -0.03265,2.113603 -0.03265,2.113604 -0.827263,0.694087 c -0.723101,0.606694 -0.872201,0.694088 -1.184162,0.694088 -0.196294,0 -0.374295,-0.01741 -0.395561,-0.03866 z m -8.561006,-1.651928 c 0.374884,-0.280116 0.346381,-0.595868 -0.06598,-0.730961 -0.184418,-0.06042 -1.564152,-0.149707 -3.225293,-0.208724 -3.1145,-0.110651 -3.832617,-0.180649 -4.178541,-0.407305 -0.269633,-0.176673 -0.371798,-0.53459 -0.237023,-0.830384 l 0.100431,-0.220434 h 1.518415 c 1.8444,0 5.938752,-0.234948 7.097627,-0.407285 0.464303,-0.06904 0.975354,-0.201923 1.135668,-0.29528 0.295814,-0.172267 0.453387,-0.565779 0.229659,-0.573543 -0.975511,-0.03385 -10.726138,0.03622 -11.149019,0.08012 -0.5335,0.05539 -0.604065,0.08884 -0.863106,0.409118 -0.277066,0.342576 -0.282647,0.369107 -0.312421,1.485329 -0.04368,1.637487 -0.113524,1.527265 1.051062,1.658569 1.647674,0.185773 3.406803,0.256363 6.082066,0.244061 2.452573,-0.01128 2.57092,-0.01984 2.816453,-0.203285 z M 10.581761,40.835058 C 10.44684,40.693794 10.04004,40.350831 9.6777627,40.072927 L 9.0190762,39.567625 V 37.68142 35.795208 l 0.522406,-0.477481 c 0.6827278,-0.624025 0.9883518,-0.747363 1.6922408,-0.682909 0.306009,0.02801 4.372209,0.07203 9.036003,0.0977 6.1169,0.03373 8.533809,0.07575 8.674092,0.150837 0.106957,0.05727 0.410191,0.308096 0.673848,0.557458 l 0.47938,0.453372 -0.0039,1.690323 c -0.0052,2.235747 -0.03715,2.381819 -0.648923,2.969717 l -0.488748,0.46964 -3.358609,0.06614 c -1.847235,0.03638 -5.926122,0.05163 -9.064192,0.03398 L 10.827092,41.0919 Z m 3.68144,-1.301836 c 0.01914,-0.05776 -0.08307,-0.241746 -0.22714,-0.408842 -0.323448,-0.375136 -0.399216,-0.572839 -0.328109,-0.856156 0.0414,-0.164975 0.116707,-0.219914 0.301416,-0.219914 0.304621,0 1.064945,0.220818 1.75283,0.509065 0.57572,0.241248 1.226125,0.277017 2.276193,0.125177 0.590158,-0.08534 3.338736,-0.713706 3.981556,-0.910248 0.170029,-0.05196 0.493119,-0.14937 0.717979,-0.21641 1.679165,-0.50062 1.817069,-0.569815 1.817069,-0.911716 0,-0.107186 -0.04906,-0.24395 -0.109022,-0.303912 -0.156253,-0.156248 -13.387067,-0.158104 -13.483612,-0.0016 -0.03642,0.05892 -0.08495,0.626213 -0.107863,1.260647 l -0.04165,1.153511 0.567637,0.385479 c 0.312197,0.212008 0.675175,0.418679 0.806617,0.459264 0.365215,0.112772 2.034563,0.06125 2.076108,-0.06407 z m 22.38246,1.543208 -3.581531,-0.03207 -0.318702,-0.243087 c -0.584405,-0.445747 -0.921715,-0.866308 -0.929739,-1.159214 -0.0042,-0.151988 -0.02073,-0.378558 -0.03679,-0.503479 -0.01607,-0.12492 -0.03707,-0.860142 -0.04667,-1.63381 l -0.01747,-1.406685 0.778043,-0.682941 0.778039,-0.68295 9.241339,0.02901 c 10.312757,0.03241 9.440897,-0.02801 10.173057,0.704192 l 0.400433,0.40043 -0.02998,1.990073 c -0.03305,2.193556 -0.0078,2.089859 -0.683619,2.804469 l -0.365183,0.386124 -1.892309,9.2e-5 c -1.040772,5.8e-5 -3.691206,0.01401 -5.889856,0.031 -2.198653,0.017 -5.609236,0.01649 -7.579079,-0.0016 z m 0.901359,-1.796556 c 1.050208,-0.187418 1.877267,-0.364445 3.997545,-0.855617 1.99111,-0.461254 2.740352,-0.614692 4.270108,-0.874437 1.061563,-0.180259 1.768486,-0.377002 1.886953,-0.525144 0.04927,-0.06166 0.114091,-0.193801 0.144054,-0.293734 0.133483,-0.445284 0.357029,-0.429967 -6.885255,-0.471638 l -6.78218,-0.03903 -0.314385,0.314386 -0.314386,0.314388 v 1.188443 c 0,1.363895 -0.08067,1.258135 0.999385,1.310158 1.401584,0.06754 2.361702,0.04583 2.998161,-0.0678 z m 24.149267,1.768221 -5.877758,-0.04707 -0.334077,-0.317992 c -0.58877,-0.560409 -0.671043,-0.858378 -0.673307,-2.438474 l -0.0021,-1.393673 0.462936,-0.514254 c 0.254614,-0.282835 0.585588,-0.728889 0.735497,-0.991229 0.149908,-0.262332 0.312086,-0.501399 0.360393,-0.53126 0.04831,-0.02984 1.894403,-0.04989 4.10244,-0.04459 2.208037,0.005 4.993065,-0.03033 6.188954,-0.07939 l 2.17434,-0.08909 0.401007,0.338056 c 0.220554,0.185936 0.529947,0.44772 0.687539,0.581749 l 0.286532,0.243684 v 1.779102 1.779119 l -0.515082,0.550586 c -0.789126,0.843534 -1.402778,1.268305 -1.795374,1.242778 -0.178361,-0.01161 -2.969281,-0.04226 -6.202047,-0.06812 z m -0.75384,-1.7281 c 0.453831,-0.17255 0.248325,-0.385636 -0.673294,-0.698108 -1.016962,-0.344811 -1.154309,-0.452991 -1.034052,-0.814502 0.108956,-0.327522 0.400217,-0.379056 2.194684,-0.388313 1.290002,-0.0067 3.068314,-0.206961 3.396446,-0.382571 0.121784,-0.06514 0.161265,-0.171439 0.141085,-0.379743 l -0.02802,-0.289233 -3.743969,-0.02371 c -3.711014,-0.02354 -3.744852,-0.02205 -3.845105,0.165274 -0.05563,0.10394 -0.302618,0.41146 -0.548857,0.683364 -0.312899,0.345516 -0.446551,0.569317 -0.443859,0.743261 0.0073,0.472971 0.231956,1.223831 0.403712,1.349424 0.133773,0.09782 0.59359,0.125981 2.056928,0.125981 1.0402,0 1.992022,-0.04085 2.124298,-0.09112 z m -36.841719,-6.61897 c 0,-0.239888 0.05716,-0.311089 0.383354,-0.477497 0.210845,-0.107569 0.838002,-0.308014 1.393682,-0.445433 1.400195,-0.34627 1.857096,-0.557739 1.857096,-0.859511 0,-0.129306 -0.0608,-0.258428 -0.135132,-0.286956 -0.07432,-0.02851 -0.616036,0.01483 -1.203807,0.09639 -4.200387,0.582644 -4.473039,0.672582 -5.18764,1.711217 l -0.268452,0.390187 -2.919279,-0.0067 -2.91928,-0.0067 -0.607857,-0.541221 C 14.159092,31.977194 13.75487,31.610992 13.595137,31.461084 l -0.29042,-0.272559 -0.04238,-1.614142 c -0.04899,-1.865643 -0.106661,-1.707414 0.955715,-2.621774 l 0.636193,-0.547562 2.056633,0.06067 c 1.661158,0.04898 2.163798,0.03489 2.613921,-0.07351 0.480426,-0.115646 1.464054,-0.123694 7.131985,-0.05834 3.616087,0.04169 7.506871,0.07782 8.646189,0.08031 l 2.071488,0.0049 0.574723,0.567835 0.574719,0.567833 -0.0443,1.953343 c -0.04973,2.192867 -0.04466,2.174162 -0.784664,2.89749 l -0.408222,0.399029 -3.027005,0.02503 c -1.664851,0.01376 -4.6317,0.05387 -6.592996,0.08916 l -3.565993,0.06415 z m -6.041745,-1.875198 c 0.59963,-0.165083 1.805709,-0.472699 2.680171,-0.68358 0.874464,-0.210881 2.244077,-0.550082 3.043588,-0.753778 1.336374,-0.340467 1.545276,-0.369723 2.589317,-0.362596 1.311608,0.009 3.885355,0.353745 5.673523,0.760068 0.74252,0.168714 1.429325,0.267188 1.862491,0.267023 0.869445,-2.58e-4 2.286285,-0.170438 2.435139,-0.292376 0.06246,-0.05114 0.113569,-0.266997 0.113569,-0.479627 0,-0.212621 -0.05111,-0.426097 -0.113569,-0.474381 -0.177293,-0.137071 -2.092761,-0.552809 -3.248005,-0.704963 -2.455463,-0.323396 -4.190382,-0.422956 -8.024227,-0.460457 -3.518208,-0.0344 -3.922381,-0.02329 -4.22468,0.11621 -0.283376,0.130772 -0.724839,0.159182 -2.899081,0.186549 l -2.564803,0.03232 -0.09936,0.368994 c -0.135641,0.503736 -0.242951,1.935408 -0.161557,2.15544 0.116329,0.314469 1.18808,0.758509 1.620111,0.671231 0.124923,-0.02528 0.717741,-0.180962 1.317375,-0.346046 z m 23.611499,1.737746 c -0.294313,-0.221241 -0.723714,-0.580165 -0.95422,-0.79762 L 40.29716,31.370588 40.23863,30.053221 c -0.03219,-0.724556 -0.08374,-1.510091 -0.114568,-1.745629 -0.05584,-0.426752 -0.05421,-0.430042 0.468578,-0.940442 0.288544,-0.281708 0.687812,-0.630406 0.887268,-0.774893 l 0.362647,-0.262698 11.209768,0.0058 11.209772,0.0058 0.42945,0.364385 c 0.236201,0.200414 0.540784,0.493858 0.676856,0.652088 l 0.247403,0.2877 0.0023,1.827312 0.0023,1.827319 -0.578806,0.593228 c -0.318342,0.326271 -0.676079,0.656612 -0.794965,0.734086 -0.190794,0.124332 -1.420955,0.147048 -10.482588,0.193526 -5.646534,0.02892 -10.557196,0.07335 -10.912581,0.09871 l -0.646155,0.04608 -0.535118,-0.402253 z m 3.644498,-1.823781 c 0.249846,-0.07782 1.190178,-0.289159 2.089626,-0.469674 2.034949,-0.408403 2.739424,-0.668032 3.370432,-1.242157 0.473691,-0.430978 0.695847,-0.895695 0.514758,-1.076783 -0.134241,-0.134244 -8.82186,-0.14283 -9.131971,-0.0091 l -0.249847,0.107798 v 1.395123 c 0,1.592264 -0.0553,1.487184 0.908535,1.726392 0.460439,0.114272 0.560353,0.107744 1.271946,-0.08309 0.42474,-0.113916 0.976673,-0.270769 1.226521,-0.348583 z m 8.417724,0.0721 c 0.981813,-0.515927 2.075834,-1.820806 2.075834,-2.475926 0,-0.202121 -0.01394,-0.204939 -0.704113,-0.142308 -0.930016,0.08438 -1.120018,0.174614 -1.966512,0.933877 -0.838459,0.752062 -1.052944,1.045754 -1.053762,1.442911 -0.0013,0.64389 0.690014,0.745149 1.648553,0.241446 z M 10.018463,24.064929 9.3370615,23.515445 9.2916383,21.2277 9.2462151,18.939964 9.7402797,18.477541 c 0.6482563,-0.606727 0.8706933,-0.837855 1.2538363,-1.302806 l 0.31819,-0.386124 h 6.613916 c 3.637655,0 6.677526,0.02445 6.755269,0.0542 0.07775,0.02984 0.438823,0.407351 0.802398,0.838926 l 0.661046,0.784682 0.02869,1.046285 c 0.01579,0.575459 -0.0093,1.626483 -0.0556,2.335631 -0.09411,1.439885 -0.12283,1.50506 -0.977189,2.218285 l -0.392622,0.327772 -6.115643,0.05785 c -3.363603,0.03183 -6.524483,0.08131 -7.024174,0.109994 l -0.908535,0.05213 z m 6.104936,-1.277892 c 0.684355,-0.09722 1.563363,-0.259017 1.953345,-0.359556 1.664703,-0.429155 1.64653,-0.417535 1.307848,-0.836298 -0.172182,-0.212887 -0.190634,-0.214817 -2.484725,-0.259911 -2.570067,-0.05047 -2.611299,-0.06042 -2.611299,-0.626884 0,-0.540824 0.199985,-0.735884 0.754692,-0.73609 0.259507,-9.2e-5 1.064648,-0.06365 1.789203,-0.141282 0.724554,-0.07758 2.366331,-0.173628 3.648397,-0.213376 2.290014,-0.07103 2.338178,-0.07641 2.737667,-0.310574 0.407418,-0.238761 0.587161,-0.483655 0.453265,-0.617544 -0.124228,-0.124233 -4.94478,-0.185653 -8.167695,-0.104082 l -3.100004,0.07849 -0.606131,0.394903 c -0.333369,0.217204 -0.640732,0.460524 -0.683022,0.540724 -0.06282,0.119136 -0.155367,2.859084 -0.110018,3.257525 0.02221,0.19501 3.606348,0.148773 5.118477,-0.06606 z m 12.6531,1.165611 c -0.387628,-0.367421 -0.76013,-0.799584 -0.827782,-0.960383 -0.08691,-0.206562 -0.123002,-0.739058 -0.123002,-1.814647 v -1.52229 l 0.547726,-0.5212 c 0.357802,-0.340476 0.6533,-0.541006 0.852192,-0.578317 0.16746,-0.03141 3.739765,-0.04103 7.93846,-0.02138 l 7.633993,0.03572 0.364664,0.241322 c 0.200563,0.13272 0.470179,0.379661 0.599143,0.548747 0.23413,0.306953 0.234485,0.310194 0.234485,2.136213 v 1.828778 l -0.527657,0.561385 -0.527658,0.561378 -7.444721,0.02114 c -4.094596,0.01168 -7.573048,0.05047 -7.729893,0.08635 -0.263876,0.06033 -0.337799,0.01533 -0.98995,-0.602833 z m 12.316017,-1.206951 c 0.835294,-0.339407 1.898213,-1.034955 1.960428,-1.282849 0.09568,-0.381219 -0.01984,-0.433938 -0.817394,-0.373072 -0.954331,0.07285 -1.682536,0.273304 -2.241118,0.617004 -0.374507,0.230441 -0.448639,0.32052 -0.448639,0.54516 0,0.344653 0.384126,0.714691 0.7419,0.714691 0.143602,0 0.505774,-0.09942 0.804823,-0.220934 z m -6.089391,-0.315695 c 0.274831,-0.115532 0.773408,-0.28688 1.107946,-0.380764 0.838268,-0.235255 1.560504,-0.563873 2.229183,-1.014269 0.66118,-0.445341 0.745096,-0.584533 0.425636,-0.70599 -0.317176,-0.120587 -8.821087,-0.118266 -8.895682,0.0025 -0.121725,0.196958 -0.163145,1.961547 -0.05097,2.171161 l 0.110983,0.207376 2.286602,-0.03497 c 2.141801,-0.03273 2.318246,-0.04823 2.786294,-0.245002 z m 32.207504,2.072669 c -0.349784,-0.04044 -4.555012,-0.07094 -9.34495,-0.0678 l -8.708976,0.0058 -0.540453,-0.532602 c -0.907249,-0.89408 -0.915858,-0.917733 -0.984056,-2.703498 -0.03265,-0.854755 -0.03588,-1.601703 -0.0072,-1.659892 0.02869,-0.05818 0.377776,-0.37627 0.775746,-0.706843 0.397972,-0.330582 0.95435,-0.909206 1.236394,-1.285842 l 0.512811,-0.68479 5.441325,-0.02818 c 2.992727,-0.0155 6.984772,-0.05801 8.871207,-0.09454 1.886435,-0.03646 3.521795,-0.04326 3.634133,-0.01508 0.115122,0.02892 0.282014,0.201682 0.382453,0.395929 0.09801,0.189558 0.522774,0.679172 0.943919,1.08803 l 0.765716,0.743393 -0.01751,2.07306 -0.01751,2.073067 -0.51757,0.526363 c -0.613053,0.623477 -1.17878,0.977644 -1.533133,0.959818 -0.141008,-0.0074 -0.542569,-0.046 -0.892356,-0.08642 z M 50.549356,22.871315 c 0.26916,-0.05237 0.959547,-0.154135 1.534195,-0.22604 1.512459,-0.189234 2.083136,-0.277837 2.137119,-0.331824 0.09167,-0.09167 -0.05537,-0.311677 -0.308081,-0.460963 -0.140191,-0.08279 -0.72039,-0.277134 -1.289331,-0.431833 -0.568938,-0.154698 -1.050683,-0.297512 -1.070543,-0.31737 -0.06071,-0.06075 0.06977,-0.442863 0.216394,-0.633721 0.126895,-0.165183 0.292629,-0.185712 1.975407,-0.244712 2.110228,-0.074 3.173563,-0.183292 4.835047,-0.497081 2.134611,-0.403132 2.443089,-0.534584 2.222384,-0.946973 -0.102344,-0.191231 0.0229,-0.187468 -7.345046,-0.220652 -2.924841,-0.01318 -2.59387,-0.09677 -3.286438,0.830123 -0.191754,0.25663 -0.493899,0.556373 -0.671432,0.666093 -0.362254,0.223886 -0.379075,0.312473 -0.181677,0.956927 0.07653,0.249842 0.177656,0.753545 0.224729,1.119332 0.04707,0.365779 0.109077,0.703073 0.137795,0.749534 0.0674,0.109066 0.266598,0.106585 0.869478,-0.01082 z m -5.461512,-5.995576 c -0.22486,-0.03953 -1.758011,-0.115647 -3.406997,-0.16921 -1.648989,-0.05354 -3.271544,-0.12222 -3.60568,-0.152578 -0.334137,-0.03033 -1.807607,-0.0049 -3.27438,0.05652 -3.045213,0.127533 -2.885753,0.155238 -3.658926,-0.635677 l -0.454267,-0.464692 -0.03058,-1.443855 -0.03058,-1.443856 0.376079,-0.407996 c 0.20684,-0.224395 0.588556,-0.57185 0.848256,-0.772115 l 0.472179,-0.364114 6.969124,-0.02933 6.969123,-0.02933 0.389996,0.370586 c 0.214498,0.203821 0.564928,0.504599 0.778735,0.668389 l 0.388742,0.297811 -0.03542,1.553129 c -0.03305,1.449019 -0.04802,1.561516 -0.223483,1.678008 -0.103437,0.0687 -0.446408,0.332629 -0.762161,0.586565 -0.653625,0.525657 -1.077847,0.800752 -1.21007,0.784698 -0.04997,-0.0058 -0.274831,-0.04335 -0.499695,-0.08288 z M 35.080977,15.254062 c 0.08489,-0.05378 0.104005,-0.165886 0.06137,-0.359985 -0.14025,-0.638553 -0.235407,-0.613574 2.593147,-0.680522 2.696639,-0.06382 3.321677,-0.141869 4.658149,-0.581732 0.789014,-0.259688 1.285975,-0.550885 1.285975,-0.753529 0,-0.113765 -0.478763,-0.133879 -3.361573,-0.141263 -1.848866,-0.005 -4.284929,-0.0397 -5.413477,-0.07774 l -2.051905,-0.06912 -0.1251,0.302021 c -0.07811,0.188571 -0.126403,0.660332 -0.128574,1.256005 l -0.0035,0.954 0.499691,0.106214 c 0.598364,0.127191 1.813052,0.155154 1.985772,0.04575 z"
       id="path2016" /></g></svg>
