<?xml version="1.0" encoding="UTF-8" standalone="no"?>
<!-- Created with Inkscape (http://www.inkscape.org/) -->

<svg
   width="300"
   height="300"
   viewBox="0 0 79.374999 79.375"
   version="1.1"
   id="svg5"
   xml:space="preserve"
   inkscape:export-filename="card-cirkelvanverandering.svg"
   inkscape:export-xdpi="96"
   inkscape:export-ydpi="96"
   xmlns:inkscape="http://www.inkscape.org/namespaces/inkscape"
   xmlns:sodipodi="http://sodipodi.sourceforge.net/DTD/sodipodi-0.dtd"
   xmlns="http://www.w3.org/2000/svg"
   xmlns:svg="http://www.w3.org/2000/svg"><sodipodi:namedview
     id="namedview7"
     pagecolor="#ffffff"
     bordercolor="#000000"
     borderopacity="0.25"
     inkscape:showpageshadow="2"
     inkscape:pageopacity="0.0"
     inkscape:pagecheckerboard="0"
     inkscape:deskcolor="#d1d1d1"
     inkscape:document-units="mm"
     showgrid="false"
     showguides="true" /><defs
     id="defs2" /><g
     inkscape:label="Layer 1"
     inkscape:groupmode="layer"
     id="layer1"><path
       style="fill:#d64410;stroke:none;"
       d="M 37.992975,70.143208 C 37.821298,70.068647 36.677493,69.725556 35.451189,69.380869 32.376356,68.516592 32.178835,68.458692 30.412224,67.903834 29.553807,67.634232 28.49964,67.318003 28.069611,67.201121 27.639583,67.084239 26.736572,66.809805 26.06294,66.591282 25.389286,66.372769 24.577268,66.12769 24.258426,66.046689 23.939594,65.965678 23.390957,65.802813 23.039228,65.684783 22.687511,65.566742 22.045377,65.37191 21.612265,65.251813 21.179154,65.131728 20.22278,64.832772 19.487007,64.587496 18.751222,64.34221 17.747892,64.023739 17.257373,63.879787 16.766854,63.735836 15.602987,63.389935 14.671004,63.111118 12.319667,62.407705 11.799443,62.267613 10.523877,61.994371 L 9.409065,61.755556 9.351015,61.271564 c -0.03192,-0.26619 -0.06199,-6.072568 -0.06691,-12.90306 l -0.0087,-12.419067 0.20067,0.0022 c 0.110355,0.0011 1.003331,0.20489 1.984369,0.452746 0.981038,0.247857 2.044575,0.508089 2.363418,0.578299 0.318831,0.07019 1.241904,0.290493 2.051266,0.489535 0.809351,0.199041 1.812681,0.442918 2.229634,0.541958 0.416931,0.09905 1.139344,0.296561 1.60533,0.438938 0.465997,0.142366 1.208462,0.355817 1.649937,0.474339 0.441464,0.118522 1.083598,0.303886 1.426963,0.411935 0.343364,0.108015 1.005571,0.289477 1.471557,0.403188 0.465997,0.113701 1.228534,0.315552 1.69452,0.44857 0.465997,0.133008 1.068008,0.291719 1.337785,0.352691 0.269787,0.061 0.851726,0.220721 1.29319,0.355008 0.441464,0.134286 1.023403,0.301317 1.29319,0.371166 1.112253,0.28799 2.198781,0.583382 2.408012,0.654663 0.122622,0.04176 0.644365,0.204049 1.159406,0.360606 0.515042,0.156546 1.79931,0.564731 2.853926,0.907089 1.054616,0.342348 2.013778,0.650739 2.13148,0.685308 l 0.213986,0.06286 0.01902,13.172694 0.01902,13.172704 -0.188436,-0.0033 c -0.103643,-0.0022 -0.328912,-0.0645 -0.5006,-0.139119 z m -8.186742,-6.412521 c -0.01443,-0.29431 0.01487,-1.277578 0.06516,-2.185039 0.07248,-1.307665 0.140213,-1.825691 0.326561,-2.497191 0.322571,-1.162391 0.337275,-2.850526 0.03848,-4.414684 -0.17335,-0.907417 -0.210652,-1.450086 -0.245189,-3.567407 -0.04384,-2.688164 -0.06647,-2.817007 -0.524629,-2.991198 -0.16995,-0.06461 -0.306051,-0.0422 -0.57374,0.09435 -0.474404,0.242018 -0.647721,0.53976 -0.720708,1.238089 -0.09249,0.884568 0.06352,4.40574 0.2275,5.13702 0.239755,1.069037 0.267229,2.345346 0.08254,3.834976 -0.121572,0.980645 -0.165839,1.933007 -0.165839,3.567418 v 2.229634 l 0.579709,0.05302 c 0.983487,0.08987 0.940248,0.113602 0.910161,-0.498927 z M 23.61487,62.179659 c 0.05412,-2.169657 -0.382099,-3.318436 -1.844452,-4.857536 -0.37953,-0.39945 -0.785222,-0.866737 -0.901524,-1.038414 -0.116314,-0.171687 -0.559975,-0.673347 -0.985926,-1.114822 -1.353659,-1.402999 -1.865606,-2.333025 -2.315127,-4.205781 -0.553864,-2.307541 -0.991162,-3.988624 -1.084725,-4.170031 -0.194712,-0.377508 -0.365328,-0.498129 -0.704648,-0.498129 -0.779165,0 -0.915475,0.817496 -0.390113,2.339628 0.173831,0.503595 0.452517,1.477506 0.619329,2.164235 0.430258,1.771322 0.699378,2.539008 1.277797,3.644986 0.547654,1.047159 0.970193,1.58282 2.867854,3.63566 0.74827,0.80946 1.300887,1.492669 1.454885,1.798688 0.260965,0.518528 0.418593,1.468999 0.419894,2.531803 2.52e-4,0.304969 0.04472,0.579315 0.09894,0.612835 0.127618,0.07893 0.952657,0.202551 1.239565,0.185802 0.222427,-0.01301 0.223028,-0.01542 0.248305,-1.028924 z m 2.082938,-10.169076 0.210543,-0.170606 -0.02383,-2.750218 c -0.03247,-3.737499 -0.05685,-3.988132 -0.425361,-4.390304 l -0.291893,-0.318503 -0.325533,0.155245 c -0.595091,0.283781 -0.612266,0.40298 -0.562785,3.905382 0.048,3.398092 0.07238,3.557065 0.560117,3.661429 0.470207,0.100581 0.643622,0.08199 0.858822,-0.09238 z M 20.059893,51.31162 c 0.0586,-0.219617 0.06002,-0.655943 0.0044,-1.270888 C 20.017503,49.525691 19.921249,48.12102 19.850449,46.919239 19.712838,44.583612 19.597815,43.974593 19.22889,43.628003 19.06867,43.47747 18.910692,43.42566 18.625282,43.43 c -0.212631,0.0033 -0.544964,0.0077 -0.738528,0.0087 -0.418363,0.0044 -0.492159,0.09654 -0.493963,0.619624 -0.0011,0.331732 0.0422,0.431516 0.271296,0.624303 0.225979,0.190165 0.287749,0.328726 0.360736,0.809165 0.09916,0.652641 0.381433,2.671393 0.579928,4.147116 0.169774,1.262305 0.347584,1.892698 0.548714,1.945306 0.08549,0.02241 0.3044,0.04537 0.486452,0.05095 0.310107,0.0098 0.336641,-0.01093 0.420244,-0.32409 z m 2.62611,0.110409 c 0.199599,-0.199588 0.263807,-0.825323 0.199599,-1.944989 -0.114761,-2.001303 -0.148412,-2.636408 -0.233229,-4.401991 -0.0868,-1.806372 -0.148565,-2.130145 -0.477782,-2.503597 -0.264376,-0.299907 -0.755933,-0.273712 -1.07295,0.05718 -0.233611,0.243844 -0.244926,0.293512 -0.208214,0.914152 0.02132,0.360967 0.08276,1.037572 0.136604,1.503569 0.155956,1.35133 0.281584,2.869636 0.375551,4.538836 0.05445,0.966793 0.128296,1.600509 0.19609,1.682199 0.241613,0.291139 0.859696,0.379278 1.084331,0.154643 z m 17.873585,5.686643 c -0.01367,-7.247433 -0.05521,-13.237339 -0.09238,-13.310916 -0.05477,-0.108453 0.09719,-0.174235 0.80267,-0.347421 0.478603,-0.117516 1.251438,-0.34964 1.717435,-0.515872 0.465997,-0.166211 1.343087,-0.442142 1.9491,-0.613163 0.606002,-0.17101 1.167868,-0.345223 1.248584,-0.387128 0.139808,-0.07259 1.287013,-0.392442 3.134482,-0.873996 0.465987,-0.121463 0.947596,-0.255826 1.070217,-0.298584 0.458825,-0.159979 3.37275,-0.889236 4.102532,-1.026716 0.845921,-0.159366 1.185678,-0.245144 6.376761,-1.609977 0.441464,-0.116073 1.264197,-0.3085 1.828304,-0.427612 1.829135,-0.386243 4.524022,-1.0195 5.190941,-1.219777 0.357883,-0.107468 1.011891,-0.285213 1.453366,-0.394967 l 0.802671,-0.199566 0.05521,0.367679 c 0.03039,0.202223 0.08014,5.977388 0.110486,12.833691 l 0.05521,12.466013 -0.199675,0.08057 c -0.10983,0.04439 -0.601027,0.168145 -1.091536,0.275144 -2.008628,0.438141 -4.777038,1.21712 -8.383432,2.358946 -0.981038,0.31061 -2.445905,0.751845 -3.255267,0.980514 -1.315755,0.371746 -3.167225,0.936061 -4.548457,1.386326 -1.076033,0.350788 -5.000492,1.519006 -5.797052,1.725646 -1.70296,0.441792 -3.201281,0.884622 -4.738675,1.400538 -0.864933,0.290253 -1.616297,0.527734 -1.669703,0.527734 -0.06942,0 -0.104189,-3.75193 -0.121911,-13.177143 z m 15.064244,4.892827 c 0.195597,-0.141699 0.671795,-0.633333 1.058212,-1.092519 0.386418,-0.459197 1.025032,-1.19906 1.419146,-1.644142 1.390065,-1.569843 2.587441,-3.041467 4.058321,-4.9878 0.76199,-1.008305 1.525696,-2.373082 1.84655,-3.299862 0.224777,-0.64924 0.246326,-0.82189 0.239318,-1.917493 -0.0066,-0.975156 -0.04362,-1.311294 -0.196724,-1.768513 -0.402051,-1.200666 -1.171519,-2.294946 -1.923703,-2.735765 -1.161822,-0.680869 -2.613843,-0.648442 -4.057544,0.09063 -0.323084,0.16539 -0.693387,0.39336 -0.822907,0.506601 -0.330027,0.288537 -1.086693,1.291824 -1.315559,1.74433 -0.1055,0.208465 -0.216129,0.379038 -0.245986,0.379038 -0.02985,0 -0.420342,-0.373266 -0.867743,-0.829456 -0.931272,-0.949596 -1.429138,-1.248607 -2.420235,-1.453563 -0.991599,-0.205065 -1.858106,-0.06166 -2.927142,0.484638 -1.384009,0.707184 -1.9518,1.40021 -2.386749,2.913192 -0.172409,0.599716 -0.205535,0.926801 -0.2077,2.051266 -0.0022,1.203968 0.02143,1.415637 0.237263,2.116174 0.628873,2.040825 1.875216,3.743949 5.590565,7.639536 1.409646,1.47803 2.094298,2.061357 2.419437,2.061357 0.08112,0 0.307571,-0.115942 0.50318,-0.25763 z M 37.809337,41.748884 c -0.07653,-0.04482 -0.635717,-0.209559 -1.242768,-0.366225 -0.607051,-0.156666 -1.30702,-0.373736 -1.555488,-0.482385 -0.248458,-0.108672 -0.672473,-0.26173 -0.94226,-0.340194 -0.269787,-0.0785 -1.29319,-0.381925 -2.274229,-0.674354 C 29.857399,39.308292 27.711859,38.713584 26.443476,38.402493 26.002001,38.294258 25.239464,38.08189 24.748945,37.930657 23.640781,37.588998 23.466841,37.542425 19.799158,36.605489 16.995435,35.889264 15.958946,35.634093 14.225068,35.233245 13.832648,35.142505 13.05005,34.96079 12.485954,34.8294 11.921857,34.69801 11.139259,34.515958 10.746839,34.424845 10.354419,34.333775 9.832687,34.258 9.587422,34.256568 9.029382,34.253268 8.921902,34.182878 7.609635,32.960405 7.029653,32.420098 6.133715,31.617941 5.6186736,31.177832 5.1036323,30.737724 4.100302,29.85484 3.3890399,29.215876 2.6777886,28.576901 1.6647829,27.701527 1.1379123,27.270592 0.225127,26.523995 0,26.281682 0,26.045797 c 0,-0.122622 0.3665638,-0.06931 1.2485954,0.181429 1.8404173,0.523295 3.1049963,0.843406 5.0835597,1.286838 0.5150519,0.115428 1.4180529,0.338357 2.0066719,0.495384 1.523838,0.406534 2.173931,0.569858 3.38905,0.851453 0.588619,0.136418 1.913022,0.463438 2.943127,0.72671 1.030082,0.263271 3.357827,0.857782 5.172749,1.321134 11.743533,2.998107 11.049566,2.792681 11.36842,3.365337 0.273613,0.491438 0.554956,0.811614 2.177419,2.478026 0.69249,0.711262 1.860402,1.955397 2.595355,2.764748 0.734954,0.809361 1.400659,1.519454 1.479342,1.577988 0.195489,0.145416 0.644103,0.741491 0.555525,0.738124 -0.03925,-0.0011 -0.133991,-0.03936 -0.210477,-0.08407 z m 4.114854,-0.724786 c 0.147811,-0.186633 0.678267,-0.795827 1.178779,-1.353768 0.500511,-0.557942 1.223581,-1.372562 1.606817,-1.810254 0.383236,-0.437704 0.824701,-0.935548 0.981039,-1.106317 0.156338,-0.17078 0.432193,-0.497472 0.613009,-0.725978 0.180817,-0.228505 0.462947,-0.55031 0.62696,-0.715121 0.421785,-0.423873 0.764341,-0.906215 0.830342,-1.16918 0.06166,-0.245845 0.442262,-0.376447 2.762386,-0.948033 0.588629,-0.145011 2.214033,-0.552682 3.612013,-0.905952 1.39798,-0.353269 3.203981,-0.79434 4.013343,-0.980164 0.809351,-0.185823 1.832753,-0.439649 2.274228,-0.564053 1.671857,-0.471146 5.696439,-1.483835 7.491572,-1.885066 0.588619,-0.131565 1.872888,-0.459153 2.853926,-0.727968 4.091097,-1.12101 4.402243,-1.201901 5.47715,-1.423934 0.364454,-0.07533 1.04259,-0.272663 1.506958,-0.438633 0.997415,-0.356494 1.622287,-0.474098 1.622287,-0.305318 0,0.154578 -0.562796,0.677316 -1.44697,1.343994 -0.405943,0.306084 -1.119337,0.926298 -1.585335,1.378236 -0.465997,0.451949 -1.047925,0.991446 -1.29319,1.198884 -0.245254,0.207427 -0.666656,0.584038 -0.936443,0.83689 -0.269788,0.252864 -0.952056,0.876478 -1.516153,1.385824 -0.564096,0.509345 -1.222706,1.119807 -1.463587,1.356578 -0.494751,0.48631 -0.466632,0.473617 -1.434933,0.648377 -1.528955,0.275942 -3.99678,0.795586 -5.529496,1.164315 -0.882939,0.212412 -2.408012,0.57551 -3.38905,0.806879 -0.981039,0.231381 -2.325503,0.561418 -2.98771,0.733434 -0.662196,0.172016 -1.725733,0.428585 -2.363407,0.570153 -0.637674,0.141579 -1.741345,0.415849 -2.452607,0.60949 -0.711251,0.193651 -1.554056,0.416318 -1.872888,0.494805 -1.92285,0.473387 -6.22555,1.75348 -8.224415,2.446845 l -1.223374,0.424365 z m -2.496808,-0.594697 c -0.118533,-0.134014 -0.299131,-0.384122 -0.40133,-0.555799 -0.178204,-0.29936 -0.187934,-0.469255 -0.237426,-4.147127 -0.04034,-2.994947 -0.08287,-3.991248 -0.19433,-4.548457 -0.259729,-1.298448 -0.766068,-2.411861 -1.743958,-3.834964 -0.58172,-0.846533 -1.021238,-1.323944 -2.151869,-2.337332 -1.02279,-0.916743 -1.868908,-1.36562 -3.197006,-1.696062 -0.864047,-0.214981 -1.117588,-0.237962 -2.649987,-0.240127 -1.425848,-0.0022 -1.838154,0.02897 -2.600385,0.195784 -1.421791,0.311036 -1.994601,0.248556 -2.259545,-0.24649 -0.131335,-0.245418 0.03072,-0.5911 0.355937,-0.759267 0.151287,-0.07828 0.684783,-0.247135 1.185524,-0.375332 1.346728,-0.344742 3.022367,-0.330869 5.548103,0.04592 2.172018,0.324058 2.596471,0.436315 3.228263,0.853814 1.058355,0.699379 2.807779,2.327876 3.340717,3.109796 0.451183,0.661967 0.559417,0.660491 0.498916,-0.0066 -0.05674,-0.625124 -0.481008,-1.585762 -1.090158,-2.468099 -0.989162,-1.432747 -1.526976,-1.977831 -2.724199,-2.761042 -1.345382,-0.88014 -2.255249,-1.495172 -3.119766,-2.108838 -1.280716,-0.909101 -2.696593,-1.519421 -4.325484,-1.864513 -1.332176,-0.282228 -1.735998,-0.411005 -1.965739,-0.626828 -0.481707,-0.45255 -0.08987,-1.155984 0.643873,-1.155984 1.017521,0 3.001102,0.586989 4.755501,1.407251 0.961414,0.44951 3.125331,1.981373 3.892722,2.755717 0.404577,0.408229 0.757748,0.742235 0.78485,0.742235 0.182949,0 -0.170354,-0.9303 -0.62661,-1.649937 -0.41997,-0.662414 -1.673616,-2.009393 -2.53481,-2.723542 -0.724589,-0.600852 -2.093696,-1.470333 -3.433645,-2.180578 -0.828844,-0.439343 -1.155897,-0.695268 -1.284138,-1.004872 -0.232703,-0.561801 0.24321,-1.066336 0.901022,-0.955204 0.677917,0.114542 2.571172,1.197156 3.861356,2.208063 0.841919,0.659671 2.236871,1.980936 2.589867,2.453044 0.194286,0.259861 0.498085,0.661191 0.675119,0.89185 0.326911,0.425928 0.498828,0.72824 1.633264,2.871986 0.350427,0.662207 0.740255,1.364537 0.866288,1.560747 0.126033,0.19621 0.399045,0.707906 0.606691,1.137115 0.207645,0.429197 0.414241,0.780368 0.459087,0.780368 0.138737,0 0.0902,-0.955511 -0.09457,-1.858883 C 38.407531,20.300233 37.785382,18.493958 37.324195,17.576548 36.775601,16.48522 35.689324,14.729368 35.090134,13.96541 34.390865,13.073845 33.407312,12.116935 32.195888,11.149541 30.45979,9.7631933 30.146535,9.4460676 30.145201,9.0735886 c -6.56e-4,-0.2049447 0.553022,-0.7714454 0.754097,-0.7714454 0.640997,0 2.73501,1.6673721 4.399137,3.5028478 1.228763,1.355277 3.038121,4.209979 3.27711,5.170421 0.03356,0.134899 0.116871,0.245265 0.185135,0.245265 0.0985,0 0.124109,-0.201786 0.124109,-0.976655 0,-1.483605 -0.05324,-1.656321 -1.115621,-3.616397 C 37.529905,12.186161 37.201431,11.634331 37.039233,11.401333 36.303853,10.344935 36.03681,9.9717023 35.279029,8.9412049 33.863338,7.0160148 33.7928,6.8528768 34.155647,6.3433128 c 0.261981,-0.36792 0.633235,-0.496773 0.951902,-0.330388 0.450517,0.235229 0.602952,0.43391 2.09854,2.7351421 0.609128,0.9372524 1.411143,2.3498601 1.411143,2.4854811 0,0.05554 0.05576,0.100909 0.124021,0.100909 0.193367,0 0.210521,-0.466948 0.11299,-3.0768978 -0.118588,-3.1737746 -0.112585,-3.1953012 0.947059,-3.3912268 0.186644,-0.034547 0.305406,0.012026 0.482287,0.188874 l 0.234661,0.2346604 -0.05838,2.9108204 c -0.03564,1.7753991 -0.02547,2.9619728 0.02569,3.0420008 0.04614,0.07216 0.09621,0.11229 0.111142,0.08921 0.01498,-0.02307 0.107359,-0.202551 0.205426,-0.39875 0.306893,-0.614136 1.195615,-2.0992271 1.877206,-3.1369192 0.753812,-1.147653 1.314837,-1.771202 1.674907,-1.861572 0.475005,-0.119222 0.986056,0.335198 0.971035,0.863457 -0.0087,0.291609 -0.582956,1.2443094 -0.965635,1.6008374 -0.661135,0.6159714 -2.201547,2.9167008 -2.635336,3.9360908 -0.142859,0.335712 -0.468971,0.960299 -0.724699,1.387955 l -0.464947,0.777558 -0.03028,1.360077 c -0.02099,0.940478 -2.52e-4,1.360076 0.06691,1.360076 0.05346,0 0.09719,-0.04056 0.09719,-0.09008 0,-0.164669 0.715832,-1.542774 1.352719,-2.604244 0.59074,-0.984548 1.266088,-1.834164 2.777769,-3.494519 0.669269,-0.735107 0.887793,-0.947344 1.844779,-1.7917774 0.622751,-0.5495117 1.296372,-0.9381594 1.624824,-0.9374384 0.339308,7.88e-4 0.723878,0.3737247 0.723878,0.7020674 0,0.408087 -0.234627,0.6733257 -1.332373,1.5061704 -1.328316,1.00778 -2.556041,2.246306 -3.63378,3.66578 -1.098521,1.446817 -0.99302,1.289047 -1.588352,2.375181 -0.931852,1.700085 -1.84584,4.187338 -1.964209,5.34529 -0.09752,0.954024 -0.06833,1.494921 0.0832,1.544785 0.06133,0.02023 0.111481,-0.0055 0.111481,-0.05608 0,-0.05095 0.125409,-0.305154 0.278675,-0.56484 0.380285,-0.644277 1.311623,-2.363396 2.067676,-3.816597 0.344513,-0.662207 0.72635,-1.364537 0.848501,-1.560747 0.592894,-0.952264 2.498568,-3.038689 3.578668,-3.918119 0.321346,-0.261653 1.233334,-0.864266 2.026613,-1.339129 1.217044,-0.728547 1.517694,-0.871187 1.92472,-0.913201 0.448188,-0.04625 0.496095,-0.03236 0.675818,0.196133 0.226658,0.288154 0.24216,0.49322 0.06341,0.838869 -0.137905,0.266672 -0.352581,0.414362 -2.062702,1.419092 -1.382423,0.812204 -2.768115,1.840887 -3.559743,2.642629 -1.240134,1.255964 -2.432775,2.975673 -2.517734,3.630391 -0.0481,0.370663 -0.04318,0.380831 0.118981,0.248949 0.268093,-0.217977 1.413057,-1.192762 1.462298,-1.244966 0.326616,-0.346218 2.419699,-2.024032 2.898531,-2.323447 1.363838,-0.852819 3.990111,-1.689797 5.30227,-1.689797 0.533933,0 0.631595,0.02733 0.839361,0.235119 0.282207,0.282207 0.292101,0.41539 0.05554,0.747559 -0.207011,0.290724 -0.650312,0.4522 -2.540615,0.925457 -0.686719,0.171928 -1.429194,0.376556 -1.649926,0.454725 -0.368827,0.130624 -2.890714,1.411821 -3.537911,1.797375 -0.93253,0.555536 -1.44404,0.889182 -1.679432,1.095472 -0.906029,0.79399 -1.641059,1.211161 -1.50381,0.853486 0.02821,-0.07358 0.0066,-0.133773 -0.04734,-0.133773 -0.05423,0 -0.09872,0.05882 -0.09872,0.130799 0,0.07194 -0.170584,0.323128 -0.379049,0.558193 -0.889936,1.003472 -1.995181,3.229039 -2.093816,4.2162 l -0.04898,0.490519 0.243231,-0.222962 c 0.133773,-0.122633 0.792198,-0.766374 1.463151,-1.430538 1.673015,-1.656059 3.851374,-3.195629 4.159612,-2.939814 0.08484,0.07041 0.314174,0.0879 0.688107,0.05226 0.308456,-0.0293 1.476608,-0.07697 2.595902,-0.105829 1.658092,-0.04275 2.236336,-0.02405 3.121483,0.101128 1.265607,0.178881 1.672578,0.319203 1.97782,0.681962 0.210707,0.250403 0.214959,0.277014 0.08451,0.529243 -0.180423,0.348896 -0.62767,0.613676 -1.037287,0.614092 -0.180904,1.86e-4 -0.582234,-0.05827 -0.89185,-0.129914 -1.843205,-0.426475 -5.347235,-0.515074 -6.32319,-0.15988 -0.688992,0.250753 -1.558429,0.795007 -2.52133,1.578316 -1.519421,1.236044 -2.314013,2.1847 -3.066929,3.661604 -0.875428,1.717216 -0.980502,1.953669 -1.048285,2.359274 -0.03652,0.218458 -0.07238,2.265263 -0.0797,4.548457 l -0.01334,4.151259 -0.341178,0.512811 c -0.187649,0.282054 -0.367373,0.51209 -0.399395,0.511204 -0.03203,-9.84e-4 -0.155201,-0.111262 -0.273734,-0.245254 z m 2.668649,-4.94818 c 6.56e-4,-3.40369 0.141043,-4.193209 1.081783,-6.086901 0.935088,-1.882334 2.960586,-3.692161 4.927025,-4.402428 0.864146,-0.31213 2.375378,-0.317203 3.5781,-0.01203 1.024649,0.260002 1.649925,0.569245 1.649925,0.816008 0,0.157235 -0.672046,0.809832 -1.013181,0.98387 -0.445585,0.227325 -0.608756,0.206487 -2.643427,-0.33745 -0.858405,-0.229478 -1.70121,-0.433461 -1.872887,-0.453282 -0.418921,-0.04843 -0.945868,0.219245 -0.910785,0.462564 0.03958,0.274456 1.031603,1.172001 1.62829,1.473209 1.403304,0.708387 3.55384,0.942533 4.521015,0.492246 0.586531,-0.273067 1.242353,-0.880883 1.880552,-1.742864 0.272389,-0.367898 0.738528,-0.955423 1.035877,-1.305621 0.755233,-0.889487 1.107803,-1.514818 1.310081,-2.323611 0.09577,-0.382941 0.189617,-0.741951 0.208542,-0.797784 0.02438,-0.07194 0.303197,-0.04231 0.95516,0.101237 1.554221,0.342293 2.843398,0.648519 3.73012,0.886022 0.465986,0.124819 1.770327,0.463854 2.898521,0.753419 1.128193,0.289553 2.3924,0.626938 2.809342,0.749745 0.778881,0.229391 2.185968,0.548627 3.210672,0.728427 l 0.579709,0.101674 -0.579709,0.190164 c -0.318831,0.104627 -0.921827,0.307232 -1.339993,0.450331 -0.418155,0.143088 -0.919815,0.288088 -1.114811,0.32221 -0.194997,0.03411 -1.719075,0.399602 -3.386843,0.81216 -1.667756,0.412569 -3.614232,0.892855 -4.325483,1.067309 -0.711252,0.174464 -1.513922,0.379464 -1.78371,0.455567 -0.269787,0.07609 -1.112592,0.297239 -1.872898,0.491405 -0.760307,0.194176 -1.663307,0.431602 -2.006672,0.527614 -0.343364,0.09599 -1.868427,0.480023 -3.38904,0.853344 -3.47051,0.852021 -5.395208,1.479057 -5.39605,1.757962 -5.03e-4,0.188503 -2.959831,3.865522 -3.410982,4.238295 -0.07708,0.06363 -0.292286,0.354636 -0.478274,0.646584 -0.185999,0.291959 -0.370205,0.53084 -0.409333,0.53084 -0.03914,0 -0.07095,-1.093635 -0.07062,-2.430305 z m -5.760373,1.560747 c -1.826577,-1.776931 -3.218347,-3.309964 -3.560028,-3.921388 -0.247616,-0.443093 -0.452233,-0.6912 -0.668887,-0.811078 -0.888187,-0.491416 -6.310235,-2.01416 -12.262991,-3.443966 -1.324403,-0.31811 -2.729074,-0.663027 -3.121494,-0.766461 -0.39242,-0.103424 -0.874018,-0.227205 -1.070228,-0.275024 -0.196199,-0.04778 -0.858406,-0.23055 -1.471547,-0.406064 -0.613162,-0.175514 -1.777029,-0.489962 -2.58639,-0.698766 C 10.784743,26.510405 9.76134,26.235983 9.319865,26.109403 8.878401,25.982813 8.318142,25.853709 8.074845,25.822507 7.793327,25.786427 7.679834,25.741277 7.762693,25.698311 c 0.153321,-0.07937 1.840592,-0.461285 2.984146,-0.675359 0.441464,-0.08265 2.147135,-0.491897 3.790381,-0.909462 1.643234,-0.417565 3.429174,-0.850786 3.968748,-0.962726 0.539575,-0.111919 1.475461,-0.328157 2.079746,-0.480505 0.604285,-0.152348 1.136065,-0.276992 1.181709,-0.276992 0.0457,0 0.08276,0.130428 0.08254,0.289849 -5.03e-4,0.431089 0.410207,1.475515 0.785386,1.996548 0.181429,0.251955 0.630863,0.89409 0.99875,1.426963 1.356086,1.964241 2.289785,2.613263 3.594542,2.498546 0.986592,-0.0867 3.327467,-0.712399 4.087172,-1.09241 0.485064,-0.242631 0.969275,-0.81192 0.969275,-1.139585 0,-0.297393 -0.243735,-0.368051 -1.248596,-0.361972 -0.652597,0.0044 -0.913189,0.05772 -1.872898,0.386384 -1.111488,0.380657 -1.927147,0.527811 -2.344701,0.423021 -0.268431,-0.06735 -1.133528,-0.829172 -1.133528,-0.99817 0,-0.179286 0.537869,-0.577216 1.036227,-0.766648 0.570044,-0.216675 1.790105,-0.364956 2.377313,-0.28893 1.139497,0.147537 3.556256,1.064258 4.562604,1.730685 0.968859,0.64161 1.70109,1.507232 2.490008,2.943641 0.569333,1.036598 0.7818,1.846703 0.864878,3.297576 0.09719,1.698237 0.104735,4.905203 0.01137,4.905203 -0.04034,0 -0.351794,-0.270902 -0.692141,-0.602 z m 11.368256,-16.23174 c -0.08768,-0.570886 0.41927,-0.954373 1.971238,-1.491204 1.11116,-0.384362 1.391312,-0.450746 2.644827,-0.626708 1.305719,-0.183287 2.610683,-0.177263 3.011576,0.01389 0.419697,0.200145 0.574034,0.570754 0.368389,0.884622 -0.256034,0.390747 -0.631704,0.477816 -2.476659,0.573991 -1.818825,0.09479 -2.061783,0.125847 -3.796831,0.485118 -1.103212,0.228429 -1.703495,0.284273 -1.72254,0.160263 z M 28.67311,20.293 c -0.539586,-0.06286 -1.703452,-0.140343 -2.58638,-0.172179 -1.0427,-0.03761 -1.733288,-0.103424 -1.970397,-0.187945 -0.755802,-0.269284 -0.726404,-0.912447 0.05543,-1.212047 0.815692,-0.312589 3.375243,-0.149855 4.761733,0.302749 1.039113,0.33921 1.875391,0.794876 1.910157,1.040775 0.01662,0.11709 -0.02351,0.246905 -0.08921,0.288493 -0.158569,0.100472 -0.884076,0.0797 -2.081353,-0.0598 z"
       id="path2055" /></g></svg>
