<?xml version="1.0" encoding="UTF-8" standalone="no"?>
<!-- Created with Inkscape (http://www.inkscape.org/) -->

<svg
   width="300"
   height="300"
   viewBox="0 0 79.374999 79.375"
   version="1.1"
   id="svg5"
   xml:space="preserve"
   inkscape:export-filename="card-waardenboom.svg"
   inkscape:export-xdpi="96"
   inkscape:export-ydpi="96"
   sodipodi:docname="card-waardenboom.svg"
   inkscape:version="1.2.2 (732a01da63, 2022-12-09)"
   xmlns:inkscape="http://www.inkscape.org/namespaces/inkscape"
   xmlns:sodipodi="http://sodipodi.sourceforge.net/DTD/sodipodi-0.dtd"
   xmlns="http://www.w3.org/2000/svg"
   xmlns:svg="http://www.w3.org/2000/svg"><sodipodi:namedview
     id="namedview7"
     pagecolor="#ffffff"
     bordercolor="#000000"
     borderopacity="0.25"
     inkscape:showpageshadow="2"
     inkscape:pageopacity="0.0"
     inkscape:pagecheckerboard="0"
     inkscape:deskcolor="#d1d1d1"
     inkscape:document-units="mm"
     showgrid="false"
     showguides="true"
     inkscape:zoom="2.8466667"
     inkscape:cx="150.52693"
     inkscape:cy="140.51522"
     inkscape:window-width="1920"
     inkscape:window-height="1009"
     inkscape:window-x="1072"
     inkscape:window-y="-8"
     inkscape:window-maximized="1"
     inkscape:current-layer="layer1"><sodipodi:guide
       position="227.11198,171.74569"
       orientation="0,-1"
       id="guide306"
       inkscape:locked="false" /><sodipodi:guide
       position="104.16922,44.704544"
       orientation="1,0"
       id="guide308"
       inkscape:locked="false" /><sodipodi:guide
       position="230.46337,-80.23738"
       orientation="0,-1"
       id="guide310"
       inkscape:locked="false" /></sodipodi:namedview><defs
     id="defs2" /><g
     inkscape:label="Layer 1"
     inkscape:groupmode="layer"
     id="layer1"><path
       id="path314"
       style="fill:#d64410;stroke:none;"
       d="m 40.22733,74.088839 c 0.21835,-0.218358 0.22225,-0.370422 0.22225,-8.67409 0,-9.674505 -0.13569,-8.774282 1.11287,-7.383542 0.38409,0.427831 2.46872,2.565609 4.63251,4.750612 4.25837,4.300139 4.24943,4.293251 4.80358,3.703392 0.42814,-0.455729 0.18947,-0.872305 -1.58946,-2.774265 C 47.8572,62.051741 44.40435,58.556328 43.00546,57.2284 42.60819,56.851277 41.9009,56.119455 41.4337,55.602126 c -0.75418,-0.835113 -0.85649,-1.00089 -0.91233,-1.478264 -0.12385,-1.058768 -0.19795,-4.543219 -0.10203,-4.797833 0.10809,-0.286903 0.10072,-0.295174 0.97376,1.093084 0.60363,0.959876 1.66759,2.138817 3.05171,3.381539 0.7669,0.688549 2.31947,2.139341 3.45018,3.22399 1.1307,1.084646 3.25597,3.02936 4.72283,4.321591 1.46686,1.292227 3.22541,2.88772 3.9079,3.545538 1.36085,1.311651 1.61796,1.426091 2.02924,0.903232 0.5245,-0.666792 0.27298,-1.131501 -1.40161,-2.589588 -0.72209,-0.628735 -2.23802,-2.026767 -3.36872,-3.10673 -1.1307,-1.079963 -2.45587,-2.283201 -2.94482,-2.673863 -1.37945,-1.102148 -4.83955,-4.578535 -6.06877,-6.097336 -0.6097,-0.753333 -1.37393,-1.778466 -1.69828,-2.278071 -0.85027,-1.309666 -2.40136,-4.359628 -2.39846,-4.716166 0.003,-0.348047 0.35719,-0.869464 0.52177,-0.767749 0.0606,0.03747 0.22451,0.382208 0.36417,0.766079 0.62952,1.730301 2.07639,3.686451 3.7991,4.987666 1.35687,1.02489 3.26112,2.004708 6.04708,2.607204 1.01209,0.21888 9.45723,0.378844 17.98849,0.309587 5.40992,-0.04392 6.13163,-0.07003 6.30637,-0.228166 0.25841,-0.23386 0.25312,-0.828474 -0.0103,-1.153742 L 75.48339,50.59777 63.99502,50.52301 c -11.21257,-0.07297 -11.51237,-0.08046 -12.4885,-0.312272 -3.0469,-0.723585 -4.825,-1.654186 -6.47049,-3.386458 -0.97026,-1.021432 -1.38347,-1.805266 -1.78199,-3.380351 -0.26054,-1.029697 -0.30139,-1.41256 -0.29918,-2.803856 0.003,-1.683508 0.10283,-2.360676 0.56584,-3.825256 0.73634,-2.329235 2.11516,-4.084673 4.16469,-5.302276 l 0.77035,-0.457657 0.63639,0.392514 c 0.85295,0.52609 6.19386,3.231676 6.72473,3.406598 0.35862,0.118167 0.46119,0.112332 0.69277,-0.0394 0.14951,-0.09796 0.30397,-0.306177 0.34326,-0.462708 0.1271,-0.506419 -0.12069,-0.809738 -0.98532,-1.20611 -0.44277,-0.202977 -1.63176,-0.837586 -2.64221,-1.41024 -1.01045,-0.572655 -2.07309,-1.165162 -2.36142,-1.316683 -0.28833,-0.151522 -0.52423,-0.307975 -0.52423,-0.347676 0,-0.08358 0.4201,-0.256375 1.05569,-0.434233 0.69364,-0.1941 4.87972,-0.313502 8.67271,-0.247375 1.8974,0.03308 3.635,0.0254 3.86133,-0.01706 0.66292,-0.124364 0.97503,-0.98148 0.54899,-1.507618 -0.18876,-0.233105 -0.27052,-0.24216 -2.08361,-0.230771 -2.52925,0.01589 -6.50364,-0.120303 -6.44157,-0.220736 0.0274,-0.04438 0.48832,-0.339141 1.02421,-0.655029 1.35595,-0.799287 4.56554,-3.293218 5.55827,-4.31891 0.68159,-0.704232 0.40929,-1.579706 -0.49135,-1.579706 -0.29842,0 -0.69114,0.275593 -2.34162,1.643259 -4.13041,3.422642 -6.21295,4.817497 -7.5615,5.064585 l -0.3654,0.06695 0.48673,-0.692603 c 0.2677,-0.380932 0.87767,-1.44226 1.3555,-2.358507 0.65487,-1.255729 0.87125,-1.779544 0.8788,-2.127451 0.012,-0.553523 -0.27522,-0.929478 -0.71014,-0.929478 -0.39259,0 -0.63258,0.286716 -1.30222,1.555757 -1.69812,3.218078 -3.14988,5.238441 -4.31843,6.009794 -0.42417,0.279996 -1.20054,0.791643 -1.72526,1.136992 -2.49934,1.644944 -3.8528,3.561043 -4.72439,6.688335 -0.22145,0.794547 -0.44251,1.487574 -0.49126,1.540061 -0.18028,0.194128 -0.24727,-1.463158 -0.12046,-2.98015 0.29452,-3.523361 1.09534,-5.843481 2.86559,-8.302138 1.26693,-1.75961 5.46156,-5.955461 8.03551,-8.037849 0.75547,-0.61119 2.03244,-1.645663 2.83772,-2.29883 1.48089,-1.201154 1.81361,-1.618039 1.66503,-2.086193 -0.10408,-0.327906 -0.49991,-0.671186 -0.77395,-0.671186 -0.45524,0 -2.39389,1.501102 -5.14574,3.984362 -0.63359,0.571745 -1.17768,1.013836 -1.20909,0.982424 -0.0314,-0.03141 0.0954,-0.533248 0.28182,-1.115191 0.39665,-1.238255 0.60728,-3.055008 0.54986,-4.742698 -0.0375,-1.103298 -0.0465,-1.136968 -0.37184,-1.397111 -0.42302,-0.338252 -0.66305,-0.337036 -1.00518,0.0051 -0.24461,0.244616 -0.27276,0.36547 -0.27276,1.171197 0,2.931454 -0.81492,6.262154 -2.02024,8.257031 -0.25304,0.418796 -1.01465,1.385432 -1.69246,2.148078 -0.67781,0.762646 -1.53568,1.758499 -1.90638,2.213007 -0.65326,0.800945 -1.52019,2.256163 -1.81777,3.051246 -0.38874,1.038678 -0.61074,1.555761 -0.66798,1.555805 -0.0346,2.7e-5 -0.0471,-2.603372 -0.0279,-5.785328 l 0.035,-5.785378 0.46507,-0.399906 c 0.99009,-0.851361 2.74528,-2.743367 2.96386,-3.194895 0.17837,-0.36846 0.20517,-0.537722 0.12044,-0.760582 -0.14815,-0.389658 -0.59684,-0.669943 -0.91912,-0.574158 -0.14051,0.04176 -0.79305,0.607627 -1.45008,1.257482 l -1.1946,1.181554 v -3.148034 c 0,-3.418078 -0.0331,-3.621018 -0.63493,-3.895244 -0.33556,-0.15289 -0.86612,0.09463 -0.98959,0.461666 -0.0465,0.138187 -0.0741,1.665673 -0.0615,3.39441 l 0.0231,3.14316 -0.26139,-0.171271 c -0.14377,-0.0942 -0.54796,-0.537133 -0.89821,-0.984295 -0.94228,-1.203021 -1.32068,-1.363261 -1.92811,-0.816492 -0.45169,0.406583 -0.34051,0.825481 0.51108,1.925634 0.75161,0.970988 2.25199,2.483454 2.46361,2.483454 0.07,0 0.1069,2.175546 0.10307,6.08412 -0.006,6.029976 -0.008,6.078529 -0.20685,5.456075 -0.25403,-0.794271 -1.32663,-2.829869 -1.95818,-3.716277 -0.26536,-0.372451 -0.9417,-1.172554 -1.50297,-1.778008 -1.7422,-1.879337 -2.23217,-2.640279 -3.20474,-4.977132 -0.88005,-2.114555 -1.00794,-2.753788 -1.11151,-5.555679 l -0.0775,-2.097703 c -0.02236,-0.446027 -0.452928,-0.665789 -0.83515,-0.638549 -0.382222,0.02724 -0.87518,0.126233 -0.90087,0.780384 l 0.052,1.971224 c 0.0467,1.770652 0.088,2.105285 0.40593,3.288775 0.19465,0.724652 0.42042,1.510574 0.5017,1.746491 0.13381,0.388402 0.13075,0.419271 -0.0324,0.326619 -0.0991,-0.05628 -0.43021,-0.336659 -0.73581,-0.623071 -1.00254,-0.939609 -2.65473,-2.418054 -3.71375,-3.323217 -1.94525,-1.66264 -1.97544,-1.678007 -2.49429,-1.269877 -0.21631,0.170151 -0.2928,0.331549 -0.2928,0.617842 0,0.485402 0.68362,1.243397 2.22251,2.4643 0.58063,0.460654 1.48075,1.244006 2.00026,1.740782 0.51951,0.496775 1.46963,1.347214 2.11138,1.889864 1.4971,1.265914 2.33756,2.06486 4.30658,4.093862 3.27507,3.37484 4.41077,6.010177 4.90619,11.384569 0.11647,1.263432 0.0915,1.707329 -0.12859,2.288798 -0.11135,0.294139 -0.15625,0.192363 -0.5916,-1.341198 -0.25912,-0.91272 -0.62575,-2.000531 -0.81475,-2.417359 -0.86686,-1.911813 -2.42181,-3.664116 -4.51075,-5.083258 -0.55007,-0.373695 -1.31775,-0.957147 -1.70595,-1.296557 -1.31117,-1.146381 -3.1045,-3.826999 -3.61534,-5.404111 -0.25188,-0.777602 -0.55677,-1.237508 -0.95794,-1.444962 -0.3901,-0.201729 -0.68616,-0.143696 -1.00325,0.196656 -0.30994,0.332685 -0.27179,0.843988 0.11481,1.538525 0.18331,0.329332 0.57854,1.073847 0.87828,1.654477 0.29973,0.580631 0.69744,1.255718 0.88379,1.500194 0.18635,0.244476 0.45134,0.590206 0.58887,0.768288 l 0.25006,0.323787 -0.52115,-0.07143 c -0.28662,-0.03929 -0.83432,-0.229486 -1.2171,-0.422663 -1.53694,-0.775638 -5.29329,-3.486279 -7.44438,-5.37198 -1.11845,-0.980468 -1.40127,-1.088228 -1.80265,-0.686843 -0.30468,0.304671 -0.35775,0.675534 -0.15907,1.11159 0.25184,0.552729 4.55025,3.958939 6.07664,4.815344 0.38516,0.216096 0.67385,0.419339 0.64154,0.451652 -0.0323,0.03231 -1.88959,0.08907 -4.12729,0.126129 l -4.06853,0.06738 -0.21235,0.262343 c -0.2813,0.347507 -0.26987,0.912519 0.0261,1.288736 l 0.23843,0.303107 5.84569,-0.07483 c 4.90782,-0.06283 5.99028,-0.04853 6.74686,0.08908 0.49564,0.09015 1.03745,0.235325 1.20403,0.322603 l 0.30287,0.158688 -0.99057,0.410586 c -0.54482,0.225821 -1.51169,0.74964 -2.1486,1.164039 -0.63691,0.4144 -1.52294,0.950413 -1.96896,1.191141 -0.97283,0.525068 -1.23311,0.782181 -1.31736,1.30134 -0.0505,0.310852 -0.0123,0.443678 0.18334,0.639369 0.20399,0.203997 0.32364,0.234752 0.68714,0.176624 0.47691,-0.07626 1.4936,-0.559248 2.78755,-1.324254 0.4503,-0.266222 1.09192,-0.609115 1.42583,-0.761984 0.33391,-0.152869 1.09461,-0.61079 1.69045,-1.017602 0.59585,-0.406812 1.17773,-0.739659 1.29309,-0.739659 0.33927,0 1.77272,1.030361 2.68643,1.931001 1.74429,1.719352 2.75202,4.598008 2.76095,7.886896 0.003,1.181957 -0.0447,1.612649 -0.27835,2.500323 -0.34504,1.311056 -0.86759,2.43753 -1.48947,3.210849 -0.99843,1.241581 -3.09754,2.633892 -4.89583,3.24735 -1.80917,0.617167 -1.32461,0.595413 -14.23883,0.639239 -11.28164,0.03829 -11.97087,0.05178 -12.13913,0.237707 -0.31036,0.342937 -0.3381,0.816461 -0.068,1.159888 l 0.24156,0.307097 12.24096,-0.03318 12.24096,-0.03318 c 1.8807,-0.03918 5.31589,-1.832309 7.16019,-3.790228 1.36452,-1.441807 1.95267,-2.248196 2.48433,-3.406197 0.37466,-0.816056 0.48719,-0.972208 0.68063,-0.944567 0.20346,0.02907 0.23588,0.120924 0.26548,0.752003 0.0418,0.890298 -0.0364,1.225583 -0.28586,1.226567 -0.25229,0.001 -0.60389,0.537518 -0.98264,1.499434 -0.58348,1.481849 -1.10727,2.195645 -2.93242,3.996105 -0.94735,0.93453 -2.1225,2.049452 -2.61145,2.477604 -0.48895,0.428154 -1.03902,0.940297 -1.22238,1.138097 -0.18336,0.1978 -0.93273,0.86636 -1.66528,1.485686 -1.31987,1.115875 -4.10946,3.730313 -5.27304,4.941945 -0.33229,0.346017 -1.1699,1.21071 -1.86135,1.921534 -1.20865,1.242518 -1.33586,1.442953 -1.26032,1.985791 0.0421,0.302707 0.3657,0.555627 0.71084,0.555627 0.29712,0 0.69687,-0.361296 3.17763,-2.871996 2.61763,-2.649215 3.50692,-3.480345 5.29226,-4.946145 0.66296,-0.544309 0.82506,-0.692692 3.44697,-3.15536 0.79704,-0.74863 1.74552,-1.589429 2.10774,-1.86844 1.1175,-0.860798 2.48956,-2.286791 2.93882,-3.054331 0.23425,-0.400209 0.53187,-0.850265 0.66138,-1.00013 l 0.23548,-0.272482 -0.0664,0.777881 c -0.0365,0.427831 -0.10759,1.62025 -0.15792,2.649818 -0.077,1.575638 -0.12446,1.912847 -0.29976,2.130382 -1.01375,1.258023 -2.07591,2.388545 -3.73554,3.975963 -1.0732,1.026514 -2.44382,2.426017 -3.04582,3.110008 -0.60201,0.68399 -1.61962,1.785691 -2.26137,2.448218 -1.54196,1.591882 -1.69007,1.882389 -1.21805,2.389037 0.51956,0.557694 0.95149,0.246539 3.68328,-2.653443 1.24168,-1.318122 2.75766,-2.848329 3.36886,-3.400467 0.61119,-0.552135 1.70909,-1.623949 2.43979,-2.381811 0.7307,-0.757862 1.29592,-1.32448 1.25605,-1.259155 -0.0399,0.06533 -0.0809,4.01233 -0.0911,8.771115 -0.0177,8.22534 -0.009,8.659582 0.18205,8.799047 0.30863,0.225676 1.00992,0.183938 1.2694,-0.07555 z M 63.9509,62.089079 c 0.36882,-0.384974 0.32975,-0.694568 -0.15286,-1.211201 -0.40943,-0.438298 -0.8623,-0.458163 -1.33709,-0.05866 -0.41772,0.351488 -0.45856,0.867537 -0.10431,1.317902 0.45404,0.577215 1.01131,0.560422 1.59426,-0.04804 z m -47.48771,0.322639 c 0.29165,-0.156086 0.53403,-0.744363 0.46199,-1.121252 -0.0814,-0.425762 -0.43474,-0.758936 -0.8049,-0.758936 -0.42245,0 -1.00731,0.650388 -1.00731,1.120172 0,0.654079 0.75456,1.078804 1.35022,0.760016 z m 3.63867,-0.313455 c 0.437,-0.408212 0.4646,-0.90174 0.0724,-1.293971 -0.38233,-0.382336 -0.87709,-0.362389 -1.29154,0.05207 -0.41446,0.414457 -0.4344,0.909206 -0.0521,1.29154 0.37444,0.374438 0.83659,0.356396 1.27124,-0.04964 z m 40.06261,-0.0195 c 0.34413,-0.408979 0.36116,-0.703066 0.0685,-1.183089 -0.25704,-0.421566 -0.65756,-0.553323 -1.11102,-0.365493 -1.03863,0.430215 -0.77956,1.890485 0.33539,1.890485 0.33198,0 0.47947,-0.07131 0.70716,-0.341903 z m -43.12855,-4.77095 c 1.62046,-0.134266 1.74473,-0.191924 1.74249,-0.80849 -0.001,-0.257607 -0.0455,-0.537494 -0.099,-0.621967 -0.11573,-0.182729 -2.08385,-0.39097 -3.00188,-0.317619 -0.75556,0.06037 -1.18306,0.462513 -1.07359,1.009893 0.10701,0.535043 0.3761,0.757312 1.00908,0.833496 0.0611,0.0073 0.70141,-0.03554 1.42288,-0.09531 z m 47.34072,-0.01556 c 0.31776,-0.167251 0.40565,-0.310121 0.40772,-0.662742 0.002,-0.329252 -0.46499,-0.856281 -0.82137,-0.927115 -0.12795,-0.02543 -2.18752,-0.07352 -4.57682,-0.106863 l -4.3442,-0.06062 -0.23973,0.25518 c -0.41336,0.44 -0.27588,1.310243 0.23982,1.518021 0.38077,0.153416 9.04094,0.1387 9.33458,-0.01585 z M 23.81585,57.181131 c 0.52001,-0.273714 0.55789,-0.799661 0.0899,-1.248043 -0.27254,-0.261104 -0.44176,-0.315367 -1.15068,-0.368985 -0.88278,-0.06676 -1.92666,0.02199 -2.19275,0.186449 -0.10594,0.06547 -0.16235,0.298564 -0.16573,0.684835 -0.005,0.515149 0.0283,0.602702 0.27267,0.727905 0.35828,0.183542 2.80543,0.197419 3.14661,0.01783 z M 20.35451,37.636362 c 0.5586,-0.155151 1.05883,-0.751209 1.15203,-1.372728 0.10108,-0.674012 -0.0923,-1.194438 -0.62156,-1.672572 -0.38033,-0.343605 -0.5129,-0.396271 -0.9975,-0.396271 -1.07379,0 -1.80674,0.567395 -1.94776,1.507811 -0.10714,0.714465 0.1849,1.323011 0.83177,1.733246 0.52699,0.334211 0.92167,0.384203 1.58302,0.200514 z m 40.10367,-0.265286 c 0.5561,-0.368012 0.81649,-0.925349 0.74183,-1.587792 -0.0672,-0.596221 -0.29969,-0.953752 -0.86226,-1.326042 -0.81471,-0.539155 -1.81247,-0.339044 -2.27903,0.457088 -0.35754,0.610088 -0.38009,1.604705 -0.0487,2.148226 0.45293,0.742895 1.57761,0.884628 2.44817,0.30852 z M 22.86953,32.061183 c 0.31004,-0.31004 0.049,-1.235372 -0.44637,-1.582349 -0.13619,-0.09539 -0.45364,-0.173434 -0.70545,-0.173434 -0.40762,0 -0.48039,0.04187 -0.66341,0.381724 -0.19912,0.369743 -0.19922,0.393519 -0.003,0.757563 0.11132,0.206712 0.33348,0.455419 0.49367,0.552683 0.34925,0.212047 1.13848,0.250064 1.32473,0.06381 z M 58.60966,31.7233 c 0.2386,-0.681248 -0.62094,-1.554104 -1.00849,-1.024108 -0.18273,0.249906 -0.19119,0.615283 -0.0228,0.984882 0.22223,0.487726 0.86562,0.512199 1.03128,0.03923 z M 11.97847,30.306246 c 0.86425,-0.392245 1.15478,-1.613081 0.64106,-2.693887 -0.56125,-1.180823 -2.37583,-1.232988 -3.1458,-0.09043 -0.18303,0.271601 -0.25041,0.533099 -0.25041,0.971858 0,0.900907 0.39239,1.496573 1.22318,1.856848 0.5238,0.227151 0.96163,0.214466 1.53197,-0.04438 z m 56.92367,-0.145614 c 0.54665,-0.289074 0.99569,-0.997844 0.99569,-1.571608 0,-0.500272 -0.43898,-1.297192 -0.87364,-1.586004 -1.15901,-0.770105 -2.49584,-0.259699 -2.77909,1.06107 -0.14195,0.661895 -0.0878,1.016171 0.23825,1.558224 0.48351,0.803874 1.49213,1.028348 2.41879,0.538318 z M 58.45303,20.831954 c 1.13632,-0.773368 1.17001,-2.165305 0.0678,-2.798813 -0.91913,-0.528257 -1.74589,-0.463695 -2.37183,0.185217 -0.77561,0.804085 -0.78097,1.793583 -0.0135,2.488326 0.35162,0.318291 0.48364,0.356328 1.27207,0.366529 0.52999,0.0069 0.75834,-0.04584 1.04547,-0.241259 z m -43.7175,-0.07306 c 0.35696,-0.162106 0.51989,-0.335284 0.7501,-0.797256 0.33719,-0.676646 0.36515,-1.050368 0.1221,-1.632057 -0.3435,-0.822126 -0.95097,-1.248109 -1.77984,-1.248109 -1.05536,0 -1.82643,0.769161 -1.82643,1.821909 0,0.904951 0.36623,1.487958 1.16682,1.857451 0.56343,0.260038 0.99156,0.259509 1.56725,-0.0019 z m 7.92959,0.03407 c 1.17445,-0.469921 1.18263,-2.226158 0.014,-3.013671 -0.52449,-0.353454 -1.49301,-0.353968 -2.02126,-0.0011 -0.80616,0.538551 -0.97685,1.583407 -0.38536,2.358897 0.58371,0.765284 1.49486,1.015045 2.39258,0.655845 z m 43.11137,-0.05265 c 1.68366,-0.361078 1.89601,-2.679148 0.32081,-3.50207 -0.44683,-0.233432 -1.40632,-0.1996 -1.8401,0.06488 -1.32213,0.806105 -1.10137,2.872262 0.36217,3.389704 0.54825,0.193838 0.48651,0.191304 1.15712,0.04748 z M 21.11235,13.717162 c 0.9098,-0.481118 1.19437,-1.737401 0.59775,-2.63895 -0.45231,-0.683492 -0.92143,-0.921865 -1.70296,-0.865335 -0.82252,0.0595 -1.34874,0.430437 -1.62064,1.142423 -0.66325,1.736691 1.06928,3.237876 2.72585,2.361862 z m 38.91572,-0.0122 c 1.07328,-0.703235 0.96524,-2.792308 -0.17232,-3.332114 -0.48854,-0.231827 -1.31867,-0.231994 -1.80679,-3.44e-4 -1.38572,0.657567 -1.30846,2.787135 0.12513,3.448789 0.4199,0.1938 1.48243,0.127143 1.85398,-0.11631 z M 35.62259,12.18148 c 0.83701,-0.502131 0.99883,-1.844298 0.3117,-2.585335 -0.44533,-0.480272 -0.77813,-0.645348 -1.30104,-0.645348 -0.98061,0 -1.6336,0.62364 -1.71795,1.640738 -0.0775,0.934746 0.47341,1.651243 1.40416,1.826161 0.50184,0.09431 0.86056,0.02929 1.30313,-0.236216 z m 9.76768,0.222241 c 0.27105,-0.06825 0.61952,-0.264142 0.79416,-0.44643 0.25818,-0.269472 0.31847,-0.442827 0.35386,-1.017423 0.0361,-0.586302 0.003,-0.750735 -0.21711,-1.071328 -0.37601,-0.548197 -0.77585,-0.804677 -1.35648,-0.870123 -0.63294,-0.07134 -1.08059,0.104609 -1.50977,0.59341 -0.95299,1.085393 -0.17694,2.821093 1.30711,2.923484 0.0799,0.0055 0.3626,-0.0447 0.62823,-0.11159 z m 5.07744,-2.881598 c 0.23693,-0.06581 0.57217,-0.296885 0.80566,-0.555327 0.35765,-0.395877 0.39988,-0.507599 0.39988,-1.057917 0,-1.35935 -1.07716,-2.321923 -2.29178,-2.047982 -0.93663,0.211244 -1.51849,1.015584 -1.457,2.014084 0.0821,1.332909 1.16035,2.03125 2.54324,1.647142 z M 30.53606,9.313271 c 0.4937,-0.253472 0.77875,-0.704537 0.87112,-1.378492 0.13083,-0.954503 -0.7236,-2.052702 -1.68102,-2.160617 -0.72827,-0.08209 -1.40444,0.269662 -1.79471,0.933633 -0.56244,0.956884 -0.35274,1.92548 0.55677,2.571616 0.45338,0.322095 1.45419,0.338642 2.04784,0.03386 z M 40.64988,7.11332 C 41.77765,6.271314 41.6689,4.632008 40.44371,4.00542 40.1719,3.866414 39.78451,3.751273 39.58284,3.749552 c -1.06009,-0.009 -1.98146,1.24496 -1.69536,2.307436 0.1373,0.509894 0.68451,1.09618 1.15875,1.24149 0.49827,0.152676 1.27059,0.0635 1.60365,-0.185158 z M 79.375,39.687501 C 79.374999,61.606302 61.606301,79.375 39.6875,79.375 17.768699,79.375 5.5228476e-7,61.606302 0,39.687501 -5.5228477e-7,17.7687 17.768699,0 39.6875,0 61.606301,0 79.375001,17.7687 79.375,39.687501 Z"
       sodipodi:nodetypes="sssssssssssssssssssscccsssssscssssccscssssssssssssscssssscsscscscscssssssssccsssssscsccssssscsccccscsssccssscczcccsscssssssssccssscssscssccsscssssccccssscsssccssssssccsssscccccsscsssssssscsssssssccccssssssscccsssssssscsssccscccsssccscssscssscsscssssccssccccsscsssssssscsscsssccccsscssccsssccsssscsccssccccscssscccccsccssssssscccscscsccssscssscccsccssssscsscsssscscsscsssss" /></g></svg>
