<?xml version="1.0" encoding="UTF-8" standalone="no"?>
<!-- Created with Inkscape (http://www.inkscape.org/) -->

<svg
   width="300"
   height="300"
   viewBox="0 0 79.374999 79.375"
   version="1.1"
   id="svg5"
   xml:space="preserve"
   inkscape:export-filename="card-crisisbox.svg"
   inkscape:export-xdpi="96"
   inkscape:export-ydpi="96"
   xmlns:inkscape="http://www.inkscape.org/namespaces/inkscape"
   xmlns:sodipodi="http://sodipodi.sourceforge.net/DTD/sodipodi-0.dtd"
   xmlns="http://www.w3.org/2000/svg"
   xmlns:svg="http://www.w3.org/2000/svg"><sodipodi:namedview
     id="namedview7"
     pagecolor="#ffffff"
     bordercolor="#000000"
     borderopacity="0.25"
     inkscape:showpageshadow="2"
     inkscape:pageopacity="0.0"
     inkscape:pagecheckerboard="0"
     inkscape:deskcolor="#d1d1d1"
     inkscape:document-units="mm"
     showgrid="false"
     showguides="true" /><defs
     id="defs2" /><g
     inkscape:label="Layer 1"
     inkscape:groupmode="layer"
     id="layer1"><path
       style="fill:#d64410;stroke:none;"
       d="m 18.905039,79.332679 c -0.77711,-0.392637 -1.255534,-1.089578 -1.255534,-1.828992 0,-0.708109 0.297141,-1.497602 0.762726,-2.026534 0.59052,-0.670867 1.073651,-0.883974 2.206898,-0.973453 0.524658,-0.04143 9.593567,-0.07259 20.153138,-0.06926 l 19.19922,0.006 0.559584,0.309956 c 0.692474,0.383562 1.400569,1.155016 1.565531,1.705613 0.290079,0.968195 0.05031,1.897761 -0.647541,2.510483 l -0.386264,0.339146 -19.221736,2.97e-4 c -10.571954,2.1e-4 -20.022135,0.02408 -21.000405,0.05314 -0.978274,0.02907 -1.849299,0.01714 -1.935617,-0.02648 z m 5.657612,-7.193992 c -0.424787,-0.449723 -0.530857,-0.704485 -0.530762,-1.274814 2.07e-4,-1.157507 0.954519,-2.389884 2.223672,-2.871543 0.618225,-0.234624 0.760851,-0.246244 2.64144,-0.215252 3.407916,0.05616 4.230569,-0.148858 5.568811,-1.387866 1.203146,-1.11393 2.033195,-2.545088 2.57306,-4.436425 l 0.22836,-0.800029 0.05231,-27.429958 c 0.02877,-15.086475 0.08078,-27.4584138 0.115569,-27.4931968 0.03479,-0.03478 0.340828,0.07395 0.680083,0.241629 1.040591,0.514322 1.409644,0.641221 1.864822,0.641221 0.534793,0 1.602147,-0.348918 2.099206,-0.686233 0.201899,-0.13701 0.378158,-0.238759 0.391688,-0.226106 0.01352,0.01266 0.05036,12.3350878 0.08184,27.3831938 0.04625,22.109261 0.08353,27.450555 0.194244,27.831021 0.07536,0.258953 0.229158,0.843328 0.341779,1.298612 0.392415,1.586337 1.488411,3.341159 2.564678,4.106355 1.038073,0.738044 1.345734,0.797298 4.488616,0.864498 l 2.830558,0.06052 0.808684,0.399761 c 0.944401,0.466852 1.539438,1.123724 1.793782,1.980193 0.278835,0.93894 0.176381,1.403475 -0.438379,1.987637 l -0.302141,0.287101 -14.98772,0.02678 -14.987721,0.02678 z M 63.205668,53.160133 c -0.776638,-0.47359 -0.97784,-1.192398 -0.56195,-2.007612 0.505425,-0.990712 1.796839,-1.126891 2.593894,-0.273521 0.587866,0.629397 0.271285,1.801077 -0.606198,2.243567 -0.568864,0.286861 -0.998369,0.298179 -1.425746,0.03757 z m -48.33328,-0.101705 c -0.838241,-0.511175 -0.967012,-1.521785 -0.28531,-2.239139 0.600619,-0.632033 1.199619,-0.754074 1.91353,-0.389864 0.760261,0.387856 0.926425,1.214145 0.411657,2.047057 -0.456067,0.737928 -1.360826,0.996044 -2.039877,0.581946 z m 8.952444,-0.951717 c -0.121006,-0.2261 0.02533,-1.093261 0.22513,-1.333991 0.172707,-0.208101 0.587757,-0.162142 0.717022,0.07939 0.08563,0.16 0.08008,0.292843 -0.02186,0.52314 -0.07515,0.169773 -0.172225,0.30868 -0.215722,0.30868 -0.0435,0 -0.07909,0.08475 -0.07909,0.18833 0,0.415077 -0.440459,0.58017 -0.625485,0.234446 z m -3.661145,-1.843987 c -0.735493,-0.319013 -0.996329,-0.737394 -0.831619,-1.333917 0.132582,-0.480177 0.736748,-1.011476 1.150197,-1.011476 0.713955,0 1.560222,0.72592 1.561218,1.3392 5.94e-4,0.394867 -0.280825,0.81864 -0.664737,1.000819 -0.441301,0.209412 -0.741585,0.21074 -1.215059,0.0054 z m -6.42674,-3.801989 c -0.960828,-0.633424 -0.937321,-1.937583 0.04698,-2.606704 0.687696,-0.467489 1.822456,-0.111358 2.151055,0.675085 0.322724,0.772388 0.02527,1.483684 -0.793404,1.897266 -0.56906,0.28748 -1.004512,0.298131 -1.404632,0.03435 z m 10.974938,0.03861 c -0.230181,-0.08155 -0.429324,-0.148991 -0.44254,-0.149858 -0.01323,-8.89e-4 -0.119152,-0.188027 -0.235413,-0.415919 -0.266352,-0.52209 -0.26782,-0.948155 -0.005,-1.463236 0.309752,-0.607162 0.668412,-0.842744 1.283027,-0.842744 0.448873,0 0.566729,0.04724 0.866975,0.347483 0.208121,0.208121 0.376785,0.503666 0.420539,0.736908 0.145059,0.773221 -0.455898,1.707253 -1.207457,1.876682 -0.143864,0.03243 -0.449902,-0.0078 -0.680083,-0.08932 z M 64.548,46.453105 c -0.732625,-0.446684 -0.945747,-1.259037 -0.526168,-2.005575 0.450053,-0.800765 1.300992,-1.085888 2.070384,-0.693725 0.595296,0.303422 0.867224,0.787988 0.801922,1.428996 -0.116857,1.147106 -1.404617,1.844358 -2.346138,1.270304 z m -5.476536,-1.704107 c -0.520019,-0.349232 -0.540768,-0.800136 -0.05899,-1.281921 0.30696,-0.306957 0.435351,-0.362629 0.836326,-0.362629 0.388363,0 0.513165,0.05018 0.692814,0.278569 0.277991,0.353408 0.379633,0.752431 0.246325,0.967003 -0.173997,0.28006 -0.778605,0.63773 -1.078026,0.63773 -0.155617,0 -0.44292,-0.10744 -0.638452,-0.238752 z m -39.714919,0.02877 c -0.53753,-0.216577 -0.602962,-0.92474 -0.126558,-1.369769 0.509978,-0.476389 1.055145,-0.345386 1.408817,0.338544 0.145044,0.280478 0.145848,0.341921 0.0072,0.553462 -0.144843,0.221055 -0.769684,0.591606 -0.97211,0.576489 -0.04885,-0.0036 -0.191673,-0.04808 -0.317389,-0.09873 z M 17.891716,39.127796 C 13.995579,38.55814 10.457753,35.265277 9.0120743,30.862989 8.7421923,30.04116 8.7194063,29.842607 8.7119203,28.247293 l -0.0081,-1.72636 0.508631,-1.203222 c 0.7992857,-1.890788 7.2510367,-14.71663 8.4735427,-16.8450898 0.463503,-0.806985 0.651655,-1.251341 0.708836,-1.674045 0.06667,-0.492874 0.137241,-0.628003 0.491756,-0.941651 0.842906,-0.745747 3.511723,-1.556272 7.603976,-2.309347 3.187529,-0.586585 6.169763,-0.988743 8.119855,-1.094967 l 1.319044,-0.07185 -0.05056,0.787894 c -0.028,0.436199 -2.97e-4,0.931813 0.06183,1.110314 l 0.112397,0.322422 h -1.137236 c -1.409834,0 -4.708635,0.261767 -5.818416,0.461702 -0.455534,0.08207 -1.515308,0.271442 -2.355056,0.420828 -1.856411,0.330245 -5.091028,1.128789 -5.620331,1.387513 -0.28353,0.138593 -0.376904,0.244287 -0.351572,0.397967 0.01898,0.115089 0.755764,1.598191 1.637328,3.2957788 2.47228,4.760771 6.704036,13.180181 7.414901,14.752531 l 0.638585,1.412476 0.0015,1.04628 c 8.89e-4,0.609623 -0.07548,1.404682 -0.182847,1.905054 -0.228547,1.065183 -1.024552,3.147982 -1.426205,3.731764 -0.165108,0.239971 -0.368985,0.600954 -0.45306,0.802177 -0.16743,0.40071 -1.116443,1.564295 -1.857761,2.277787 -0.566847,0.545577 -1.675477,1.288701 -2.610491,1.749837 -1.61894,0.79844 -4.122696,1.165138 -6.040666,0.88471 z m 4.989181,-9.001276 c 3.279547,-0.206659 5.354006,-0.403739 5.496754,-0.522209 0.07696,-0.06387 0.172285,-0.375139 0.211838,-0.691706 0.113309,-0.906876 -0.09944,-2.164261 -0.573521,-3.389659 -0.69831,-1.804977 -8.266124,-16.7364398 -8.482641,-16.7364398 -0.09858,0 -0.92566,1.2924758 -1.339064,2.0925558 -0.223004,0.431591 -0.647251,1.231994 -0.942769,1.778674 -0.295518,0.546683 -0.992041,1.888534 -1.547825,2.981896 -0.555785,1.093362 -1.38552,2.717709 -1.843857,3.609661 -3.179085,6.186695 -3.445787,6.855383 -3.463603,8.684117 -0.01278,1.312694 0.185115,1.869398 0.714053,2.008676 0.172635,0.04546 1.373239,0.08265 2.668011,0.08264 1.294768,-3e-6 3.107448,0.06676 4.028172,0.148351 1.719769,0.152405 1.950582,0.150288 5.074452,-0.04656 z m -3.488925,-0.238702 -0.716289,-0.106643 0.03621,-1.342438 c 0.0199,-0.738341 0.02619,-1.342418 0.01391,-1.342394 -0.01225,2.4e-5 -0.27121,0.09892 -0.575454,0.219765 -0.779924,0.30979 -1.954129,0.24536 -2.605633,-0.142977 -1.212986,-0.723013 -1.765742,-1.581701 -1.849325,-2.872866 -0.05274,-0.814636 -0.09716,-0.677502 0.882251,-2.723362 0.436831,-0.912485 0.703492,-1.084532 1.79016,-1.155018 0.417204,-0.02708 0.758553,-0.08471 0.758553,-0.128112 0,-0.0434 -0.07034,-0.213768 -0.156299,-0.378594 -0.162255,-0.31111 -0.206143,-1.129332 -0.09136,-1.703241 0.0847,-0.423512 0.882053,-1.31297 1.439104,-1.605348 1.120621,-0.588174 2.921206,0.01044 3.511436,1.167372 0.328863,0.644632 0.364773,1.242196 0.118565,1.973051 -0.119799,0.355624 -0.217817,0.671612 -0.217817,0.702202 0,0.03059 0.307548,0.05561 0.68344,0.05561 0.375893,0 0.83847,0.06477 1.027948,0.143944 0.417085,0.174266 0.964547,0.814277 1.127437,1.318029 0.06563,0.202958 0.239494,0.604428 0.38637,0.892152 0.812961,1.592576 -0.264131,4.046133 -2.018458,4.597938 -0.653817,0.205651 -1.227316,0.155053 -1.856494,-0.163791 -0.213501,-0.108194 -0.442487,-0.196718 -0.508856,-0.196718 -0.08731,0 -0.109546,0.404946 -0.08044,1.464791 0.04602,1.675493 0.177564,1.51669 -1.098965,1.326643 z M 20.01017,27.27587 c 0.0363,-0.165259 0.03702,-0.45491 0.0015,-0.643671 -0.0614,-0.327294 -0.0351,-0.362439 0.567541,-0.758478 0.34756,-0.228405 0.913431,-0.687577 1.257494,-1.020385 0.567337,-0.548773 0.625422,-0.645418 0.623969,-1.038171 -8.9e-4,-0.238189 -0.0504,-0.503693 -0.110044,-0.59001 -0.094,-0.136037 -0.12514,-0.130402 -0.233811,0.0423 -0.283617,0.450747 -0.789,0.963136 -1.380903,1.40005 l -0.627768,0.463387 -0.05302,-1.554483 c -0.04343,-1.273175 -0.09076,-1.629184 -0.261571,-1.967295 -0.114698,-0.227046 -0.263514,-0.429775 -0.330699,-0.450509 -0.208,-0.06419 -0.376263,1.089901 -0.388975,2.667918 -0.0066,0.819889 -0.04026,1.490816 -0.07478,1.490947 -0.173074,5.93e-4 -0.947829,-0.672123 -1.499545,-1.302166 -0.569786,-0.650679 -0.631974,-0.693325 -0.758552,-0.520215 -0.07584,0.103712 -0.137627,0.285505 -0.137306,0.403981 8.89e-4,0.330533 1.290954,1.875923 1.883305,2.256036 0.436009,0.279785 0.522558,0.387216 0.522558,0.648645 0,0.172326 0.07353,0.468269 0.163394,0.657649 0.153478,0.323433 0.181835,0.337369 0.467254,0.229635 0.206437,-0.07792 0.32502,-0.21103 0.369854,-0.415169 z m 39.124292,11.891496 c -2.167353,-0.1992 -3.822434,-0.897383 -5.649908,-2.383365 -1.694559,-1.377909 -3.239884,-3.618066 -3.831867,-5.554815 -0.170422,-0.55755 -0.409536,-3.215251 -0.338342,-3.760528 0.153627,-1.176553 0.894364,-2.820996 4.630865,-10.280542 1.619942,-3.234054 3.016576,-6.081975 3.103629,-6.328711 0.08706,-0.246739 0.511834,-1.1275938 0.943953,-1.9574598 0.432118,-0.829866 0.771605,-1.605671 0.754415,-1.72401 -0.03214,-0.221254 -0.368421,-0.344042 -3.174311,-1.159032 -0.917826,-0.266592 -3.338964,-0.738135 -5.400278,-1.051769 -0.815505,-0.124081 -5.257718,-0.465564 -6.104572,-0.469271 -0.194505,-8.9e-4 -0.209257,-0.07098 -0.209257,-0.994787 v -0.993871 l 1.005464,-2.07e-4 c 2.508849,-2.97e-4 7.227002,0.703109 10.922118,1.628721 3.127047,0.783311 4.490181,1.241831 4.953133,1.666096 0.332229,0.304467 0.375053,0.408914 0.448157,1.093099 0.04446,0.416058 0.125019,0.811314 0.17903,0.878348 0.247231,0.306851 7.30868,14.2860388 8.782105,17.3854848 l 0.795812,1.674045 -0.0021,0.889337 c -0.0047,2.094288 -0.769939,4.399512 -2.161903,6.512304 -0.800009,1.214288 -2.445416,2.871704 -3.391914,3.416663 -1.832957,1.055352 -4.423405,1.682531 -6.254348,1.514249 z m 5.609476,-8.879674 c 2.253352,-0.05279 3.674892,-0.241683 3.959309,-0.526103 0.12942,-0.12942 0.161608,-0.436991 0.161608,-1.544189 0,-1.168329 -0.03776,-1.49608 -0.243693,-2.114981 C 68.265058,25.03219 60.540805,9.3953382 60.177007,9.0082082 c -0.113469,-0.120745 -0.182561,-0.05196 -0.420377,0.418511 -0.156524,0.309654 -0.436184,0.8005428 -0.621465,1.0908648 -0.342115,0.536074 -0.938161,1.661921 -1.382306,2.610978 -0.134651,0.287727 -0.321583,0.664387 -0.415401,0.837025 -0.163734,0.30129 -1.15907,2.277046 -1.511381,3.000118 -0.09325,0.191385 -1.017579,2.042944 -2.054059,4.114576 -2.198639,4.39445 -2.504849,5.07291 -2.655827,5.884412 -0.135275,0.727097 -0.06866,2.275076 0.114353,2.65738 0.232424,0.485519 0.498367,0.533393 3.43937,0.619159 1.51513,0.04418 2.782022,0.107577 2.81532,0.140874 0.05613,0.05613 1.802721,0.03341 7.258704,-0.09441 z m -5.243276,-1.511215 c -2.432673,-0.06619 -2.671538,-0.13217 -3.031269,-0.837302 -0.28437,-0.55741 -0.451495,-2.109402 -0.402576,-3.738503 0.03353,-1.116516 0.07762,-1.41196 0.262692,-1.760229 0.291651,-0.548812 0.725742,-0.951192 1.581853,-1.466288 l 0.69996,-0.421142 V 18.868 17.182988 l -0.30102,-0.113684 c -0.291375,-0.110041 -0.299466,-0.132418 -0.25252,-0.698518 0.07437,-0.896739 0.156279,-0.940998 1.734631,-0.937256 1.677776,0.004 1.87487,0.05509 2.076882,0.538569 0.180438,0.431848 0.118601,0.819844 -0.182019,1.142061 -0.187209,0.200662 -0.201887,0.353639 -0.175343,1.827265 l 0.02898,1.608272 0.575455,0.398421 c 0.771625,0.534238 1.312628,1.048673 1.539301,1.463711 0.168103,0.307794 0.183665,0.602218 0.153574,2.905615 -0.03319,2.540601 -0.03576,2.566092 -0.29198,2.90202 -0.142173,0.186397 -0.338974,0.380424 -0.437342,0.431173 -0.294011,0.151687 -1.312783,0.187505 -3.57925,0.12584 z m -1.107631,-1.863191 c 0.03295,-0.158248 0.04864,-1.120761 0.03487,-2.138915 l -0.02503,-1.851194 -0.249301,0.22946 c -0.477191,0.439207 -0.54762,0.78819 -0.470236,2.330096 0.06361,1.267388 0.09362,1.431036 0.287371,1.566744 0.300258,0.21031 0.353774,0.193052 0.42232,-0.136191 z M 31.817302,21.667145 c -0.419662,-0.255907 -0.776033,-0.713778 -0.773132,-0.993328 0.0038,-0.366007 0.380637,-1.082504 0.668554,-1.271155 0.401443,-0.263036 0.953669,-0.122886 1.442696,0.366141 0.464822,0.464823 0.519462,0.880223 0.186619,1.418776 -0.200144,0.323839 -0.754674,0.677867 -1.060442,0.677022 -0.07762,-2.11e-4 -0.286555,-0.08907 -0.464295,-0.197456 z m 15.067162,-0.112779 c -0.329368,-0.133243 -0.776176,-0.717873 -0.776176,-1.015595 0,-0.35641 0.291722,-0.948203 0.560061,-1.136156 0.120392,-0.08433 0.401458,-0.153322 0.624589,-0.153322 0.32047,0 0.479127,0.07343 0.755265,0.349568 0.449937,0.44994 0.544547,0.823635 0.325052,1.283923 -0.284355,0.596295 -0.9418,0.892863 -1.488791,0.671582 z m 1.08192,-5.802041 c -0.812448,-0.289967 -1.316624,-0.813142 -1.608165,-1.668769 -0.140367,-0.411957 -0.145934,-0.569991 -0.03645,-1.0345 0.163198,-0.692346 0.597058,-1.570703 1.304672,-2.641329 1.035746,-1.5670848 1.145072,-1.5658718 2.332935,0.02583 1.165479,1.56172 1.421914,2.086717 1.466579,3.002521 0.03271,0.670589 0.0085,0.779532 -0.262586,1.180637 -0.704856,1.043017 -2.083902,1.532869 -3.19699,1.135605 z M 29.513196,15.535709 c -1.131188,-0.563694 -1.568227,-1.829383 -1.081175,-3.131145 0.401526,-1.073177 1.926891,-3.1995468 2.295214,-3.1995468 0.351682,0 1.716489,1.6710498 2.296781,2.8121468 0.128106,0.251912 0.258326,0.704189 0.289379,1.005064 0.201157,1.949027 -2.004887,3.408124 -3.800199,2.513481 z M 8.9982243,13.918478 c -0.183351,-0.111794 -0.38345,-0.296853 -0.444667,-0.411242 -0.482407,-0.901384 0.544422,-2.044572 1.4838867,-1.652039 0.725671,0.303206 1.005206,1.01736 0.640124,1.635394 -0.362053,0.612907 -1.0771057,0.795098 -1.6793437,0.427887 z m 59.7177197,-0.06682 c -0.259688,-0.218514 -0.321914,-0.350974 -0.321914,-0.685276 0,-1.191686 1.138054,-1.721063 1.989683,-0.92552 0.250568,0.234066 0.312133,0.37822 0.312133,0.730884 0,0.987749 -1.211746,1.526273 -1.979902,0.879912 z M 39.177641,5.4987892 C 38.601974,5.2933312 38.294634,5.0642442 37.942498,4.5781332 37.524491,4.0010922 37.28201,3.1507202 37.37372,2.5834432 37.595309,1.2128022 38.725056,0.0074922 39.795148,5.7204974e-5 40.419805,-0.0042428 41.272446,0.4123012 41.768766,0.9643282 c 0.526242,0.58531 0.677119,1.0126 0.674667,1.910698 -0.0021,0.794255 -0.2536,1.36058 -0.883868,1.990849 -0.760768,0.760768 -1.484713,0.953131 -2.381924,0.632914 z m 1.419684,-1.738958 c 0.354357,-0.278741 0.455534,-0.809559 0.235433,-1.235189 -0.208269,-0.402747 -0.455183,-0.538953 -0.977024,-0.538953 -0.946539,0 -1.322992,1.291494 -0.519293,1.781529 0.434669,0.26503 0.918161,0.262198 1.260884,-0.0074 z"
       id="path2210" /></g></svg>
