<?xml version="1.0" encoding="UTF-8" standalone="no"?>
<!-- Created with Inkscape (http://www.inkscape.org/) -->

<svg
   width="300"
   height="300"
   viewBox="0 0 79.374999 79.375"
   version="1.1"
   id="svg5"
   xml:space="preserve"
   inkscape:export-filename="card-cirkelvanverandering.svg"
   inkscape:export-xdpi="96"
   inkscape:export-ydpi="96"
   xmlns:inkscape="http://www.inkscape.org/namespaces/inkscape"
   xmlns:sodipodi="http://sodipodi.sourceforge.net/DTD/sodipodi-0.dtd"
   xmlns="http://www.w3.org/2000/svg"
   xmlns:svg="http://www.w3.org/2000/svg"><sodipodi:namedview
     id="namedview7"
     pagecolor="#ffffff"
     bordercolor="#000000"
     borderopacity="0.25"
     inkscape:showpageshadow="2"
     inkscape:pageopacity="0.0"
     inkscape:pagecheckerboard="0"
     inkscape:deskcolor="#d1d1d1"
     inkscape:document-units="mm"
     showgrid="false"
     showguides="true" /><defs
     id="defs2" /><g
     inkscape:label="Layer 1"
     inkscape:groupmode="layer"
     id="layer1"><path
       style="fill:#d64410;stroke:none;"
       d="m 42.073206,78.94682 c -0.349113,-0.234103 -1.037888,-0.722995 -1.530617,-1.086425 -0.49272,-0.36342 -1.156064,-0.829585 -1.474086,-1.035913 -0.318031,-0.206329 -0.795072,-0.515675 -1.060097,-0.687434 -0.499211,-0.323531 -2.925991,-1.679536 -3.00578,-1.679536 -0.02485,0 -0.85493,-0.532523 -1.844557,-1.183404 -0.989616,-0.65087 -2.054125,-1.3339 -2.365589,-1.517849 -1.048359,-0.619165 -1.305436,-0.987093 -1.175106,-1.681814 0.05122,-0.27281 0.190328,-0.429062 0.757488,-0.850583 0.956626,-0.710975 2.200823,-1.520023 3.016621,-1.961569 0.375923,-0.203476 1.113169,-0.665642 1.638313,-1.027031 0.525143,-0.361398 1.822158,-1.232593 2.882246,-1.935979 1.060087,-0.703385 2.59337,-1.728024 3.407296,-2.276963 1.66913,-1.12573 1.921888,-1.199811 2.430616,-0.712412 l 0.278273,0.266603 0.0258,2.268535 0.0258,2.268525 0.337299,0.06965 c 0.541086,0.111693 2.338798,-0.0893 3.552868,-0.397158 4.519568,-1.146189 8.389417,-3.311082 11.708853,-6.550219 3.030078,-2.956791 5.608846,-7.055167 6.895873,-10.959463 0.844526,-2.561948 1.192137,-4.364233 1.34991,-6.998948 0.106098,-1.771987 -0.0549,-4.415028 -0.365992,-6.009662 -0.402545,-2.06317 -1.188668,-4.513641 -2.118228,-6.602875 -1.706563,-3.835564 -3.304825,-6.071109 -6.573003,-9.193903 -1.498194,-1.43153 -4.077672,-3.200475 -6.226452,-4.269937 -1.506538,-0.749805 -1.945249,-1.111875 -2.315597,-1.911058 -0.214323,-0.46247 -0.220901,-0.519229 -0.08439,-0.727617 0.08146,-0.124318 0.289736,-0.329654 0.462847,-0.456307 0.698831,-0.511299 1.645562,-1.421202 1.864837,-1.792324 C 52.997988,9.5871332 52.789844,8.2032694 52.064506,6.9619444 51.747108,6.4187413 51.74277,6.3985081 51.954542,6.4486515 c 0.121257,0.028729 0.740875,0.1249045 1.376928,0.2137657 1.805904,0.2522852 3.668671,1.0451179 6.216453,2.6458472 4.673787,2.9364526 7.765754,5.9610576 11.158156,10.9150556 1.062128,1.551049 2.136977,3.431195 2.611495,4.568076 0.151771,0.363647 0.44905,1.051469 0.660605,1.52851 1.155582,2.605683 2.115127,6.104694 2.484285,9.058933 0.575466,4.605366 0.215561,9.92423 -0.925988,13.684769 -0.160901,0.530047 -0.357864,1.202238 -0.4377,1.493761 -0.298101,1.088552 -1.290628,3.431668 -2.265653,5.348632 -1.963563,3.860475 -6.190729,9.163472 -9.154068,11.483776 -1.370965,1.073468 -4.458821,3.076006 -5.818124,3.773164 -1.628484,0.835226 -4.722682,2.068556 -7.136969,2.844756 -1.211235,0.389419 -3.964267,0.888527 -5.450875,0.988209 -0.5503,0.03695 -1.104928,0.105843 -1.232507,0.153208 l -0.231958,0.08609 0.06218,1.788015 0.06218,1.788016 -0.280618,0.280608 c -0.414906,0.414915 -0.796509,0.379873 -1.579268,-0.145034 z M 28.660361,73.910521 C 27.457697,73.808391 26.591388,73.647064 25.93292,73.402623 24.198119,72.758614 20.222473,70.828163 19.091244,70.080513 17.998932,69.358586 15.757935,67.608844 14.608685,66.580585 12.378896,64.585552 8.9750689,60.411724 7.3180158,57.64067 6.7041528,56.614122 5.2552332,53.613095 4.8659093,52.561834 3.1368732,47.893084 2.6381621,45.022622 2.6423769,39.76373 c 0.00189,-2.721856 0.021641,-3.060546 0.2634649,-4.577649 0.4709178,-2.9549 0.5850963,-3.433614 1.5399544,-6.456898 0.8136329,-2.576122 1.8684941,-4.946332 3.032251,-6.813239 1.5196363,-2.437827 1.6029784,-2.559292 3.0615568,-4.461807 1.120436,-1.461469 4.298912,-4.704576 5.544262,-5.657015 2.131524,-1.630185 5.134838,-3.5048497 7.024142,-4.3844645 3.744813,-1.743495 7.519224,-2.7951336 10.99735,-3.0641363 1.301504,-0.1006552 1.180909,0.1088202 1.102396,-1.9148573 l -0.06795,-1.75154839 0.256349,-0.3046606 c 0.527922,-0.62739206 0.794988,-0.55104971 2.901374,0.82939409 1.629477,1.0678988 2.914689,1.8768254 3.421187,2.1533411 2.169477,1.1843775 2.586291,1.4477668 3.854872,2.4358616 0.34452,0.2683601 1.085801,0.7609947 1.647272,1.0947508 1.244282,0.7396277 2.151115,1.5226793 2.305655,1.9909605 0.217527,0.6591204 -0.04829,0.8887248 -3.350026,2.89369 -1.946166,1.181798 -5.027654,3.202858 -9.021879,5.917191 -0.891163,0.605603 -1.207105,0.692943 -1.574854,0.435357 -0.375602,-0.263078 -0.442057,-0.714254 -0.402773,-2.73434 l 0.03667,-1.884655 -0.240926,-0.122315 c -0.801423,-0.406864 -4.122683,0.215883 -6.88767,1.291449 -2.312629,0.899603 -5.745564,3.038158 -7.750047,4.827903 -0.787323,0.70297 -2.685397,2.63065 -2.889949,2.935035 -0.08609,0.128099 -0.325053,0.424848 -0.531022,0.659433 -0.205978,0.234584 -0.487862,0.625231 -0.626422,0.868104 -0.279701,0.490263 -0.626659,1.049409 -1.238547,1.995969 -0.224614,0.347478 -0.482862,0.829774 -0.573879,1.071768 -0.09101,0.242003 -0.299839,0.656834 -0.464057,0.921857 -0.521505,0.841644 -1.651051,4.178903 -2.107227,6.225857 -0.345352,1.549689 -0.422107,2.102049 -0.587818,4.230464 -0.378702,4.863954 0.536163,9.206395 2.954192,14.022068 1.347962,2.684565 3.164507,5.060323 5.681283,7.430222 2.083365,1.961787 3.744926,3.049753 7.215057,4.724298 0.82157,0.396459 1.597894,0.772855 1.72517,0.836427 0.701931,0.350625 0.535624,0.722409 -1.005294,2.247366 -0.744372,0.73667 -1.318449,1.385131 -1.354936,1.530504 -0.104587,0.416702 0.01616,1.068781 0.297995,1.609839 0.27835,0.534283 0.65898,1.034714 1.662176,2.185382 0.33128,0.379968 0.602324,0.754796 0.602324,0.832939 0,0.07815 -0.01087,0.13479 -0.0241,0.125879 -0.01323,-0.0085 -0.197559,-0.0309 -0.409576,-0.04895 z m 2.69841,-20.936257 c -0.650654,-0.158708 -0.915536,-0.43358 -0.915536,-0.950067 0,-0.57249 0.179774,-0.625903 2.387684,-0.709368 2.417348,-0.09138 3.002803,-0.238365 3.825028,-0.960283 0.379164,-0.332914 0.933661,-1.207445 1.105202,-1.743098 0.08741,-0.272858 0.185632,-0.377567 0.421531,-0.449276 0.301181,-0.09157 1.977947,-0.23603 2.885885,-0.248666 l 0.458122,-0.0066 0.432833,0.959574 c 0.43667,0.96807 0.969666,1.653443 1.50478,1.934949 0.317445,0.167005 1.482789,0.305367 3.217552,0.382037 1.67706,0.07409 2.282427,0.18723 2.647908,0.494771 0.392953,0.330647 0.486615,0.846708 0.204816,1.128526 l -0.207812,0.207831 -8.83944,0.01503 c -4.861696,0.0085 -8.969543,-0.01682 -9.128553,-0.05557 z m 5.300435,-6.644817 C 34.1306,45.460143 32.741283,44.422689 31.366388,42.377096 30.594279,41.228347 30.24528,40.43404 29.894447,39.027004 29.674435,38.14462 29.63395,37.777193 29.635868,36.679833 c 0.0029,-1.53729 0.178015,-2.446881 0.70967,-3.681656 0.951371,-2.209565 3.264776,-4.43391 5.607911,-5.392038 2.522738,-1.031566 5.579144,-1.031302 7.972867,5.47e-4 1.8187,0.784092 3.553179,2.2676 4.689663,4.011133 1.031301,1.58215 1.48535,3.153706 1.486399,5.144695 8.13e-4,1.483271 -0.252361,2.760035 -0.776522,3.9166 -0.320279,0.706703 -1.146434,1.913411 -1.814437,2.650223 -0.216242,0.238516 -0.393785,0.46246 -0.394532,0.497634 -0.0019,0.09015 -1.426059,1.256284 -1.832422,1.500414 -0.99007,0.59482 -3.371016,1.408765 -3.562356,1.217841 -0.07627,-0.07617 -0.128458,-3.570314 -0.05756,-3.852924 0.03411,-0.135839 0.942204,-1.138875 2.067962,-2.284147 3.355157,-3.413296 3.454669,-3.551054 2.914169,-4.033992 -0.40366,-0.36067 -0.888952,-0.366076 -1.412158,-0.01569 -0.408244,0.273379 -1.44995,1.154562 -2.166632,1.832763 -0.238525,0.225711 -0.746347,0.648952 -1.128508,0.940531 l -0.694823,0.530153 -0.0448,-0.310547 c -0.184167,-1.276139 -0.272084,-2.49829 -0.348158,-4.840017 -0.0482,-1.484131 -0.135716,-2.863345 -0.194459,-3.064939 -0.05869,-0.201594 -0.226826,-0.500876 -0.373542,-0.665074 -0.220031,-0.246257 -0.312946,-0.286959 -0.530445,-0.232364 -0.55289,0.138767 -0.662711,1.003876 -0.787446,6.203015 -0.0533,2.221793 -0.09431,2.818872 -0.19357,2.818872 -0.06927,0 -0.153511,-0.0446 -0.187202,-0.09911 -0.03374,-0.05453 -0.480764,-0.409415 -0.9935,-0.788675 -0.512735,-0.379239 -1.32255,-0.980288 -1.799583,-1.335638 -1.00329,-0.747358 -1.914025,-1.245436 -2.277852,-1.245729 -0.192171,-1.99e-4 -0.289992,0.07608 -0.401666,0.312994 -0.28504,0.604752 -0.197379,0.730035 2.242074,3.20436 1.254167,1.272104 2.396917,2.45719 2.539427,2.633524 0.24859,0.307569 0.258655,0.364355 0.247796,1.397387 -0.0206,1.956722 -0.116418,2.999865 -0.277791,3.023046 -0.07948,0.01143 -0.621603,-0.143229 -1.204649,-0.343679 z"
       id="path2125" /></g></svg>
