<?xml version="1.0" encoding="UTF-8" standalone="no"?>
<!-- Created with Inkscape (http://www.inkscape.org/) -->

<svg
   width="100"
   height="100"
   viewBox="0 0 26.458333 26.458333"
   version="1.1"
   id="svg5"
   xml:space="preserve"
   inkscape:export-filename="people.svg"
   inkscape:export-xdpi="96"
   inkscape:export-ydpi="96"
   sodipodi:docname="car.svg"
   inkscape:version="1.2.2 (732a01da63, 2022-12-09)"
   xmlns:inkscape="http://www.inkscape.org/namespaces/inkscape"
   xmlns:sodipodi="http://sodipodi.sourceforge.net/DTD/sodipodi-0.dtd"
   xmlns="http://www.w3.org/2000/svg"
   xmlns:svg="http://www.w3.org/2000/svg"><sodipodi:namedview
     id="namedview7"
     pagecolor="#ffffff"
     bordercolor="#000000"
     borderopacity="0.25"
     inkscape:showpageshadow="2"
     inkscape:pageopacity="0.0"
     inkscape:pagecheckerboard="0"
     inkscape:deskcolor="#d1d1d1"
     inkscape:document-units="mm"
     showgrid="false"
     inkscape:zoom="1.1711203"
     inkscape:cx="-102.89293"
     inkscape:cy="233.96401"
     inkscape:window-width="1920"
     inkscape:window-height="1009"
     inkscape:window-x="1072"
     inkscape:window-y="-8"
     inkscape:window-maximized="1"
     inkscape:current-layer="layer1" /><defs
     id="defs2" /><g
     inkscape:label="Layer 1"
     inkscape:groupmode="layer"
     id="layer1"><path
       id="path312"
       style="fill:#000000;stroke-width:0.4305"
       d="m 8.666606,4.7175358 c -1.3871577,0 -2.4539381,0.4598612 -3.2838251,1.2798482 C 4.5896796,6.7810208 4.0614797,7.8474127 3.6199603,8.9697559 3.399036,9.5692369 3.1790756,10.169126 2.95879,10.768841 H 2.097619 c -0.00238,-1.7e-5 -0.00444,6e-6 -0.00666,0 -0.00654,-1.9e-5 -0.013089,-3.3e-5 -0.019595,0 -0.549778,0.0028 -1.07296443,0.226197 -1.45848403,0.615787 -0.3909024,0.395081 -0.6089227,0.928584 -0.612896003333,1.48207 v 0.0062 1.932119 1.067615 2.104086 0.0062 C 0.00394397,18.536444 0.22197357,19.069946 0.61287987,19.465028 1.0029572,19.859223 1.5340369,20.082805 2.0909428,20.08037 v 2.22e-4 h 0.00666 2.7843907 c 0.048404,0 0.095471,-0.005 0.1417122,-0.01268 0.120099,0.346662 0.3152487,0.668759 0.5799714,0.939252 0.7032593,0.718691 1.7596156,0.931688 2.6758225,0.539481 0.6496353,-0.278175 1.1365199,-0.822324 1.364382,-1.478065 0.046679,0.0078 0.094602,0.01201 0.1434969,0.01201 h 7.1409375 c 0.04842,0 0.0959,-0.0041 0.142162,-0.01179 0.120126,0.346308 0.315033,0.668111 0.579522,0.938363 0.703255,0.718692 1.759901,0.931688 2.676044,0.53948 0.64962,-0.278168 1.136346,-0.822342 1.364164,-1.478065 0.04667,0.0078 0.0946,0.01201 0.143498,0.01201 h 2.526986 0.0067 c 0.556918,0.0024 1.087986,-0.221359 1.478063,-0.615564 0.390942,-0.395087 0.608852,-0.928579 0.612894,-1.48207 v -0.0062 -1.585961 -1.58574 -1.93212 -0.0062 c -0.0084,-1.143831 -0.922831,-2.10245 -2.089881,-2.097858 h -0.0057 -3.004406 l -0.65405,-1.7806199 -0.0071,-0.018466 C 20.255631,7.8473844 19.727534,6.7810311 18.934357,5.9973788 18.104521,5.1773764 17.037448,4.7175307 15.650306,4.7175307 h -3.397724 -1.217561 z m 0,1.7292303 h 1.503869 V 10.768841 H 4.8820053 4.8010323 L 5.2330636,9.5926618 C 5.6523346,8.5287251 6.0729976,7.7462438 6.5981117,7.2273996 7.0881381,6.7432256 7.7112408,6.4467661 8.666606,6.4467661 Z m 3.233101,0 h 0.352831 3.397725 c 0.955391,0 1.578523,0.2964511 2.068493,0.7806335 0.52626,0.5199386 0.947411,1.3045625 1.367499,2.3719362 3.34e-4,0.00122 0.0012,0.00232 0.0016,0.00354 l 0.428029,1.1659452 H 18.763986 13.205221 11.899568 Z M 2.0844976,12.498294 h 0.00643 1.4713874 1.3196748 6.1529732 2.170377 5.558765 1.990627 3.613742 0.0057 c 0.174079,-0.0012 0.353105,0.148327 0.354834,0.380862 v 1.061387 h -1.470054 c -0.477523,0 -0.864733,0.386986 -0.864733,0.864504 0,0.477518 0.38721,0.864726 0.864733,0.864726 h 1.470054 v 0.721013 1.579733 c -0.0012,0.108831 -0.04374,0.208336 -0.112792,0.278082 -0.06834,0.06906 -0.155917,0.103472 -0.24226,0.10278 h -0.0067 -2.533669 c -0.05021,0 -0.09941,0.0042 -0.14727,0.01246 -0.12163,-0.343477 -0.315792,-0.659006 -0.573077,-0.9219 -0.459881,-0.470021 -1.083043,-0.733608 -1.732342,-0.732359 -0.992856,0 -1.887647,0.613963 -2.266709,1.555039 -0.01332,0.03301 -0.02574,0.06611 -0.0376,0.09944 -0.04822,-0.0083 -0.09779,-0.01267 -0.148388,-0.01267 h -7.14085 c -0.050134,0 -0.099254,0.0042 -0.1470555,0.01246 C 9.518662,18.020378 9.3242773,17.704848 9.0670041,17.441955 8.6070407,16.971934 7.9839565,16.708347 7.3346584,16.709595 c -0.9928322,0 -1.8878378,0.613967 -2.2669319,1.55504 -0.013367,0.03329 -0.0259,0.06671 -0.037841,0.100332 -0.048189,-0.0083 -0.09737,-0.01358 -0.1479397,-0.01358 H 2.0908837 2.0844537 C 1.9980827,18.352095 1.910521,18.317657 1.8421895,18.248604 1.7731365,18.178864 1.7299484,18.079353 1.7291749,17.970521 V 15.872665 15.669776 H 3.104909 c 0.4775194,0 0.864503,-0.387216 0.864503,-0.864727 0,-0.477501 -0.3869836,-0.864504 -0.864503,-0.864504 H 1.7291774 v -1.061383 c 7.913e-4,-0.10883 0.043965,-0.208564 0.1130146,-0.278304 0.068332,-0.06906 0.1558928,-0.10325 0.2422642,-0.102558 z"
       sodipodi:nodetypes="sscccsccccccccccccsccccssccccsccsccccccccccccsccsscccccssccscsccccccccccccccccccsssccccccscccscsscscccsccccccssscccc" /></g></svg>
