<?xml version="1.0" encoding="UTF-8" standalone="no"?>
<!-- Created with Inkscape (http://www.inkscape.org/) -->

<svg
   width="100"
   height="100"
   viewBox="0 0 26.458333 26.458333"
   version="1.1"
   id="svg5"
   xml:space="preserve"
   inkscape:export-filename="people.svg"
   inkscape:export-xdpi="96"
   inkscape:export-ydpi="96"
   sodipodi:docname="people.svg"
   inkscape:version="1.2.2 (732a01da63, 2022-12-09)"
   xmlns:inkscape="http://www.inkscape.org/namespaces/inkscape"
   xmlns:sodipodi="http://sodipodi.sourceforge.net/DTD/sodipodi-0.dtd"
   xmlns="http://www.w3.org/2000/svg"
   xmlns:svg="http://www.w3.org/2000/svg"><sodipodi:namedview
     id="namedview7"
     pagecolor="#ffffff"
     bordercolor="#000000"
     borderopacity="0.25"
     inkscape:showpageshadow="2"
     inkscape:pageopacity="0.0"
     inkscape:pagecheckerboard="0"
     inkscape:deskcolor="#d1d1d1"
     inkscape:document-units="mm"
     showgrid="false"
     inkscape:zoom="2.7633333"
     inkscape:cx="43.968637"
     inkscape:cy="121.2304"
     inkscape:window-width="1920"
     inkscape:window-height="1009"
     inkscape:window-x="1072"
     inkscape:window-y="-8"
     inkscape:window-maximized="1"
     inkscape:current-layer="layer1" /><defs
     id="defs2" /><g
     inkscape:label="Layer 1"
     inkscape:groupmode="layer"
     id="layer1"><path
       id="path772"
       style="stroke-width:0.0522613;stroke-dasharray:0.104522, 0.209045"
       d="M 13.282893,1.3756405e-4 C 13.198313,-5.8472448e-4 13.113312,0.00153398 13.028086,0.00660444 11.486207,0.07717969 10.091418,1.0875373 9.5483762,2.5146138 8.9318832,3.9934787 9.4004922,5.8552567 10.569097,6.874205 11.917241,8.1504097 14.179708,8.2475784 15.630155,7.0879547 16.588581,6.385048 17.172758,5.168871 17.181393,3.952383 17.183993,3.5835597 17.134323,3.2145783 17.025374,2.859997 16.56563,1.2077747 15.002691,0.01437337 13.282893,1.3515642e-4 Z M 13.228149,2.0970707 c 1.024687,0 1.855315,0.8306875 1.855315,1.8553147 0,1.0246283 -0.830628,1.8553146 -1.855315,1.8553146 -1.024687,0 -1.855314,-0.8306863 -1.855314,-1.8553146 0,-1.0246272 0.830627,-1.8553147 1.855314,-1.8553147 z M 21.333705,8.696925 C 21.090148,8.6970034 20.845793,8.726355 20.605862,8.78775 18.35303,9.260805 16.10331,9.8538504 13.786784,9.8776474 11.661838,9.95127 9.5489632,9.628456 7.4870252,9.1383584 6.6139832,8.994442 5.7503065,8.655192 4.8560918,8.7126014 3.2261112,8.8074754 1.8329929,10.290539 1.8571313,11.927302 c -0.040612,1.458287 1.0222846,2.827538 2.4286305,3.190067 1.1876943,0.410685 2.3986564,0.771734 3.5722774,1.212822 0.40393,0.274709 0.119034,0.763029 -0.01294,1.105076 -0.637611,1.705386 -1.338088,3.389478 -1.9366837,5.108088 -0.4237104,1.586047 0.6141857,3.37062 2.2011957,3.789012 1.432264,0.430949 3.0450508,-0.277352 3.7131168,-1.613198 0.468359,-0.820247 0.937577,-1.64019 1.405421,-2.46073 0.593419,0.993277 1.108314,2.037488 1.755034,2.996472 0.948223,1.246961 2.836834,1.576134 4.162016,0.72212 1.295963,-0.782715 1.861077,-2.543488 1.239448,-3.929356 -0.66059,-1.755284 -1.372591,-3.496081 -2.001878,-5.260125 -0.03439,-0.364947 0.270974,-0.507141 0.572569,-0.604421 1.75e-4,-5.6e-5 3.23e-4,-1.92e-4 4.67e-4,-2.48e-4 0.09549,-0.0288 0.191399,-0.05818 0.287654,-0.08883 1.185169,-0.420221 2.404703,-0.752389 3.568046,-1.228499 1.458203,-0.695783 2.179654,-2.560743 1.578361,-4.058998 C 23.941114,9.5487794 22.648883,8.6964994 21.333673,8.696925 Z m 0.03384,2.10191 c 0.614687,0.01181 1.136679,0.514695 1.136679,1.161562 0,0.499802 -0.319834,0.943525 -0.794033,1.101593 l -1.614193,0.537982 c -7.34e-4,2.91e-4 -0.0015,4.67e-4 -0.0023,7.67e-4 l -1.611954,0.537484 c -0.02686,0.0089 -0.05396,0.01782 -0.08112,0.02687 -0.161438,0.05347 -0.32588,0.108482 -0.483984,0.171945 -3.595325,0.98863 -6.501882,0.563884 -11.0097068,-0.554649 L 4.7458345,13.062014 C 4.2716651,12.903947 3.9518018,12.460222 3.9518018,11.960421 c 0,-0.646867 0.5219473,-1.149506 1.1366787,-1.161313 0.087819,-0.0017 0.1776383,0.0065 0.2679953,0.02588 l 2.8207954,0.604417 c 0.152262,0.03262 0.234156,0.05029 0.315772,0.06719 3.1236448,0.646115 6.3465358,0.646115 9.4701658,0 0.08163,-0.01689 0.163695,-0.0345 0.31627,-0.06719 l 2.820297,-0.604421 c 0.09035,-0.01936 0.179934,-0.02781 0.267747,-0.02613 z m -11.196584,5.89565 c 2.039922,0.275121 4.014222,0.381946 6.114874,0.08187 0.0014,0.105635 0.0076,0.211817 0.02215,0.31826 0.04171,0.304408 0.162034,0.615907 0.277949,0.915714 0.01039,0.02672 0.02062,0.05321 0.03086,0.07963 l 1.850587,4.811476 c 0.270419,0.703062 -0.248684,1.458671 -1.002059,1.458671 -0.385148,0 -0.740724,-0.206579 -0.931888,-0.540967 l -2.338803,-4.092841 c -0.19814,-0.346855 -0.56708,-0.560874 -0.966476,-0.560874 -0.399395,0 -0.768336,0.214019 -0.966475,0.560874 l -2.3388018,4.092841 c -0.191119,0.334388 -0.546944,0.540967 -0.932136,0.540967 -0.753302,0 -1.27223,-0.755609 -1.00181,-1.458671 l 1.850587,-4.811476 c 0.01018,-0.02642 0.02029,-0.05291 0.03061,-0.07963 0.115916,-0.299807 0.2363358,-0.611306 0.2779488,-0.915714 0.01831,-0.133974 0.02533,-0.267645 0.02289,-0.400127 z" /></g></svg>
