<?xml version="1.0" encoding="UTF-8" standalone="no"?>
<!-- Created with Inkscape (http://www.inkscape.org/) -->

<svg
   width="300"
   height="300"
   viewBox="0 0 79.374998 79.375"
   version="1.1"
   id="svg600"
   xml:space="preserve"
   inkscape:version="1.2.2 (732a01da63, 2022-12-09)"
   sodipodi:docname="no-smoking-no-drinking.svg"
   inkscape:export-filename="..\source\repos\Ekzakt\Eric.Jansen\Ej.Client\wwwroot\karus\Crisisbox\moneycounter-no-smoking.svg"
   inkscape:export-xdpi="96"
   inkscape:export-ydpi="96"
   xmlns:inkscape="http://www.inkscape.org/namespaces/inkscape"
   xmlns:sodipodi="http://sodipodi.sourceforge.net/DTD/sodipodi-0.dtd"
   xmlns="http://www.w3.org/2000/svg"
   xmlns:svg="http://www.w3.org/2000/svg"><sodipodi:namedview
     id="namedview602"
     pagecolor="#ffffff"
     bordercolor="#000000"
     borderopacity="0.25"
     inkscape:showpageshadow="2"
     inkscape:pageopacity="0.0"
     inkscape:pagecheckerboard="0"
     inkscape:deskcolor="#d1d1d1"
     inkscape:document-units="mm"
     showgrid="false"
     showguides="true"
     inkscape:zoom="1.5215768"
     inkscape:cx="445.91899"
     inkscape:cy="427.18842"
     inkscape:window-width="1920"
     inkscape:window-height="1009"
     inkscape:window-x="1072"
     inkscape:window-y="-8"
     inkscape:window-maximized="1"
     inkscape:current-layer="layer1" /><defs
     id="defs597" /><g
     inkscape:label="Layer 1"
     inkscape:groupmode="layer"
     id="layer1"><g
       id="g1446"
       transform="translate(-112.80266,-3.8113498)"><path
         style="fill:#ffffff;stroke-width:0.0600795;stroke-dasharray:0.120159, 0.240318"
         d="M 192.17766,43.498852 A 39.687497,39.687497 0 0 1 152.49016,83.186344 39.687497,39.687497 0 0 1 112.80267,43.498852 39.687497,39.687497 0 0 1 152.49016,3.8113555 39.687497,39.687497 0 0 1 192.17766,43.498852 Z"
         id="path1359" /><path
         id="rect1351"
         style="fill:#000000;stroke:none;stroke-width:0.0560611;stroke-dasharray:0.112122, 0.224244"
         d="m 159.69998,16.942795 c -0.33468,0 -0.60432,0.269641 -0.60432,0.604321 v 11.790205 c -0.9813,0.495796 -4.34256,1.700389 -4.34266,7.171133 v 30.65854 c 0,0.75951 0.61164,1.37088 1.37117,1.37088 h 11.04408 c 0.75952,0 1.37117,-0.61137 1.37117,-1.37088 v -30.65854 c -1e-4,-5.470744 -3.11621,-6.547181 -4.30819,-7.171133 V 17.547116 c 0,-0.33468 -0.26964,-0.604321 -0.60432,-0.604321 z m -16.36797,24.111462 v 5.61e-4 l -5.34156,0.0116 c -1.87338,6.189525 -2.852,10.26071 -2.09601,13.074909 0.75599,2.814189 3.23152,4.611115 6.01976,5.556518 0.37624,0.128301 0.60654,0.243243 0.69065,0.620546 v 4.168273 c -0.001,1.91642 -2.43581,2.96105 -3.70258,2.96105 h -1.83771 c -0.14852,0 -0.26798,0.11946 -0.26798,0.26798 v 0.55391 c 0,0.14852 0.11946,0.26827 0.26798,0.26827 h 12.59516 c 0.14851,0 0.26826,-0.11975 0.26826,-0.26827 v -0.55391 c 0,-0.14852 -0.11975,-0.26798 -0.26826,-0.26798 h -2.06925 c -1.22276,0 -3.53131,-1.02701 -3.53131,-2.97324 V 60.71731 l 0.001,-0.0017 c -0.001,-0.711377 0.24309,-0.85246 0.72774,-1.017728 2.78824,-0.945403 5.26377,-2.742329 6.01976,-5.556518 0.75598,-2.814199 -0.22265,-6.885384 -2.09601,-13.074909 l -5.04491,-0.01132 v -0.0011 l -0.17179,2.86e-4 z" /><path
         id="path1361"
         style="fill:#ff0000;stroke-width:0.0506349;stroke-dasharray:0.10127, 0.202539"
         d="m 152.49027,10.050164 a 33.448567,33.448567 0 0 0 -33.44861,33.448615 33.448567,33.448567 0 0 0 7.73509,21.376075 l 47.0896,-47.089601 a 33.448567,33.448567 0 0 0 -21.37608,-7.735089 z m 25.5258,11.857283 -47.11742,47.117127 a 33.448567,33.448567 0 0 0 21.59162,7.92281 33.448567,33.448567 0 0 0 33.44832,-33.448605 33.448567,33.448567 0 0 0 -7.92252,-21.591332 z m 14.16159,21.591405 a 39.687497,39.687497 0 0 1 -39.6875,39.687492 39.687497,39.687497 0 0 1 -39.6875,-39.687492 39.687497,39.687497 0 0 1 39.6875,-39.6874965 39.687497,39.687497 0 0 1 39.6875,39.6874965 z" /></g></g></svg>
