<?xml version="1.0" encoding="UTF-8" standalone="no"?>
<!-- Created with Inkscape (http://www.inkscape.org/) -->

<svg
   width="300"
   height="300"
   viewBox="0 0 79.374998 79.375"
   version="1.1"
   id="svg600"
   xml:space="preserve"
   inkscape:version="1.2.2 (732a01da63, 2022-12-09)"
   sodipodi:docname="no-smoking-no-drinking.svg"
   inkscape:export-filename="..\source\repos\Ekzakt\Eric.Jansen\Ej.Client\wwwroot\karus\Crisisbox\moneycounter-no-smoking.svg"
   inkscape:export-xdpi="96"
   inkscape:export-ydpi="96"
   xmlns:inkscape="http://www.inkscape.org/namespaces/inkscape"
   xmlns:sodipodi="http://sodipodi.sourceforge.net/DTD/sodipodi-0.dtd"
   xmlns="http://www.w3.org/2000/svg"
   xmlns:svg="http://www.w3.org/2000/svg"><sodipodi:namedview
     id="namedview602"
     pagecolor="#ffffff"
     bordercolor="#000000"
     borderopacity="0.25"
     inkscape:showpageshadow="2"
     inkscape:pageopacity="0.0"
     inkscape:pagecheckerboard="0"
     inkscape:deskcolor="#d1d1d1"
     inkscape:document-units="mm"
     showgrid="false"
     showguides="true"
     inkscape:zoom="1.5215768"
     inkscape:cx="445.91899"
     inkscape:cy="427.18842"
     inkscape:window-width="1920"
     inkscape:window-height="1009"
     inkscape:window-x="1072"
     inkscape:window-y="-8"
     inkscape:window-maximized="1"
     inkscape:current-layer="layer1" /><defs
     id="defs597" /><g
     inkscape:label="Layer 1"
     inkscape:groupmode="layer"
     id="layer1"><path
       style="fill:#ffffff;stroke-width:0.0600796;stroke-dasharray:0.120159, 0.240318"
       d="M 79.375,39.687499 A 39.687499,39.687499 0 0 1 39.687501,79.374998 39.687499,39.687499 0 0 1 9.0653304e-7,39.687499 39.687499,39.687499 0 0 1 39.687501,6.6404396e-7 39.687499,39.687499 0 0 1 79.375,39.687499 Z"
       id="path635" /><path
       id="rect459"
       style="display:inline;fill:#000000;stroke:#000000;stroke-width:0.0560611;stroke-dasharray:0.112122, 0.224244"
       d="m 21.440338,40.630312 h 44.257408 v 7.165023 H 21.440338 Z m -3.831189,0 h 2.386738 v 7.165023 h -2.386738 z m -3.77065,0 h 2.386483 v 7.165023 h -2.386483 z m 3.770651,-1.218538 h 2.386739 v -3.731141 c 0.142307,-2.283856 1.754696,-2.901621 3.834291,-2.989887 h 7.039588 c 3.374298,-0.530252 5.484441,-2.406214 4.842409,-7.211916 4.565232,-0.85745 6.651002,-3.802407 6.643238,-6.953423 0.0011,-5.709549 -3.990149,-7.365732 -6.927577,-7.289463 v 2.283343 c 6.794218,0.252381 5.609855,10.165037 -0.965036,9.676202 -0.918295,-0.04452 -1.671325,0.65259 -1.318307,1.981769 0.858742,3.791102 -0.443355,5.251979 -3.136365,5.212914 h -6.083168 c -4.066325,-0.06878 -6.230892,1.79537 -6.333044,5.755746 z m -3.723766,0 h 2.339599 l 0.0073,-3.533441 c 0.01143,-5.53258 2.923436,-8.860846 7.986328,-8.798198 h 3.185947 c 1.439426,-0.0026 1.740633,-1.25138 1.005833,-2.144631 -3.37045,-5.217234 0.908357,-9.354072 4.532973,-9.065947 v -2.437081 c -4.362611,0.08082 -9.952568,3.687657 -7.339798,11.262276 l -1.578709,0.0184 c -6.429816,0.07494 -10.26076,5.181905 -10.18526,11.106015 0.01526,1.197538 0.04579,3.592608 0.04579,3.592608 z" /><path
       id="circle526"
       style="fill:#ff0000;stroke-width:0.0506349;stroke-dasharray:0.10127, 0.202539"
       d="M 39.687613,6.2388095 A 33.448569,33.448569 0 0 0 6.2389964,39.687426 33.448569,33.448569 0 0 0 13.974087,61.063505 L 61.063691,13.973899 A 33.448569,33.448569 0 0 0 39.687613,6.2388095 Z M 65.213407,18.096094 18.095991,65.21322 A 33.448569,33.448569 0 0 0 39.687613,73.136038 33.448569,33.448569 0 0 0 73.135933,39.687426 33.448569,33.448569 0 0 0 65.213407,18.096094 Z M 79.375,39.687499 A 39.687499,39.687499 0 0 1 39.687501,79.374998 39.687499,39.687499 0 0 1 -2.1468884e-7,39.687499 39.687499,39.687499 0 0 1 39.687501,6.6404394e-7 39.687499,39.687499 0 0 1 79.375,39.687499 Z" /></g></svg>
